<svg xmlns="http://www.w3.org/2000/svg" width="33.728" height="23.288" viewBox="0 0 33.728 23.288">
  <g id="Group_205" data-name="Group 205" transform="translate(-8 -21)">
    <path id="Path_388" data-name="Path 388" d="M11.614,21A3.633,3.633,0,0,0,8,24.614V40.675a3.633,3.633,0,0,0,3.614,3.614h26.5a3.633,3.633,0,0,0,3.614-3.614V24.614A3.633,3.633,0,0,0,38.114,21Zm.263,2.409H37.863L25.6,34.351a1,1,0,0,1-1.456,0Zm-1.468,1.92,8.257,7.366-8.257,7.93Zm28.91,0V40.612l-8.231-7.93ZM29.281,34.3l7.867,7.579H12.58l7.892-7.566,2.071,1.845a3.533,3.533,0,0,0,4.668,0Z" transform="translate(0 0)" fill="#fff"/>
  </g>
</svg>
