<svg xmlns="http://www.w3.org/2000/svg" width="93.02" height="91.425" viewBox="0 0 93.02 91.425">
  <path id="Path_483" data-name="Path 483" d="M98.462,46.071A46.648,46.648,0,0,0,45.371,7.229,46.508,46.508,0,0,0,6.529,60.32a46.022,46.022,0,0,0,5.277,15.41A9.789,9.789,0,0,0,10.54,87.551l.633,1.161-.528.317a2.023,2.023,0,0,0-.739,2.533,2.023,2.023,0,0,0,2.533.739l2.744-1.583,2.639,4.644a1.466,1.466,0,0,0,2.533-1.478L17.718,89.24l6.333-3.694,2.639,4.644a1.466,1.466,0,1,0,2.533-1.478l-2.639-4.644,2.744-1.583a1.866,1.866,0,1,0-1.794-3.272l-.422.317-.633-1.161a9.759,9.759,0,0,0-5.805-4.644,9.975,9.975,0,0,0-5.277-.106,42.731,42.731,0,0,1-4.75-13.932A42.3,42.3,0,0,1,46,11.451,42.317,42.317,0,0,1,67.748,92.723c-.106,0-8.761,3.378-15.2-1.372C47.9,87.973,45.371,81.218,45.055,71.3h0c-.211-4.011,1.055-12.033,4.116-18.365.106-.211.422-.106.317.106a42.709,42.709,0,0,0-.739,19.1,12.666,12.666,0,0,0,4.855-.422c5.383-1.583,10.133-7.177,8.866-13.088C59.2,43.749,67.642,32.349,69.225,29.816a.474.474,0,0,0-.422-.739c-3.061-.211-20.265,4.011-30.187,14.355C29.75,52.72,32.6,65.492,40.411,69.819l.211.106C40.833,82.063,44,90.4,50.016,94.834a18.546,18.546,0,0,0,10.872,3.272,24.111,24.111,0,0,0,8.338-1.478A46.84,46.84,0,0,0,98.462,46.071Z" transform="translate(-5.969 -6.682)" fill="#fff"/>
</svg>
