<svg xmlns="http://www.w3.org/2000/svg" width="22.63" height="22.63" viewBox="0 0 22.63 22.63">
  <path id="Path_15" data-name="Path 15" d="M66.352,898.018a4.253,4.253,0,0,1-4.243,4.243H59.281V893.3h2.99l.442-3.3H59.281V887.9a1.686,1.686,0,0,1,.412-1.222,1.917,1.917,0,0,1,1.415-.428l1.945-.015v-3.049q-1.414-.133-2.651-.133a4.38,4.38,0,0,0-3.212,1.187,4.441,4.441,0,0,0-1.209,3.322V890h-3.3v3.3h3.3v8.958H47.966a4.251,4.251,0,0,1-4.244-4.243V883.875a4.249,4.249,0,0,1,4.244-4.244H62.109a4.251,4.251,0,0,1,4.243,4.244Z" transform="translate(-43.722 -879.631)" fill="#fff"/>
</svg>
