<svg xmlns="http://www.w3.org/2000/svg" width="234.101" height="77.976" viewBox="0 0 234.101 77.976">
  <g id="Group_177" data-name="Group 177" transform="translate(-27.515 -539.266)">
    <path id="Path_1" data-name="Path 1" d="M105.29,581a14.657,14.657,0,0,0-2.833-1.67,13.422,13.422,0,0,0-4.722-1.415,9.564,9.564,0,0,0-3.707.538c-2.5.836-4.66,2.488-6.828,3.946a18.027,18.027,0,0,1-8.2,3.463,9.8,9.8,0,0,1-4.033-.425c-.006-.006-.01-.006-.017-.014a14.068,14.068,0,0,1-1.539-1.477A34.438,34.438,0,0,1,70.4,579.99a1.392,1.392,0,0,0-.349-.308,18.976,18.976,0,0,0,4.661,1.287,25.856,25.856,0,0,0,6.883,0,11,11,0,0,0,4.656-1.866,18.41,18.41,0,0,0,5.514-6.774,31.241,31.241,0,0,1,4.246-6.669,9.363,9.363,0,0,1,2.582-1.941,9.5,9.5,0,0,1,1.512-.575,7.723,7.723,0,0,1,.772-.172c-.084.014.466-.069.348-.055,0,0,.611-.038.279-.023.147-.01,1.787-.135.868-.311a14.372,14.372,0,0,0-3.279-.162,13.32,13.32,0,0,0-4.837.932,9.829,9.829,0,0,0-3.044,2.2c-1.831,1.906-2.992,4.377-4.243,6.676a18.179,18.179,0,0,1-5.687,6.877,9.933,9.933,0,0,1-3.76,1.5.078.078,0,0,0-.034-.008A13.521,13.521,0,0,1,75.444,580a34.089,34.089,0,0,1-4.477-2.111,1.488,1.488,0,0,0-.448-.113,18.915,18.915,0,0,0,4.719-1.026,25.761,25.761,0,0,0,6.107-3.19,11,11,0,0,0,3.269-3.814,18.568,18.568,0,0,0,1.787-8.57,31.563,31.563,0,0,1,.706-7.891,9.367,9.367,0,0,1,1.4-2.921,9.054,9.054,0,0,1,1.076-1.21,7.108,7.108,0,0,1,.6-.512c-.069.051.384-.278.282-.208,0,0,.527-.318.241-.154.128-.076,1.523-.948.627-.677a14.221,14.221,0,0,0-2.986,1.378,13.442,13.442,0,0,0-3.862,3.074,9.732,9.732,0,0,0-1.689,3.36c-.752,2.539-.651,5.266-.707,7.891a18.27,18.27,0,0,1-1.887,8.746,9.948,9.948,0,0,1-2.652,3.074c-.012,0-.015.006-.03.008a13.866,13.866,0,0,1-2.086.417,33.5,33.5,0,0,1-4.939.21,1.337,1.337,0,0,0-.453.11,19.1,19.1,0,0,0,3.722-3.1A26.05,26.05,0,0,0,77.72,567.1a11.114,11.114,0,0,0,1.15-4.9,18.59,18.59,0,0,0-2.349-8.435,31.288,31.288,0,0,1-2.993-7.324,9.269,9.269,0,0,1-.1-3.242,8.886,8.886,0,0,1,.4-1.573,7.876,7.876,0,0,1,.3-.733c-.033.074.212-.422.157-.32,0,0,.319-.524.143-.248.078-.122.916-1.543.241-.888a14.662,14.662,0,0,0-2.011,2.608,13.455,13.455,0,0,0-2.018,4.522,9.761,9.761,0,0,0,.043,3.763c.5,2.605,1.84,4.972,3,7.326a18.284,18.284,0,0,1,2.334,8.635,9.853,9.853,0,0,1-1.008,4.023,14.39,14.39,0,0,1-1.613,1.3,32.885,32.885,0,0,1-4.289,2.476,1.32,1.32,0,0,0-.342.3,19.131,19.131,0,0,0,1.873-4.47,26.125,26.125,0,0,0,.9-6.867,11.133,11.133,0,0,0-1.227-4.884,18.464,18.464,0,0,0-5.954-6.386,31.179,31.179,0,0,1-6.017-5.107,9.414,9.414,0,0,1-1.575-2.831,9.081,9.081,0,0,1-.369-1.582c-.037-.263-.058-.527-.069-.79,0,.081-.006-.48-.008-.353,0,0,.044-.618.014-.289.014-.142.1-1.8-.19-.9a14.385,14.385,0,0,0-.591,3.247,13.548,13.548,0,0,0,.286,4.949,9.637,9.637,0,0,0,1.767,3.32c1.634,2.078,3.914,3.56,6.016,5.111a18.1,18.1,0,0,1,6.037,6.572,9.948,9.948,0,0,1,.981,3.957l-.007.025a15.3,15.3,0,0,1-.856,1.963,33.987,33.987,0,0,1-2.668,4.18,1.46,1.46,0,0,0-.172.437,19.187,19.187,0,0,0-.386-4.841,26.033,26.033,0,0,0-2.349-6.508,10.969,10.969,0,0,0-3.327-3.765,18.292,18.292,0,0,0-8.215-2.9,30.792,30.792,0,0,1-7.683-1.74,8.76,8.76,0,0,1-3.747-3.008c-.154-.217-.293-.442-.426-.673.044.074-.221-.414-.169-.312,0,0-.242-.56-.117-.256-.058-.139-.733-1.642-.586-.712a14.394,14.394,0,0,0,.97,3.154,13.4,13.4,0,0,0,2.52,4.254,9.72,9.72,0,0,0,3.092,2.13c2.4,1.082,5.108,1.337,7.683,1.736a18,18,0,0,1,8.373,3.027,9.992,9.992,0,0,1,2.682,3.049l.006.033a14.734,14.734,0,0,1,.14,2.135,34.4,34.4,0,0,1-.446,4.954,1.473,1.473,0,0,0,.051.461,19.284,19.284,0,0,0-2.568-4.115,25.769,25.769,0,0,0-5.071-4.683,10.952,10.952,0,0,0-4.679-1.792,18.305,18.305,0,0,0-8.618,1.237,30.872,30.872,0,0,1-7.612,2.026,9.109,9.109,0,0,1-3.206-.329,8.657,8.657,0,0,1-1.5-.6,7.649,7.649,0,0,1-.686-.4c.072.049-.388-.265-.292-.2,0,0-.475-.385-.223-.172-.113-.1-1.4-1.118-.846-.362a14.173,14.173,0,0,0,2.307,2.349,13.362,13.362,0,0,0,4.188,2.6,9.749,9.749,0,0,0,3.72.454c2.631-.158,5.144-1.19,7.613-2.029a18.015,18.015,0,0,1,8.815-1.2,9.819,9.819,0,0,1,3.788,1.47l.012.014a14.515,14.515,0,0,1,1.1,1.831,34.145,34.145,0,0,1,1.879,4.6,1.321,1.321,0,0,0,.256.385,19.044,19.044,0,0,0-4.166-2.458,25.885,25.885,0,0,0-6.645-1.8,10.981,10.981,0,0,0-4.976.584,18.474,18.474,0,0,0-7.076,5.1,31.18,31.18,0,0,1-5.825,5.335,9.171,9.171,0,0,1-2.994,1.193,8.65,8.65,0,0,1-1.609.165c-.263,0-.525-.011-.788-.034.083,0-.469-.056-.352-.039,0,0-.6-.122-.274-.051-.146-.03-1.759-.338-.919.07a13.887,13.887,0,0,0,3.125,1.015,13.327,13.327,0,0,0,4.91.366,9.766,9.766,0,0,0,3.5-1.324c2.264-1.36,4.022-3.44,5.826-5.334a18.09,18.09,0,0,1,7.27-5.159,9.879,9.879,0,0,1,4.018-.461l.029.017a13.584,13.584,0,0,1,1.822,1.109,34.035,34.035,0,0,1,3.778,3.213,1.473,1.473,0,0,0,.4.221,18.93,18.93,0,0,0-4.824-.248,25.651,25.651,0,0,0-6.722,1.488,11.032,11.032,0,0,0-4.145,2.828,18.514,18.514,0,0,0-3.941,7.808,31.318,31.318,0,0,1-2.718,7.435,9.221,9.221,0,0,1-2.107,2.447,8.507,8.507,0,0,1-1.353.891,7.614,7.614,0,0,1-.717.34c.078-.039-.44.168-.33.129,0,0-.586.166-.267.085-.143.036-1.718.516-.781.487a14.2,14.2,0,0,0,3.236-.553,13.3,13.3,0,0,0,4.524-1.953,9.716,9.716,0,0,0,2.5-2.8c1.382-2.257,1.989-4.917,2.718-7.433a18.159,18.159,0,0,1,4.085-7.953,9.812,9.812,0,0,1,3.368-2.279h.018a13.938,13.938,0,0,1,2.125.143,33.985,33.985,0,0,1,4.825,1.092,1.35,1.35,0,0,0,.462.011,18.941,18.941,0,0,0-4.392,2.02,25.971,25.971,0,0,0-5.286,4.44,11.049,11.049,0,0,0-2.377,4.434,18.6,18.6,0,0,0,.088,8.754,31.378,31.378,0,0,1,1,7.859,9.309,9.309,0,0,1-.744,3.15,9.067,9.067,0,0,1-.791,1.418,7.355,7.355,0,0,1-.484.63c.056-.059-.314.358-.23.27,0-.006-.446.422-.2.2-.109.1-1.286,1.254-.469.8a14.478,14.478,0,0,0,2.622-1.993,13.4,13.4,0,0,0,3.115-3.835,9.886,9.886,0,0,0,.933-3.648c.19-2.646-.494-5.29-1-7.862a18.264,18.264,0,0,1-.025-8.948,10.045,10.045,0,0,1,1.934-3.577l.023-.011a13.593,13.593,0,0,1,1.95-.865,33.5,33.5,0,0,1,4.782-1.265,1.41,1.41,0,0,0,.411-.2,19.025,19.025,0,0,0-2.968,3.828,26.078,26.078,0,0,0-2.644,6.389,11.128,11.128,0,0,0-.078,5.042,18.518,18.518,0,0,0,4.1,7.724,31.349,31.349,0,0,1,4.492,6.5,9.25,9.25,0,0,1,.784,3.148,8.84,8.84,0,0,1-.05,1.62c-.033.27-.078.524-.136.785.015-.084-.118.459-.085.343,0,0-.2.586-.088.274-.048.14-.563,1.7-.047.923a14.317,14.317,0,0,0,1.407-2.982,13.467,13.467,0,0,0,1-4.848,9.727,9.727,0,0,0-.846-3.672c-1.041-2.436-2.862-4.462-4.491-6.507a18.224,18.224,0,0,1-4.132-7.929,9.991,9.991,0,0,1,.076-4.067l.016-.029a14.258,14.258,0,0,1,1.333-1.67,34.451,34.451,0,0,1,3.66-3.346,1.263,1.263,0,0,0,.27-.371,19.465,19.465,0,0,0-.872,4.775,26.171,26.171,0,0,0,.583,6.9,11.039,11.039,0,0,0,2.243,4.5,18.365,18.365,0,0,0,7.181,4.953,31.085,31.085,0,0,1,6.969,3.69,8.781,8.781,0,0,1,2.84,3.884,7.776,7.776,0,0,1,.235.759c-.021-.08.109.464.088.348,0,0,.085.608.045.275.018.15.282,1.78.378.842a14.414,14.414,0,0,0-.117-3.3,13.48,13.48,0,0,0-1.336-4.766,9.731,9.731,0,0,0-2.436-2.862c-2.041-1.675-4.586-2.627-6.969-3.686a18.087,18.087,0,0,1-7.3-5.115,9.871,9.871,0,0,1-1.8-3.65v-.023a14.4,14.4,0,0,1,.418-2.106,33.467,33.467,0,0,1,1.711-4.664,1.407,1.407,0,0,0,.07-.462,19.375,19.375,0,0,0,1.417,4.647,25.85,25.85,0,0,0,3.683,5.846,10.909,10.909,0,0,0,4.056,2.952,18.192,18.192,0,0,0,8.643,1.065,31.16,31.16,0,0,1,7.873.036,9.076,9.076,0,0,1,3.012,1.158,8.441,8.441,0,0,1,1.293.973,6.739,6.739,0,0,1,.557.562,3.431,3.431,0,0,0,.232.264s.36.5.171.227c.084.126,1.067,1.451.726.573a14.493,14.493,0,0,0-1.62-2.875,13.455,13.455,0,0,0-3.374-3.608,9.678,9.678,0,0,0-3.473-1.411c-2.582-.539-5.272-.2-7.877-.031a17.99,17.99,0,0,1-8.821-1.153,9.8,9.8,0,0,1-3.273-2.392l-.01-.032a14.244,14.244,0,0,1-.6-2.055,33.992,33.992,0,0,1-.623-4.935,3.259,3.259,0,0,0-.447-1.022c-.055-.106-.122-.206-.18-.311a20.258,20.258,0,0,0,4.18,4.09,25.756,25.756,0,0,0,6.105,3.194,10.859,10.859,0,0,0,4.982.506,18.375,18.375,0,0,0,8-3.444,30.632,30.632,0,0,1,6.828-3.947,9.034,9.034,0,0,1,3.183-.523,8.884,8.884,0,0,1,1.6.19c.259.055.512.125.763.205-.081-.023.443.157.331.115,0-.005.558.25.261.107C104.515,580.928,106.024,581.582,105.29,581Z" transform="translate(0 0)" fill="#fff"/>
    <g id="Group_2" data-name="Group 2" transform="translate(119.013 586.863)">
      <g id="Group_1" data-name="Group 1">
        <path id="Path_2" data-name="Path 2" d="M106.957,575.125l-1.078,1.586a6.589,6.589,0,0,0-2.817-.66,5.727,5.727,0,0,0-4.324,1.782,6.319,6.319,0,0,0-1.706,4.555,5.8,5.8,0,0,0,1.254,3.84,4,4,0,0,0,3.213,1.508,3.515,3.515,0,0,0,1.452-.286l.946-4.952h2.663l-1.188,6.47a10.451,10.451,0,0,1-4.225.836,6.83,6.83,0,0,1-7.108-7.218,8.243,8.243,0,0,1,3.037-6.58,8.7,8.7,0,0,1,5.81-2.135A6.844,6.844,0,0,1,106.957,575.125Z" transform="translate(-94.039 -573.872)" fill="#fff"/>
        <path id="Path_3" data-name="Path 3" d="M116.166,577.981q0,2.993-3.323,4.577l2.443,6.514-2.861.638-2.091-6.58h-1.717l-1.166,6.338h-2.773l2.861-15.4h3.433a14.158,14.158,0,0,1,1.935.088,3.921,3.921,0,0,1,1.784.682A3.693,3.693,0,0,1,116.166,577.981Zm-2.729.228a2.19,2.19,0,0,0-.858-1.965,3.371,3.371,0,0,0-1.8-.376h-.816l-1.011,5.544h.66a4.244,4.244,0,0,0,2.685-.706A3.012,3.012,0,0,0,113.438,578.209Z" transform="translate(-90.045 -573.8)" fill="#fff"/>
        <path id="Path_4" data-name="Path 4" d="M128.369,580.386a9.826,9.826,0,0,1-2.509,6.844,7.267,7.267,0,0,1-5.568,2.575,5.653,5.653,0,0,1-4.621-2,7.141,7.141,0,0,1-1.584-4.711,9.774,9.774,0,0,1,.879-3.971,9.483,9.483,0,0,1,2.334-3.29,7.476,7.476,0,0,1,5.172-1.959,5.491,5.491,0,0,1,4.258,1.8A6.735,6.735,0,0,1,128.369,580.386Zm-2.949-.022a5.117,5.117,0,0,0-.869-3.191,2.951,2.951,0,0,0-2.477-1.122,4.331,4.331,0,0,0-3.6,1.937,7.845,7.845,0,0,0-1.441,4.818,5.878,5.878,0,0,0,.935,3.555,3.077,3.077,0,0,0,2.63,1.265,4.049,4.049,0,0,0,3.587-2.245A9.636,9.636,0,0,0,125.42,580.364Z" transform="translate(-86.513 -573.872)" fill="#fff"/>
        <path id="Path_5" data-name="Path 5" d="M139.23,574.064l-1.606,8.561a18.123,18.123,0,0,1-.814,3.18,6.406,6.406,0,0,1-1.21,1.926,6.09,6.09,0,0,1-4.753,2,5.219,5.219,0,0,1-3.5-1.089,3.713,3.713,0,0,1-1.276-2.982,22.778,22.778,0,0,1,.462-3.609l1.474-7.988h2.773l-1.518,8.208a18.385,18.385,0,0,0-.374,2.883,2.39,2.39,0,0,0,.638,1.75,2.3,2.3,0,0,0,1.716.649,3.162,3.162,0,0,0,3.037-1.959,12.148,12.148,0,0,0,.924-3.147l1.54-8.384Z" transform="translate(-82.014 -573.8)" fill="#fff"/>
        <path id="Path_6" data-name="Path 6" d="M147.923,578.2a4.6,4.6,0,0,1-1.739,3.763,6.941,6.941,0,0,1-4.533,1.563,4.115,4.115,0,0,1-.462-.022l.33-1.783a3.506,3.506,0,0,0,2.564-.882,3.19,3.19,0,0,0,.957-2.441,2.241,2.241,0,0,0-1.012-2.113,3.763,3.763,0,0,0-1.783-.308h-.638l-2.509,13.49h-2.773l2.861-15.4h3.5a6.075,6.075,0,0,1,3.807.968A3.832,3.832,0,0,1,147.923,578.2Z" transform="translate(-78.164 -573.8)" fill="#fff"/>
      </g>
    </g>
    <g id="Group_3" data-name="Group 3" transform="translate(117.869 558.881)">
      <path id="Path_7" data-name="Path 7" d="M115.284,572.653H109.65l1.707-9.621q.188-1.063.75-3.792c-.5,1.124-1.133,2.392-1.891,3.792l-5.162,9.621h-2.523l-1.838-9.621c-.194-1.038-.373-2.308-.542-3.821-.153,1.33-.336,2.6-.552,3.821l-1.706,9.621H93.207l3.381-19.081h7.059l2.093,11.692,6.1-11.692h6.829Z" transform="translate(-93.207 -553.51)" fill="#fff"/>
      <path id="Path_8" data-name="Path 8" d="M130.55,572.653h-6.321l-.748-4.561h-6.148l-2.738,4.561h-4.645l11.459-19.081h5.016Zm-7.477-7.548-.919-6-3.3,6Z" transform="translate(-86.922 -553.51)" fill="#fff"/>
      <path id="Path_9" data-name="Path 9" d="M143.087,572.653h-3.766l-7.065-10.8-1.913,10.8h-4.686l3.382-19.081h4.132l6.731,10.6,1.882-10.6h4.685Z" transform="translate(-81.025 -553.51)" fill="#fff"/>
      <path id="Path_10" data-name="Path 10" d="M159.636,572.653h-6.321l-.75-4.561h-6.149l-2.736,4.561h-4.649l11.46-19.081h5.018Zm-7.478-7.548-.917-6-3.3,6Z" transform="translate(-76.004 -553.51)" fill="#fff"/>
      <path id="Path_11" data-name="Path 11" d="M169.256,567.2a5.815,5.815,0,0,1-2.811,3.965,10.621,10.621,0,0,1-5.8,1.507,10.079,10.079,0,0,1-5.951-1.718l2.357-3.068a4.792,4.792,0,0,0,3.363,1.327,3.574,3.574,0,0,0,1.876-.5,1.9,1.9,0,0,0,.966-1.3,2.078,2.078,0,0,0-.436-1.561,21.283,21.283,0,0,0-1.839-1.956c-.6-.563-1.367-1.316-2.3-2.247a3.95,3.95,0,0,1-.9-3.282,5.09,5.09,0,0,1,2.553-3.517,10.016,10.016,0,0,1,5.312-1.323,10.374,10.374,0,0,1,5.033,1.241l-2.109,2.913a6.077,6.077,0,0,0-2.582-.7c-1.248,0-1.948.389-2.082,1.166a1.2,1.2,0,0,0,.223.9,10.682,10.682,0,0,0,1.425,1.481,28.113,28.113,0,0,1,2.507,2.641A4.76,4.76,0,0,1,169.256,567.2Z" transform="translate(-70.124 -553.527)" fill="#fff"/>
      <path id="Path_12" data-name="Path 12" d="M177.385,572.653H165.342l3.383-19.081h12.069l-.641,3.609H174l-.646,3.65h6.137l-.646,3.652H172.71l-.806,4.562h6.123Z" transform="translate(-66.127 -553.51)" fill="#fff"/>
      <path id="Path_13" data-name="Path 13" d="M186.831,572.653H174.788l3.381-19.081h12.071l-.64,3.609H183.45l-.649,3.65h6.137l-.646,3.652h-6.138l-.806,4.562h6.123Z" transform="translate(-62.581 -553.51)" fill="#fff"/>
      <path id="Path_14" data-name="Path 14" d="M201.455,572.624h-6.492l-1.924-7.437H191.5l-1.326,7.466H184.26l3.381-19.081h7.712a30.12,30.12,0,0,1,3.129.109,5.978,5.978,0,0,1,2.743.979,4.093,4.093,0,0,1,1.44,4.364q-.611,3.462-4.6,5.265Zm-4.447-13.237a1.867,1.867,0,0,0-.578-2.048,4.661,4.661,0,0,0-2.353-.411h-1.113l-.919,5.187H193.1a4.5,4.5,0,0,0,2.777-.7A3.124,3.124,0,0,0,197.009,559.387Z" transform="translate(-59.025 -553.51)" fill="#fff"/>
    </g>
  </g>
</svg>
