<svg id="BAGrsm.tif" xmlns="http://www.w3.org/2000/svg" width="22.082" height="22.028" viewBox="0 0 22.082 22.028">
  <g id="Group_6" data-name="Group 6">
    <path id="Path_17" data-name="Path 17" d="M118.781,901.966h-9.053c-.252-.038-.5-.1-.755-.111a5.8,5.8,0,0,1-5.334-4.151,21.032,21.032,0,0,1-.425-2.141v-9.274c.036-.232.09-.462.108-.695a5.819,5.819,0,0,1,5.59-5.57c3.558-.119,7.123-.106,10.682,0a5.647,5.647,0,0,1,5.391,4.549c.146.6.209,1.219.311,1.829v9.053c-.038.25-.1.5-.11.75a5.823,5.823,0,0,1-4.517,5.438C120.049,901.79,119.411,901.859,118.781,901.966Zm4.582-11.036-.075,0c0-.79.012-1.582,0-2.372-.015-.808-.052-1.616-.085-2.424a4,4,0,0,0-4.161-4.145q-4.8-.069-9.592,0a3.945,3.945,0,0,0-4.129,4.1q-.081,4.823,0,9.648a3.944,3.944,0,0,0,4.117,4.118q4.823.081,9.649,0a3.769,3.769,0,0,0,4.008-3.537C123.316,894.54,123.282,892.728,123.363,890.93Z" transform="translate(-103.214 -879.938)" fill="#fff"/>
    <path id="Path_18" data-name="Path 18" d="M114.366,896.692a5.683,5.683,0,1,1,5.658-5.7A5.681,5.681,0,0,1,114.366,896.692ZM118,891a3.652,3.652,0,1,0-3.61,3.669A3.628,3.628,0,0,0,118,891Z" transform="translate(-103.306 -880.029)" fill="#fff"/>
    <path id="Path_19" data-name="Path 19" d="M121.748,885.1a1.359,1.359,0,0,1-1.328,1.345,1.387,1.387,0,0,1-1.358-1.379,1.355,1.355,0,0,1,1.365-1.307A1.333,1.333,0,0,1,121.748,885.1Z" transform="translate(-103.482 -880.003)" fill="#fff"/>
  </g>
</svg>
