<svg xmlns="http://www.w3.org/2000/svg" width="65" height="52" viewBox="0 0 65 52">
  <g id="Group_994" data-name="Group 994" transform="translate(-1518 -46)">
    <rect id="Rectangle_170" data-name="Rectangle 170" width="65" height="52" rx="26" transform="translate(1518 46)" fill="#c7023c"/>
    <g id="Group_206" data-name="Group 206" transform="translate(1535.377 56.572)">
      <path id="Path_373" data-name="Path 373" d="M34.16,29.038a15.4,15.4,0,0,0,2.275-8.075h0a15.394,15.394,0,0,0-2.275-8.075l-.008-.014a15.468,15.468,0,0,0-26.369,0l-.008.014a15.472,15.472,0,0,0,0,16.15l.009.014a15.468,15.468,0,0,0,26.368,0ZM22.944,33.779a3.76,3.76,0,0,1-1,.694,2.268,2.268,0,0,1-1.946,0,4.738,4.738,0,0,1-1.755-1.544,13.826,13.826,0,0,1-2-4.335q2.36-.145,4.725-.148t4.725.148a17.447,17.447,0,0,1-.847,2.333,8.963,8.963,0,0,1-1.9,2.852ZM7.268,21.832h6.239a30.7,30.7,0,0,0,.564,5.184q-2.558.225-5.1.618A13.632,13.632,0,0,1,7.268,21.832Zm1.7-7.54q2.544.394,5.1.618a30.627,30.627,0,0,0-.565,5.184H7.268a13.632,13.632,0,0,1,1.7-5.8ZM18.99,8.147a3.752,3.752,0,0,1,1-.694,2.268,2.268,0,0,1,1.946,0A4.738,4.738,0,0,1,23.695,9a13.826,13.826,0,0,1,2,4.335q-2.36.145-4.725.148t-4.725-.148A17.427,17.427,0,0,1,17.089,11,8.963,8.963,0,0,1,18.99,8.147ZM34.666,20.094H28.428a30.7,30.7,0,0,0-.564-5.184q2.558-.225,5.1-.618A13.632,13.632,0,0,1,34.666,20.094ZM15.819,26.88a28.727,28.727,0,0,1-.574-5.049H26.689a28.732,28.732,0,0,1-.572,5.049q-2.572-.169-5.15-.172T15.819,26.88Zm10.3-11.835a28.767,28.767,0,0,1,.574,5.049H15.245a28.733,28.733,0,0,1,.572-5.049q2.572.169,5.15.172t5.148-.172Zm2.311,6.787h6.239a13.632,13.632,0,0,1-1.7,5.8q-2.544-.394-5.1-.618A30.626,30.626,0,0,0,28.427,21.832Zm3.5-9.14q-2.224.321-4.462.508a19.816,19.816,0,0,0-1.034-2.918A12.342,12.342,0,0,0,24.99,7.834,13.724,13.724,0,0,1,31.925,12.692ZM11.259,11.255a13.726,13.726,0,0,1,5.685-3.421c-.033.042-.066.083-.1.125A15.865,15.865,0,0,0,14.475,13.2q-2.238-.19-4.465-.509A13.8,13.8,0,0,1,11.259,11.255ZM10.01,29.234q2.224-.321,4.462-.508a19.816,19.816,0,0,0,1.034,2.918,12.325,12.325,0,0,0,1.439,2.449,13.724,13.724,0,0,1-6.935-4.859Zm20.666,1.438a13.726,13.726,0,0,1-5.685,3.421c.033-.042.066-.083.1-.125a15.865,15.865,0,0,0,2.371-5.242q2.238.19,4.465.509a13.8,13.8,0,0,1-1.249,1.438Z" transform="translate(-5.5 -5.493)" fill="#fff" stroke="#fff" stroke-width="0.5"/>
    </g>
  </g>
</svg>
