<svg xmlns="http://www.w3.org/2000/svg" xmlns:xlink="http://www.w3.org/1999/xlink" width="383.539" height="112.633" viewBox="0 0 383.539 112.633">
  <defs>
    <radialGradient id="radial-gradient" cx="0.5" cy="0.5" r="0.5" gradientTransform="translate(0)" gradientUnits="objectBoundingBox">
      <stop offset="0" stop-color="#edb4b0"/>
      <stop offset="0.139" stop-color="#e9a1a4"/>
      <stop offset="0.42" stop-color="#df7285"/>
      <stop offset="0.813" stop-color="#cf2654"/>
      <stop offset="1" stop-color="#c7003c"/>
    </radialGradient>
  </defs>
  <g id="Group_250" data-name="Group 250" transform="translate(-506 -308)">
    <g id="Group_249" data-name="Group 249" transform="translate(506 308)">
      <path id="Path_512" data-name="Path 512" d="M139.859,599.545a21.173,21.173,0,0,0-4.093-2.412,19.386,19.386,0,0,0-6.82-2.044,13.817,13.817,0,0,0-5.354.777c-3.61,1.208-6.731,3.594-9.862,5.7-3.636,2.448-7.413,4.552-11.851,5a14.157,14.157,0,0,1-5.825-.614c-.008-.008-.014-.008-.024-.02a20.317,20.317,0,0,1-2.223-2.134,49.741,49.741,0,0,1-4.341-5.71,2.006,2.006,0,0,0-.5-.445,27.417,27.417,0,0,0,6.733,1.86,37.351,37.351,0,0,0,9.942,0,15.894,15.894,0,0,0,6.725-2.7c3.6-2.454,5.907-6.014,7.965-9.785,1.824-3.336,3.507-6.838,6.133-9.634a13.526,13.526,0,0,1,3.729-2.8,13.729,13.729,0,0,1,2.183-.83,11.126,11.126,0,0,1,1.115-.248c-.121.02.674-.1.5-.079,0,0,.882-.056.4-.034.213-.014,2.581-.195,1.254-.449a20.769,20.769,0,0,0-4.736-.234,19.242,19.242,0,0,0-6.987,1.347,14.2,14.2,0,0,0-4.4,3.173c-2.644,2.754-4.321,6.322-6.129,9.644-2.1,3.86-4.49,7.474-8.215,9.934a14.35,14.35,0,0,1-5.432,2.166.113.113,0,0,0-.05-.012,19.547,19.547,0,0,1-2.952-.858,49.243,49.243,0,0,1-6.467-3.05,2.148,2.148,0,0,0-.648-.163,27.324,27.324,0,0,0,6.817-1.482,37.208,37.208,0,0,0,8.821-4.607,15.882,15.882,0,0,0,4.722-5.509c2.066-3.858,2.483-8.088,2.581-12.38.089-3.806-.026-7.7,1.019-11.4a13.532,13.532,0,0,1,2.026-4.22,13.067,13.067,0,0,1,1.554-1.748,10.263,10.263,0,0,1,.872-.739c-.1.073.554-.4.407-.3,0,0,.761-.459.348-.223.185-.109,2.2-1.369.906-.977a20.552,20.552,0,0,0-4.313,1.991,19.419,19.419,0,0,0-5.579,4.44,14.056,14.056,0,0,0-2.44,4.854c-1.087,3.667-.94,7.607-1.021,11.4-.091,4.4-.546,8.716-2.726,12.634a14.37,14.37,0,0,1-3.83,4.44c-.018,0-.022.008-.044.012a20.016,20.016,0,0,1-3.014.6,48.368,48.368,0,0,1-7.134.3,1.933,1.933,0,0,0-.654.159,27.6,27.6,0,0,0,5.376-4.476,37.63,37.63,0,0,0,5.708-8.191A16.055,16.055,0,0,0,101.7,572.4c.064-4.379-1.51-8.323-3.393-12.185-1.669-3.417-3.556-6.812-4.323-10.579a13.389,13.389,0,0,1-.139-4.683,12.829,12.829,0,0,1,.574-2.273,11.374,11.374,0,0,1,.433-1.059c-.048.107.306-.61.226-.463,0,0,.461-.757.207-.358.113-.177,1.323-2.229.348-1.283a21.172,21.172,0,0,0-2.9,3.767,19.435,19.435,0,0,0-2.915,6.532,14.1,14.1,0,0,0,.062,5.436c.719,3.763,2.658,7.182,4.331,10.581,1.931,3.952,3.513,7.989,3.371,12.473a14.233,14.233,0,0,1-1.456,5.811,20.79,20.79,0,0,1-2.33,1.879,47.511,47.511,0,0,1-6.195,3.576,1.9,1.9,0,0,0-.495.435,27.636,27.636,0,0,0,2.706-6.457,37.735,37.735,0,0,0,1.3-9.92,16.082,16.082,0,0,0-1.772-7.055c-1.951-3.906-5.158-6.675-8.6-9.224-3.05-2.259-6.278-4.391-8.692-7.377a13.6,13.6,0,0,1-2.275-4.089,13.116,13.116,0,0,1-.532-2.285c-.054-.38-.083-.761-.1-1.141.006.117-.008-.693-.012-.511,0,0,.064-.892.02-.417.02-.2.151-2.595-.274-1.305a20.779,20.779,0,0,0-.854,4.691,19.57,19.57,0,0,0,.413,7.148,13.922,13.922,0,0,0,2.553,4.8c2.36,3,5.654,5.142,8.69,7.383,3.528,2.6,6.787,5.452,8.72,9.493a14.369,14.369,0,0,1,1.417,5.716l-.01.036a22.094,22.094,0,0,1-1.236,2.835,49.1,49.1,0,0,1-3.854,6.038,2.108,2.108,0,0,0-.248.632A27.715,27.715,0,0,0,83.9,582a37.6,37.6,0,0,0-3.393-9.4A15.845,15.845,0,0,0,75.7,567.16c-3.53-2.563-7.643-3.534-11.867-4.192-3.739-.582-7.585-.983-11.1-2.513a12.652,12.652,0,0,1-5.412-4.345c-.223-.314-.423-.638-.616-.971.064.107-.32-.6-.244-.451,0,0-.35-.809-.169-.37-.083-.2-1.059-2.372-.846-1.029a20.8,20.8,0,0,0,1.4,4.556,19.354,19.354,0,0,0,3.64,6.145,14.035,14.035,0,0,0,4.466,3.077c3.473,1.564,7.379,1.931,11.1,2.507,4.327.664,8.521,1.691,12.1,4.373a14.433,14.433,0,0,1,3.874,4.4l.008.048a21.286,21.286,0,0,1,.2,3.083,49.689,49.689,0,0,1-.644,7.156,2.128,2.128,0,0,0,.074.666,27.856,27.856,0,0,0-3.709-5.944,37.221,37.221,0,0,0-7.325-6.765,15.817,15.817,0,0,0-6.759-2.589c-4.305-.636-8.4.415-12.449,1.786-3.59,1.218-7.18,2.654-10.995,2.927a13.159,13.159,0,0,1-4.631-.475,12.5,12.5,0,0,1-2.17-.872,11.052,11.052,0,0,1-.991-.574c.1.072-.56-.383-.421-.284,0,0-.685-.556-.322-.248-.163-.141-2.026-1.615-1.222-.522A20.468,20.468,0,0,0,34,579.136a19.3,19.3,0,0,0,6.05,3.763,14.084,14.084,0,0,0,5.374.656c3.8-.228,7.43-1.719,11-2.93,4.146-1.415,8.332-2.456,12.733-1.737a14.184,14.184,0,0,1,5.471,2.124l.018.02a20.97,20.97,0,0,1,1.593,2.644,49.318,49.318,0,0,1,2.714,6.65,1.908,1.908,0,0,0,.37.556,27.514,27.514,0,0,0-6.018-3.55,37.387,37.387,0,0,0-9.6-2.6,15.859,15.859,0,0,0-7.188.844c-4.109,1.438-7.262,4.273-10.222,7.363-2.628,2.75-5.154,5.69-8.414,7.707a13.247,13.247,0,0,1-4.325,1.723,12.5,12.5,0,0,1-2.324.238c-.379,0-.759-.016-1.138-.05.119.006-.677-.081-.509-.056,0,0-.862-.177-.4-.073-.211-.044-2.541-.489-1.327.1a20.059,20.059,0,0,0,4.514,1.466,19.245,19.245,0,0,0,7.093.528,14.107,14.107,0,0,0,5.062-1.913c3.27-1.965,5.809-4.969,8.416-7.7,3.028-3.179,6.264-6.05,10.5-7.452a14.265,14.265,0,0,1,5.8-.666l.042.024a19.629,19.629,0,0,1,2.632,1.6,49.17,49.17,0,0,1,5.458,4.641,2.127,2.127,0,0,0,.584.32A27.357,27.357,0,0,0,71,593.011a37.053,37.053,0,0,0-9.709,2.15,15.935,15.935,0,0,0-5.988,4.085c-2.992,3.177-4.482,7.154-5.692,11.279-1.067,3.656-1.959,7.44-3.926,10.74a13.319,13.319,0,0,1-3.044,3.535,12.312,12.312,0,0,1-1.955,1.287,10.981,10.981,0,0,1-1.035.491c.113-.056-.636.242-.477.187,0,0-.846.24-.385.123-.207.052-2.481.745-1.128.7a20.506,20.506,0,0,0,4.675-.8,19.211,19.211,0,0,0,6.534-2.821,14.032,14.032,0,0,0,3.618-4.051c2-3.26,2.873-7.1,3.926-10.736,1.226-4.234,2.783-8.283,5.9-11.487a14.169,14.169,0,0,1,4.866-3.292h.026a20.145,20.145,0,0,1,3.07.207,49.123,49.123,0,0,1,6.969,1.577,1.946,1.946,0,0,0,.668.016,27.354,27.354,0,0,0-6.344,2.919,37.519,37.519,0,0,0-7.635,6.413,15.96,15.96,0,0,0-3.433,6.405c-1.192,4.206-.693,8.43.127,12.646.731,3.741,1.673,7.508,1.442,11.352A13.447,13.447,0,0,1,61,640.488a13.1,13.1,0,0,1-1.142,2.048,10.652,10.652,0,0,1-.7.91c.081-.085-.453.516-.332.389.006-.008-.644.61-.29.288-.157.143-1.858,1.812-.677,1.15a20.9,20.9,0,0,0,3.787-2.879,19.356,19.356,0,0,0,4.5-5.539,14.28,14.28,0,0,0,1.347-5.269c.274-3.823-.713-7.641-1.444-11.356-.848-4.317-1.331-8.634-.036-12.926a14.508,14.508,0,0,1,2.793-5.167l.034-.016a19.606,19.606,0,0,1,2.817-1.25,48.393,48.393,0,0,1,6.908-1.828,2.033,2.033,0,0,0,.594-.294,27.488,27.488,0,0,0-4.287,5.529,37.67,37.67,0,0,0-3.819,9.228,16.075,16.075,0,0,0-.113,7.283c.872,4.283,3.252,7.8,5.917,11.158,2.362,2.978,4.929,5.881,6.489,9.391a13.363,13.363,0,0,1,1.132,4.548,12.772,12.772,0,0,1-.072,2.341c-.048.389-.113.757-.2,1.134.022-.121-.171.664-.123.495,0,0-.29.846-.127.4-.07.2-.813,2.46-.068,1.333a20.682,20.682,0,0,0,2.032-4.307,19.454,19.454,0,0,0,1.45-7,14.05,14.05,0,0,0-1.222-5.3c-1.5-3.518-4.134-6.445-6.487-9.4-2.738-3.435-5.14-7.041-5.968-11.454a14.433,14.433,0,0,1,.109-5.875l.024-.042a20.577,20.577,0,0,1,1.925-2.412,49.751,49.751,0,0,1,5.287-4.834,1.827,1.827,0,0,0,.389-.536,28.115,28.115,0,0,0-1.26,6.9,37.8,37.8,0,0,0,.842,9.965,15.947,15.947,0,0,0,3.24,6.5c2.744,3.4,6.467,5.412,10.373,7.154,3.463,1.548,7.073,2.936,10.067,5.33a12.683,12.683,0,0,1,4.1,5.611,11.23,11.23,0,0,1,.34,1.1c-.03-.115.157.67.127.5,0,0,.123.878.066.4.026.217.407,2.571.546,1.216a20.822,20.822,0,0,0-.169-4.766,19.472,19.472,0,0,0-1.929-6.884,14.058,14.058,0,0,0-3.519-4.134c-2.948-2.42-6.624-3.795-10.067-5.325-4-1.782-7.794-3.862-10.544-7.389a14.258,14.258,0,0,1-2.607-5.273l0-.034a20.806,20.806,0,0,1,.6-3.042,48.342,48.342,0,0,1,2.472-6.737,2.032,2.032,0,0,0,.1-.668,27.988,27.988,0,0,0,2.046,6.713A37.338,37.338,0,0,0,91.584,616a15.756,15.756,0,0,0,5.859,4.264c3.991,1.752,8.221,1.8,12.485,1.538,3.779-.232,7.619-.677,11.372.052a13.1,13.1,0,0,1,4.351,1.673,12.184,12.184,0,0,1,1.868,1.4,9.725,9.725,0,0,1,.8.813,4.975,4.975,0,0,0,.336.382s.521.723.246.328c.121.183,1.542,2.1,1.049.828a20.936,20.936,0,0,0-2.34-4.152,19.436,19.436,0,0,0-4.873-5.211,13.982,13.982,0,0,0-5.017-2.038c-3.729-.779-7.615-.288-11.378-.046-4.367.28-8.68.185-12.741-1.665a14.149,14.149,0,0,1-4.728-3.455l-.014-.046A20.57,20.57,0,0,1,88,607.7a49.1,49.1,0,0,1-.9-7.128,4.708,4.708,0,0,0-.646-1.476c-.079-.153-.177-.3-.26-.449a29.268,29.268,0,0,0,6.038,5.909,37.215,37.215,0,0,0,8.819,4.613,15.687,15.687,0,0,0,7.2.731c4.319-.51,8-2.595,11.561-4.975,3.151-2.12,6.248-4.448,9.862-5.7a13.051,13.051,0,0,1,4.6-.755,12.837,12.837,0,0,1,2.317.274c.374.079.739.181,1.1.3-.117-.034.64.227.479.167,0-.008.807.362.377.155C138.739,599.446,140.918,600.39,139.859,599.545Z" transform="translate(-27.515 -539.266)" fill="url(#radial-gradient)"/>
      <g id="Group_247" data-name="Group 247" transform="translate(127.754 71.759)">
        <g id="Group_246" data-name="Group 246">
          <path id="Path_513" data-name="Path 513" d="M97.923,575.864l-3.1,16.691H91.818l3.1-16.691Z" transform="translate(-91.818 -574.912)" fill="#1a1818"/>
          <path id="Path_514" data-name="Path 514" d="M107.652,580.553a12.728,12.728,0,0,1-.264,1.979l-1.456,7.8h-2.813l1.337-7.178a12.937,12.937,0,0,0,.238-1.619,1.149,1.149,0,0,0-1.311-1.289,3.371,3.371,0,0,0-2.577,1.528,9.122,9.122,0,0,0-1.691,4.027l-.858,4.532H95.467l2.191-11.92H100.5l-.526,2.764q2.241-3.049,4.959-3.05a2.863,2.863,0,0,1,1.991.654A2.282,2.282,0,0,1,107.652,580.553Z" transform="translate(-88.217 -572.685)" fill="#1a1818"/>
          <path id="Path_515" data-name="Path 515" d="M111.871,575.933l-.763,1.548a3.132,3.132,0,0,0-1.1-.238,1.562,1.562,0,0,0-1.323.622,5.252,5.252,0,0,0-.725,2.146l-.191,1.1h2.573l-.284,1.6h-2.575l-1.933,10.325h-2.813l1.933-10.325h-1.715l.282-1.6h1.719l.191-1.1a6.289,6.289,0,0,1,1.478-3.29,4.167,4.167,0,0,1,3.123-1.335A4.271,4.271,0,0,1,111.871,575.933Z" transform="translate(-81.043 -575.385)" fill="#1a1818"/>
          <path id="Path_516" data-name="Path 516" d="M118.105,583.509a7.156,7.156,0,0,1-1.907,5.028,6.024,6.024,0,0,1-4.6,2.074,4.833,4.833,0,0,1-3.683-1.536,5.508,5.508,0,0,1-1.442-3.922,6.907,6.907,0,0,1,1.991-4.973,6.413,6.413,0,0,1,4.78-2.06,4.5,4.5,0,0,1,3.493,1.514A5.551,5.551,0,0,1,118.105,583.509Zm-3.006-.36q0-3.338-2.191-3.336a2.892,2.892,0,0,0-2.408,1.657,7.237,7.237,0,0,0-1.027,3.9q0,3.552,2.267,3.552a2.546,2.546,0,0,0,2-1.1A7.276,7.276,0,0,0,115.1,583.149Z" transform="translate(-77.359 -572.685)" fill="#1a1818"/>
          <path id="Path_517" data-name="Path 517" d="M122.644,579.025l-1.385,2.146a3.232,3.232,0,0,0-1.144-.236,2.485,2.485,0,0,0-2.122,1.24,9.138,9.138,0,0,0-1.073,3.147l-.928,5.007h-2.813l2.193-11.92h2.837l-.431,2.263.908-1.168a2.88,2.88,0,0,1,2.12-1.381A2.629,2.629,0,0,1,122.644,579.025Z" transform="translate(-70.74 -572.685)" fill="#1a1818"/>
          <path id="Path_518" data-name="Path 518" d="M136.741,580.624a16.353,16.353,0,0,1-.334,2.408l-1.359,7.3h-2.791l1.244-6.89a15.05,15.05,0,0,0,.284-2c0-.795-.374-1.194-1.119-1.194a3.143,3.143,0,0,0-2.424,1.49,8.716,8.716,0,0,0-1.57,3.731l-.9,4.866H124.94l1.24-6.749c.221-1.206.334-1.907.334-2.1,0-.826-.368-1.24-1.1-1.24a3.433,3.433,0,0,0-2.766,1.907,9.735,9.735,0,0,0-1.309,3.576l-.858,4.6H117.69l2.2-11.92h2.837l-.455,2.456q2.193-2.742,4.675-2.742a2.17,2.17,0,0,1,1.953.858,3.7,3.7,0,0,1,.477,2q2.217-2.861,4.77-2.861Q136.738,578.121,136.741,580.624Z" transform="translate(-66.289 -572.685)" fill="#1a1818"/>
          <path id="Path_519" data-name="Path 519" d="M140.59,578.407l-2.243,11.92h-2.813l.381-2a12.552,12.552,0,0,1-2.263,1.8,4,4,0,0,1-1.957.487,2.949,2.949,0,0,1-2.513-1.24,5.508,5.508,0,0,1-.92-3.359,8.466,8.466,0,0,1,1.931-5.531,5.706,5.706,0,0,1,4.506-2.36,3.129,3.129,0,0,1,2.813,1.643l.264-1.357Zm-3.578,3.427a1.825,1.825,0,0,0-.546-1.379,1.957,1.957,0,0,0-1.409-.525,3.175,3.175,0,0,0-2.682,1.8,8.065,8.065,0,0,0-1.109,4.313q0,2.617,1.695,2.617,1.663,0,2.954-2.473A9.254,9.254,0,0,0,137.012,581.834Z" transform="translate(-55.857 -572.685)" fill="#1a1818"/>
          <path id="Path_520" data-name="Path 520" d="M142.975,580.053l-.288,1.6h-2.859l-1.1,5.771a12.63,12.63,0,0,0-.262,1.812c0,.763.368,1.144,1.1,1.144a5.27,5.27,0,0,0,1.6-.334l.167,1.548a7.315,7.315,0,0,1-3.006.667q-2.766,0-2.766-2.311a22.722,22.722,0,0,1,.358-2.289l1.1-6.01h-1.456l.286-1.6h1.5l.525-2.887,2.907-.713-.668,3.6Z" transform="translate(-48.658 -574.331)" fill="#1a1818"/>
          <path id="Path_521" data-name="Path 521" d="M144.331,580.93l-2.215,11.92H139.3l2.215-11.92Zm.908-3.886a1.99,1.99,0,0,1-.55,1.416,1.785,1.785,0,0,1-1.359.584,1.352,1.352,0,0,1-1.037-.417,1.509,1.509,0,0,1-.393-1.083,1.945,1.945,0,0,1,.55-1.406,1.8,1.8,0,0,1,1.357-.574,1.376,1.376,0,0,1,1.025.417A1.461,1.461,0,0,1,145.239,577.044Z" transform="translate(-44.963 -575.208)" fill="#1a1818"/>
          <path id="Path_522" data-name="Path 522" d="M154.334,583.509a7.158,7.158,0,0,1-1.909,5.028,6.019,6.019,0,0,1-4.6,2.074,4.833,4.833,0,0,1-3.683-1.536,5.508,5.508,0,0,1-1.442-3.922,6.9,6.9,0,0,1,1.993-4.973,6.406,6.406,0,0,1,4.778-2.06,4.5,4.5,0,0,1,3.493,1.514A5.552,5.552,0,0,1,154.334,583.509Zm-3-.36q0-3.338-2.2-3.336a2.894,2.894,0,0,0-2.408,1.657,7.27,7.27,0,0,0-1.023,3.9q0,3.552,2.263,3.552a2.546,2.546,0,0,0,2-1.1A7.277,7.277,0,0,0,151.33,583.149Z" transform="translate(-41.613 -572.685)" fill="#1a1818"/>
          <path id="Path_523" data-name="Path 523" d="M161.6,580.553a12.728,12.728,0,0,1-.264,1.979l-1.456,7.8h-2.813l1.337-7.178a12.938,12.938,0,0,0,.238-1.619,1.149,1.149,0,0,0-1.311-1.289,3.374,3.374,0,0,0-2.577,1.528,9.123,9.123,0,0,0-1.691,4.027l-.858,4.532h-2.789l2.191-11.92h2.839l-.526,2.764q2.241-3.049,4.961-3.05a2.861,2.861,0,0,1,1.989.654A2.275,2.275,0,0,1,161.6,580.553Z" transform="translate(-34.982 -572.685)" fill="#1a1818"/>
          <path id="Path_524" data-name="Path 524" d="M172.493,575.864l-.356,2.05h-4.651l-2.718,14.64h-3l2.692-14.64h-4.573l.38-2.05Z" transform="translate(-24.656 -574.912)" fill="#1a1818"/>
          <path id="Path_525" data-name="Path 525" d="M176.418,580.958a3.5,3.5,0,0,1-1.945,3.063,9.825,9.825,0,0,1-5.138,1.18h-.809v.5q0,2.956,2.5,2.956a6.98,6.98,0,0,0,3.147-.977l.739,1.454a10.473,10.473,0,0,1-4.983,1.476,4.2,4.2,0,0,1-3.147-1.1,4.749,4.749,0,0,1-1.266-3.481,7.794,7.794,0,0,1,2.267-5.531,7.037,7.037,0,0,1,5.245-2.382,3.7,3.7,0,0,1,2.468.775A2.567,2.567,0,0,1,176.418,580.958Zm-2.575.191a1.328,1.328,0,0,0-.36-.968,1.264,1.264,0,0,0-.952-.367,3.325,3.325,0,0,0-2.384,1.19,6.039,6.039,0,0,0-1.359,2.6,6.481,6.481,0,0,0,1.621-.1,4.81,4.81,0,0,0,2.456-.765A1.913,1.913,0,0,0,173.843,581.149Z" transform="translate(-19.092 -572.685)" fill="#1a1818"/>
          <path id="Path_526" data-name="Path 526" d="M181.87,579.051l-1.051,1.548a3.725,3.725,0,0,0-1.979-.642,3.765,3.765,0,0,0-3.016,1.548,5.739,5.739,0,0,0-1.25,3.719,4.1,4.1,0,0,0,.666,2.491,2.164,2.164,0,0,0,1.838.894,5.609,5.609,0,0,0,2.527-.785l.739,1.573a9.115,9.115,0,0,1-4.291,1.214,4.232,4.232,0,0,1-3.29-1.357,5.162,5.162,0,0,1-1.242-3.626,7.378,7.378,0,0,1,2.146-5.267,6.757,6.757,0,0,1,5.032-2.241A5.467,5.467,0,0,1,181.87,579.051Z" transform="translate(-13.172 -572.685)" fill="#1a1818"/>
          <path id="Path_527" data-name="Path 527" d="M189.046,583.194a12.728,12.728,0,0,1-.264,1.979l-1.454,7.8h-2.813l1.337-7.178a13.257,13.257,0,0,0,.238-1.6,1.161,1.161,0,0,0-1.311-1.313,3.372,3.372,0,0,0-2.577,1.528,9.123,9.123,0,0,0-1.693,4.027l-.856,4.532h-2.791l3.244-17.525h2.813l-1.552,8.368q2.268-3.072,4.935-3.075a2.886,2.886,0,0,1,2,.667A2.3,2.3,0,0,1,189.046,583.194Z" transform="translate(-7.903 -575.327)" fill="#1a1818"/>
          <path id="Path_528" data-name="Path 528" d="M196.088,580.553a12.409,12.409,0,0,1-.262,1.979l-1.452,7.8H191.56l1.335-7.178a12.391,12.391,0,0,0,.236-1.619,1.148,1.148,0,0,0-1.309-1.289,3.365,3.365,0,0,0-2.575,1.528,9.055,9.055,0,0,0-1.693,4.027l-.86,4.532h-2.789l2.2-11.92h2.835l-.522,2.764q2.241-3.049,4.959-3.05a2.863,2.863,0,0,1,1.991.654A2.278,2.278,0,0,1,196.088,580.553Z" transform="translate(-0.952 -572.685)" fill="#1a1818"/>
          <path id="Path_529" data-name="Path 529" d="M202.669,583.509a7.165,7.165,0,0,1-1.907,5.028,6.029,6.029,0,0,1-4.6,2.074,4.826,4.826,0,0,1-3.681-1.536,5.5,5.5,0,0,1-1.444-3.922,6.907,6.907,0,0,1,1.991-4.973,6.416,6.416,0,0,1,4.78-2.06,4.5,4.5,0,0,1,3.493,1.514A5.552,5.552,0,0,1,202.669,583.509Zm-3.006-.36q0-3.338-2.193-3.336a2.892,2.892,0,0,0-2.408,1.657,7.253,7.253,0,0,0-1.025,3.9q0,3.552,2.265,3.552a2.546,2.546,0,0,0,2-1.1A7.277,7.277,0,0,0,199.663,583.149Z" transform="translate(6.081 -572.685)" fill="#1a1818"/>
          <path id="Path_530" data-name="Path 530" d="M203.786,575.457l-3.244,17.5h-2.813l3.268-17.5Z" transform="translate(12.687 -575.314)" fill="#1a1818"/>
          <path id="Path_531" data-name="Path 531" d="M212.759,583.509a7.156,7.156,0,0,1-1.907,5.028,6.022,6.022,0,0,1-4.6,2.074,4.833,4.833,0,0,1-3.683-1.536,5.508,5.508,0,0,1-1.442-3.922,6.907,6.907,0,0,1,1.991-4.973,6.416,6.416,0,0,1,4.78-2.06,4.5,4.5,0,0,1,3.493,1.514A5.551,5.551,0,0,1,212.759,583.509Zm-3-.36q0-3.338-2.193-3.336a2.892,2.892,0,0,0-2.408,1.657,7.235,7.235,0,0,0-1.025,3.9q0,3.552,2.265,3.552a2.546,2.546,0,0,0,2-1.1A7.277,7.277,0,0,0,209.755,583.149Z" transform="translate(16.039 -572.685)" fill="#1a1818"/>
          <path id="Path_532" data-name="Path 532" d="M220.882,578.407,219,588.563a11.907,11.907,0,0,1-2.146,5.46,6.632,6.632,0,0,1-5.293,2.265,8.723,8.723,0,0,1-4.315-1.146l.93-1.929a5.671,5.671,0,0,0,3.336,1,3.816,3.816,0,0,0,3.389-1.669,7.991,7.991,0,0,0,1.093-2.956l.24-1.264a11.96,11.96,0,0,1-2.241,1.8,4.037,4.037,0,0,1-1.981.487,3,3,0,0,1-2.525-1.226,5.42,5.42,0,0,1-.932-3.352,8.479,8.479,0,0,1,1.945-5.543,5.726,5.726,0,0,1,4.516-2.37,3.106,3.106,0,0,1,2.789,1.643l.264-1.357Zm-3.578,3.427a1.839,1.839,0,0,0-.534-1.379,1.91,1.91,0,0,0-1.395-.525,3.188,3.188,0,0,0-2.706,1.8,8.047,8.047,0,0,0-1.109,4.313q0,2.617,1.693,2.617,1.666,0,2.956-2.473A9.346,9.346,0,0,0,217.3,581.834Z" transform="translate(22.078 -572.685)" fill="#1a1818"/>
          <path id="Path_533" data-name="Path 533" d="M227.147,578.777l-11.227,17.5-2.028-1.1,4.055-6.153-1.885-10.464,2.958-.429q.307,2.193.856,6.649c.034.32.081.993.143,2.029q2.864-5.245,4.913-8.678Z" transform="translate(28.637 -572.673)" fill="#1a1818"/>
        </g>
      </g>
      <g id="Group_248" data-name="Group 248" transform="translate(130.514 28.332)">
        <path id="Path_534" data-name="Path 534" d="M125.1,581.134h-8.138l2.466-13.9q.271-1.535,1.083-5.477c-.725,1.623-1.637,3.455-2.732,5.477l-7.456,13.9h-3.644l-2.654-13.9c-.28-1.5-.538-3.334-.783-5.519-.221,1.921-.485,3.757-.8,5.519l-2.464,13.9H93.207l4.883-27.562h10.2l3.024,16.889,8.805-16.889h9.864Z" transform="translate(-93.207 -553.483)" fill="#1a1818"/>
        <path id="Path_535" data-name="Path 535" d="M139.706,581.134h-9.131l-1.081-6.588h-8.881l-3.956,6.588h-6.709L126.5,553.572h7.246Zm-10.8-10.9-1.327-8.668-4.768,8.668Z" transform="translate(-76.687 -553.483)" fill="#1a1818"/>
        <path id="Path_536" data-name="Path 536" d="M150.834,581.134h-5.44l-10.206-15.6-2.764,15.6h-6.769l4.885-27.562h5.968l9.723,15.318,2.718-15.318h6.767Z" transform="translate(-61.188 -553.483)" fill="#1a1818"/>
        <path id="Path_537" data-name="Path 537" d="M168.794,581.134h-9.131l-1.083-6.588H149.7l-3.952,6.588h-6.715l16.554-27.562h7.248Zm-10.8-10.9-1.325-8.668-4.77,8.668Z" transform="translate(-47.991 -553.483)" fill="#1a1818"/>
        <path id="Path_538" data-name="Path 538" d="M175.729,573.273A8.4,8.4,0,0,1,171.668,579a15.343,15.343,0,0,1-8.376,2.177,14.56,14.56,0,0,1-8.6-2.481l3.405-4.432a6.922,6.922,0,0,0,4.858,1.917,5.164,5.164,0,0,0,2.71-.725,2.74,2.74,0,0,0,1.395-1.872,3,3,0,0,0-.63-2.255,30.794,30.794,0,0,0-2.656-2.825c-.868-.813-1.975-1.9-3.32-3.246a5.706,5.706,0,0,1-1.3-4.74,7.352,7.352,0,0,1,3.687-5.08,14.466,14.466,0,0,1,7.673-1.911,14.984,14.984,0,0,1,7.27,1.792l-3.046,4.208a8.778,8.778,0,0,0-3.729-1.007c-1.8,0-2.813.562-3.008,1.685a1.735,1.735,0,0,0,.322,1.3,15.419,15.419,0,0,0,2.058,2.14,40.6,40.6,0,0,1,3.622,3.815A6.875,6.875,0,0,1,175.729,573.273Z" transform="translate(-32.534 -553.527)" fill="#1a1818"/>
        <path id="Path_539" data-name="Path 539" d="M182.738,581.134h-17.4l4.887-27.562h17.434l-.926,5.213h-8.883l-.934,5.273h8.865l-.934,5.275h-8.867l-1.164,6.59h8.845Z" transform="translate(-22.029 -553.483)" fill="#1a1818"/>
        <path id="Path_540" data-name="Path 540" d="M192.184,581.134h-17.4l4.883-27.562h17.436l-.924,5.213H187.3l-.938,5.273h8.865l-.934,5.275h-8.867l-1.164,6.59h8.845Z" transform="translate(-12.708 -553.483)" fill="#1a1818"/>
        <path id="Path_541" data-name="Path 541" d="M209.1,581.092h-9.377l-2.779-10.742H194.72L192.8,581.134H184.26l4.883-27.562h11.14a43.509,43.509,0,0,1,4.52.157,8.636,8.636,0,0,1,3.962,1.414q2.831,2.092,2.08,6.3-.882,5-6.638,7.605Zm-6.423-19.12c.254-1.423-.024-2.406-.834-2.958a6.731,6.731,0,0,0-3.4-.594h-1.607l-1.327,7.492h1.526a6.5,6.5,0,0,0,4.011-1.007A4.513,4.513,0,0,0,202.675,561.972Z" transform="translate(-3.361 -553.483)" fill="#1a1818"/>
      </g>
    </g>
  </g>
</svg>
