<svg id="Group_244" data-name="Group 244" xmlns="http://www.w3.org/2000/svg" width="86.089" height="75.185" viewBox="0 0 86.089 75.185">
  <path id="Path_485" data-name="Path 485" d="M64.8,48.27v-.134l7.8-29.587A10.726,10.726,0,0,0,62.249,5.1H20.155A10.712,10.712,0,0,0,9.8,18.549l7.8,29.587v.134a7.651,7.651,0,0,0,6.455,5.514l.134-.538a16.037,16.037,0,0,1,15.735-13.18h2.555A15.783,15.783,0,0,1,58.08,53.38l.134.538A8.593,8.593,0,0,0,64.8,48.27Zm-7.4-16a44.907,44.907,0,0,0-32.411,0,5.372,5.372,0,0,1-7.128-3.228l-2.152-6.321a5.485,5.485,0,0,1,2.69-6.59q22.8-11.5,45.591,0a5.485,5.485,0,0,1,2.69,6.59c-.672,1.883-1.345,4.035-2.152,6.321A5.576,5.576,0,0,1,57.407,32.266Z" transform="translate(1.901 -5.1)" fill="#fff"/>
  <path id="Path_486" data-name="Path 486" d="M38.483,33h-2.69A13.283,13.283,0,0,0,22.748,43.893L21,53.845c0,8.876,6.859,16.542,15.6,16.811A16.222,16.222,0,0,0,53.277,54.518l-1.748-10.49A13.293,13.293,0,0,0,38.483,33ZM37.138,65.277A10.759,10.759,0,1,1,47.9,54.518,10.791,10.791,0,0,1,37.138,65.277Z" transform="translate(5.897 4.522)" fill="#fff"/>
  <path id="Path_487" data-name="Path 487" d="M22.787,43.807a2.6,2.6,0,0,0-3.766,0L14.18,48.783a2.834,2.834,0,0,0-3.228.4l-.807.807-.807-.807a2.6,2.6,0,0,0-3.766,0L1.807,52.952a2.6,2.6,0,0,0,0,3.766L11.49,66.4a2.6,2.6,0,0,0,3.766,0l3.766-3.766a2.6,2.6,0,0,0,0-3.766l-.807-.807.807-.807a2.654,2.654,0,0,0,.4-3.093L24.4,49.186a2.6,2.6,0,0,0,0-3.766Z" transform="translate(-1 7.97)" fill="#fff"/>
  <path id="Path_488" data-name="Path 488" d="M70.366,52.952,66.6,49.186a2.6,2.6,0,0,0-3.766,0l-.807.807-.807-.807a2.654,2.654,0,0,0-3.093-.4l-4.841-4.976a2.6,2.6,0,0,0-3.766,0l-1.614,1.614a2.6,2.6,0,0,0,0,3.766l4.976,4.976a2.626,2.626,0,0,0,.4,3.093l.807.807-.807.807a2.6,2.6,0,0,0,0,3.766L57.052,66.4a2.6,2.6,0,0,0,3.766,0L70.5,56.718A2.727,2.727,0,0,0,70.366,52.952Z" transform="translate(14.898 7.97)" fill="#fff"/>
  <path id="Path_489" data-name="Path 489" d="M35.069,43a8.069,8.069,0,1,0,8.069,8.069A8.093,8.093,0,0,0,35.069,43Z" transform="translate(7.966 7.97)" fill="#fff"/>
</svg>
