<svg id="Group_233" data-name="Group 233" xmlns="http://www.w3.org/2000/svg" width="144.787" height="144.786" viewBox="0 0 144.787 144.786">
  <path id="Path_430" data-name="Path 430" d="M467.521,455.141l-42.741-29.385c-2.671-1.6-6.411,0-6.411,3.206v58.769c0,3.741,3.74,4.809,6.411,3.206l42.741-28.851A4.011,4.011,0,0,0,467.521,455.141Z" transform="translate(-364.406 -386.221)" fill="#fff"/>
  <path id="Path_431" data-name="Path 431" d="M438.925,387.945c40.07,0,72.661,32.59,72.661,72.126a72.737,72.737,0,0,1-72.661,72.661c-39.536,0-72.127-32.591-72.127-72.661C366.8,420.536,399.389,387.945,438.925,387.945Zm0,9.616a62.249,62.249,0,0,0-62.51,62.51c0,34.727,27.781,63.044,62.51,63.044a63.161,63.161,0,0,0,63.043-63.044C501.968,425.344,473.652,397.561,438.925,397.561Z" transform="translate(-366.798 -387.945)" fill="#fff"/>
</svg>
