<svg xmlns="http://www.w3.org/2000/svg" xmlns:xlink="http://www.w3.org/1999/xlink" width="84.766" height="91.325" viewBox="0 0 84.766 91.325">
  <defs>
    <clipPath id="clip-path">
      <path id="Path_583" data-name="Path 583" d="M546.309,547.944c.075-.168.125-.279.176-.389q2.661-5.519,5.322-11.042a.324.324,0,0,1,.423-.2q1.836.37,3.679.737a.3.3,0,0,1,.29.357c-.009,1.836,0,3.671-.013,5.507a.55.55,0,0,1-.18.38q-3.325,2.761-6.662,5.5c-.127.105-.223.181-.382.028a2.888,2.888,0,0,0-2.139-.85H546.8c-.139,0-.286-.015-.488-.028m-23.682-7.979c.331-.253.638-.462.913-.707a4.288,4.288,0,0,0,1.529-3.024c.077-1.671.049-3.346.067-5.019v-.43l23.572,4.811c-.058.14-.094.243-.144.342q-2.5,5.184-5.013,10.37c-.208.427-.43.848-.614,1.284a.559.559,0,0,1-.6.385c-2.6-.013-5.2-.006-7.792,0a4.9,4.9,0,0,0-.855.036,3.1,3.1,0,0,0-1.955,1.128c-.043.052-.082.107-.146.193-3-3.14-5.979-6.248-8.961-9.365m30.755-6.684c1.432-2.906,2.844-5.773,4.255-8.638h.094c.49,1.02.977,2.043,1.443,3.016a10.527,10.527,0,0,0-1.452.616A3.156,3.156,0,0,0,556.2,531.1c-.009.8,0,1.6,0,2.4v.365c-.945-.2-1.847-.382-2.814-.58m10.67-19.665c.262-.024.318.084.316.324-.015.9-.006,1.808-.006,2.713v11.336c0,.4,0,.4-.412.4-.286,0-.571,0-.857,0a.341.341,0,0,1-.359-.215c-1.048-2.27-2.109-4.536-3.151-6.806a.566.566,0,0,1,.007-.423c1.08-2.36,2.173-4.717,3.256-7.075a.365.365,0,0,1,.408-.258c.14.011.279.015.419.015s.253,0,.38-.015m-16.811,18.417q-3.763-.764-7.528-1.525-3.553-.719-7.1-1.445c-2.391-.485-4.775-.977-7.167-1.452-.254-.052-.309-.155-.309-.4.006-2.148.011-4.3,0-6.45a.412.412,0,0,1,.333-.464q7.71-2.729,15.4-5.473,4.939-1.753,9.876-3.516c.275-.1.369-.032.49.21q2.233,4.543,4.491,9.072a.689.689,0,0,1,0,.687q-2.713,5.516-5.4,11.035a1.893,1.893,0,0,1-.213.3c-1.009-.2-1.94-.393-2.87-.58m10.352-14.786c-1.164-2.354-2.326-4.708-3.514-7.111.707-.262,1.383-.511,2.116-.78,0,.391,0,.722,0,1.052a3.28,3.28,0,0,0,1.085,2.513,3.228,3.228,0,0,0,1.755.816c.058.009.114.017.167.03a.973.973,0,0,1,.144.067q-.838,1.714-1.667,3.415c-.03,0-.056,0-.086,0m-32.458-.6c0-1.675,0-3.351,0-5.024a5.011,5.011,0,0,0-1.263-3.535c-.142-.155-.069-.245.03-.359q1.4-1.614,2.8-3.232,3.7-4.259,7.389-8.516a.858.858,0,0,1,.726-.344q4.1.016,8.192,0a.6.6,0,0,1,.636.382q2.9,5.966,5.818,11.916c.054.109.1.221.17.378-8.179,2.915-16.313,5.812-24.5,8.726Zm27.389-9.644q-2.681-5.48-5.376-10.958c-.049-.1-.092-.2-.15-.333.189-.039.344-.067.5-.1a3.023,3.023,0,0,0,1.611-.967.251.251,0,0,1,.4-.043c2.159,1.559,4.326,3.11,6.482,4.674a.518.518,0,0,1,.191.369c.011,2.025.006,4.055.013,6.08a.313.313,0,0,1-.254.344c-1.009.359-2.021.72-3.026,1.1a.444.444,0,0,1-.163.036c-.1,0-.165-.062-.232-.2M534.4,476.149a2.238,2.238,0,0,0-2.135,1.306,4.608,4.608,0,0,0-.511,2.086c-.013,4.216-.006,8.432-.011,12.648,0,.256-.043.513-.041.767a4.568,4.568,0,0,0,.069.988.462.462,0,0,1-.112.477q-1.672,1.933-3.336,3.873-3.618,4.208-7.242,8.415a1.245,1.245,0,0,1-1,.455q-11.907-.01-23.813.006a7.98,7.98,0,0,0-2.049.288,4.237,4.237,0,0,0-3.288,4.293c.056,7.872.019,15.743.021,23.615a6.066,6.066,0,0,0,.049.967,3.63,3.63,0,0,0,1.905,2.6,6.068,6.068,0,0,0,3.031.782q11.163.016,22.329,0a1.164,1.164,0,0,1,.932.4q6.1,6.437,12.212,12.852a1.117,1.117,0,0,1,.339.857q-.019,5.138,0,10.277a4.342,4.342,0,0,0,.666,2.328,2.125,2.125,0,0,0,1.884,1.044q6.211.01,12.419,0a2.364,2.364,0,0,0,1.847-.818,3.814,3.814,0,0,0,1-2.547c.03-3.8.019-7.595.015-11.394a.7.7,0,0,1,.29-.6c1.143-.93,2.279-1.873,3.415-2.812,1.317-1.083,2.627-2.169,3.95-3.243a.466.466,0,0,1,.342-.069,7.267,7.267,0,0,0,1.16.236q6.778.026,13.561,0a4.859,4.859,0,0,0,1.312-.211,2.586,2.586,0,0,0,2.083-2.8V531.3c0-.163,0-.324-.009-.485a2.02,2.02,0,0,0-.782-1.583,3.657,3.657,0,0,0-2.32-.825c-1.065-.021-2.135-.019-3.2-.019-.473,0-.949,0-1.422,0-.4,0-.4,0-.4-.387V513.62h.376c1.3,0,2.59.009,3.883,0a7.12,7.12,0,0,0,1.188-.112,3.162,3.162,0,0,0,2.685-3.226c0-4.023-.009-8.05,0-12.075a3.932,3.932,0,0,0-.816-2.466,3.709,3.709,0,0,0-3.181-1.626c-2.788.032-5.574.026-8.357.021q-1.762,0-3.518,0a3.516,3.516,0,0,0-.739.047,3.968,3.968,0,0,0-2.1,1.3c-.153.165-.251.187-.447.058q-3.3-2.149-6.611-4.278a.665.665,0,0,1-.348-.644q.013-5.48,0-10.965a4.188,4.188,0,0,0-.528-1.989,2.585,2.585,0,0,0-2.4-1.5q-6.125,0-12.249,0" transform="translate(-490.936 -476.149)" fill="#edb3af"/>
    </clipPath>
  </defs>
  <g id="Group_299" data-name="Group 299" transform="translate(-490.936 -476.149)">
    <path id="Path_582" data-name="Path 582" d="M546.309,547.944c.075-.168.125-.279.176-.389q2.661-5.519,5.322-11.042a.324.324,0,0,1,.423-.2q1.836.37,3.679.737a.3.3,0,0,1,.29.357c-.009,1.836,0,3.671-.013,5.507a.55.55,0,0,1-.18.38q-3.325,2.761-6.662,5.5c-.127.105-.223.181-.382.028a2.888,2.888,0,0,0-2.139-.85H546.8c-.139,0-.286-.015-.488-.028m-23.682-7.979c.331-.253.638-.462.913-.707a4.288,4.288,0,0,0,1.529-3.024c.077-1.671.049-3.346.067-5.019v-.43l23.572,4.811c-.058.14-.094.243-.144.342q-2.5,5.184-5.013,10.37c-.208.427-.43.848-.614,1.284a.559.559,0,0,1-.6.385c-2.6-.013-5.2-.006-7.792,0a4.9,4.9,0,0,0-.855.036,3.1,3.1,0,0,0-1.955,1.128c-.043.052-.082.107-.146.193-3-3.14-5.979-6.248-8.961-9.365m30.755-6.684c1.432-2.906,2.844-5.773,4.255-8.638h.094c.49,1.02.977,2.043,1.443,3.016a10.527,10.527,0,0,0-1.452.616A3.156,3.156,0,0,0,556.2,531.1c-.009.8,0,1.6,0,2.4v.365c-.945-.2-1.847-.382-2.814-.58m10.67-19.665c.262-.024.318.084.316.324-.015.9-.006,1.808-.006,2.713v11.336c0,.4,0,.4-.412.4-.286,0-.571,0-.857,0a.341.341,0,0,1-.359-.215c-1.048-2.27-2.109-4.536-3.151-6.806a.566.566,0,0,1,.007-.423c1.08-2.36,2.173-4.717,3.256-7.075a.365.365,0,0,1,.408-.258c.14.011.279.015.419.015s.253,0,.38-.015m-16.811,18.417q-3.763-.764-7.528-1.525-3.553-.719-7.1-1.445c-2.391-.485-4.775-.977-7.167-1.452-.254-.052-.309-.155-.309-.4.006-2.148.011-4.3,0-6.45a.412.412,0,0,1,.333-.464q7.71-2.729,15.4-5.473,4.939-1.753,9.876-3.516c.275-.1.369-.032.49.21q2.233,4.543,4.491,9.072a.689.689,0,0,1,0,.687q-2.713,5.516-5.4,11.035a1.893,1.893,0,0,1-.213.3c-1.009-.2-1.94-.393-2.87-.58m10.352-14.786c-1.164-2.354-2.326-4.708-3.514-7.111.707-.262,1.383-.511,2.116-.78,0,.391,0,.722,0,1.052a3.28,3.28,0,0,0,1.085,2.513,3.228,3.228,0,0,0,1.755.816c.058.009.114.017.167.03a.973.973,0,0,1,.144.067q-.838,1.714-1.667,3.415c-.03,0-.056,0-.086,0m-32.458-.6c0-1.675,0-3.351,0-5.024a5.011,5.011,0,0,0-1.263-3.535c-.142-.155-.069-.245.03-.359q1.4-1.614,2.8-3.232,3.7-4.259,7.389-8.516a.858.858,0,0,1,.726-.344q4.1.016,8.192,0a.6.6,0,0,1,.636.382q2.9,5.966,5.818,11.916c.054.109.1.221.17.378-8.179,2.915-16.313,5.812-24.5,8.726Zm27.389-9.644q-2.681-5.48-5.376-10.958c-.049-.1-.092-.2-.15-.333.189-.039.344-.067.5-.1a3.023,3.023,0,0,0,1.611-.967.251.251,0,0,1,.4-.043c2.159,1.559,4.326,3.11,6.482,4.674a.518.518,0,0,1,.191.369c.011,2.025.006,4.055.013,6.08a.313.313,0,0,1-.254.344c-1.009.359-2.021.72-3.026,1.1a.444.444,0,0,1-.163.036c-.1,0-.165-.062-.232-.2M534.4,476.149a2.238,2.238,0,0,0-2.135,1.306,4.608,4.608,0,0,0-.511,2.086c-.013,4.216-.006,8.432-.011,12.648,0,.256-.043.513-.041.767a4.568,4.568,0,0,0,.069.988.462.462,0,0,1-.112.477q-1.672,1.933-3.336,3.873-3.618,4.208-7.242,8.415a1.245,1.245,0,0,1-1,.455q-11.907-.01-23.813.006a7.98,7.98,0,0,0-2.049.288,4.237,4.237,0,0,0-3.288,4.293c.056,7.872.019,15.743.021,23.615a6.066,6.066,0,0,0,.049.967,3.63,3.63,0,0,0,1.905,2.6,6.068,6.068,0,0,0,3.031.782q11.163.016,22.329,0a1.164,1.164,0,0,1,.932.4q6.1,6.437,12.212,12.852a1.117,1.117,0,0,1,.339.857q-.019,5.138,0,10.277a4.342,4.342,0,0,0,.666,2.328,2.125,2.125,0,0,0,1.884,1.044q6.211.01,12.419,0a2.364,2.364,0,0,0,1.847-.818,3.814,3.814,0,0,0,1-2.547c.03-3.8.019-7.595.015-11.394a.7.7,0,0,1,.29-.6c1.143-.93,2.279-1.873,3.415-2.812,1.317-1.083,2.627-2.169,3.95-3.243a.466.466,0,0,1,.342-.069,7.267,7.267,0,0,0,1.16.236q6.778.026,13.561,0a4.859,4.859,0,0,0,1.312-.211,2.586,2.586,0,0,0,2.083-2.8V531.3c0-.163,0-.324-.009-.485a2.02,2.02,0,0,0-.782-1.583,3.657,3.657,0,0,0-2.32-.825c-1.065-.021-2.135-.019-3.2-.019-.473,0-.949,0-1.422,0-.4,0-.4,0-.4-.387V513.62h.376c1.3,0,2.59.009,3.883,0a7.12,7.12,0,0,0,1.188-.112,3.162,3.162,0,0,0,2.685-3.226c0-4.023-.009-8.05,0-12.075a3.932,3.932,0,0,0-.816-2.466,3.709,3.709,0,0,0-3.181-1.626c-2.788.032-5.574.026-8.357.021q-1.762,0-3.518,0a3.516,3.516,0,0,0-.739.047,3.968,3.968,0,0,0-2.1,1.3c-.153.165-.251.187-.447.058q-3.3-2.149-6.611-4.278a.665.665,0,0,1-.348-.644q.013-5.48,0-10.965a4.188,4.188,0,0,0-.528-1.989,2.585,2.585,0,0,0-2.4-1.5q-6.125,0-12.249,0" transform="translate(0)" fill="#edb3af"/>
    <g id="Group_298" data-name="Group 298" transform="translate(490.936 476.149)" clip-path="url(#clip-path)">
      <rect id="Rectangle_200" data-name="Rectangle 200" width="84.789" height="91.327" transform="translate(-0.017)" fill="#edb3af"/>
    </g>
  </g>
</svg>
