<svg xmlns="http://www.w3.org/2000/svg" xmlns:xlink="http://www.w3.org/1999/xlink" width="85" height="82.701" viewBox="0 0 85 82.701">
  <defs>
    <clipPath id="clip-path">
      <path id="Path_645" data-name="Path 645" d="M395.432,304c-6.493,0-11.775,5.53-11.775,12.326v58.052c0,6.8,5.283,12.328,11.775,12.324h1.216c6.491,0,11.771-5.528,11.771-12.324V316.326c0-6.8-5.281-12.326-11.771-12.326Z" transform="translate(-383.657 -304)" fill="#c7003c"/>
    </clipPath>
    <clipPath id="clip-path-2">
      <path id="Path_647" data-name="Path 647" d="M410.406,362.314a2.67,2.67,0,1,1,2.671,2.669,2.668,2.668,0,0,1-2.671-2.669m13.516,0a2.67,2.67,0,1,1,2.671,2.669,2.67,2.67,0,0,1-2.671-2.669m13.518,0a2.67,2.67,0,1,1,2.669,2.669,2.668,2.668,0,0,1-2.669-2.669m-27.034-12a2.67,2.67,0,1,1,2.671,2.668,2.668,2.668,0,0,1-2.671-2.668m13.516,0a2.67,2.67,0,1,1,2.671,2.668,2.67,2.67,0,0,1-2.671-2.668m13.518,0a2.67,2.67,0,1,1,2.669,2.668,2.668,2.668,0,0,1-2.669-2.668m-27.034-12a2.67,2.67,0,1,1,2.671,2.669,2.668,2.668,0,0,1-2.671-2.669m13.516,0a2.67,2.67,0,1,1,2.671,2.669,2.67,2.67,0,0,1-2.671-2.669m13.518,0a2.67,2.67,0,1,1,2.669,2.669,2.668,2.668,0,0,1-2.669-2.669M405.483,324.9v-7.973a2.086,2.086,0,0,1,2.089-2.087H443.25a4.4,4.4,0,0,1,4.4,4.4v5.66a2.087,2.087,0,0,1-2.087,2.087h-37.99a2.088,2.088,0,0,1-2.089-2.087m-4.839-17.256a2.092,2.092,0,0,0-2.089,2.089v64.336a2.091,2.091,0,0,0,2.089,2.089H444.9a9.693,9.693,0,0,0,9.68-9.682V316.606a8.968,8.968,0,0,0-8.957-8.959Z" transform="translate(-398.555 -307.647)" fill="#c7003c"/>
    </clipPath>
  </defs>
  <g id="Group_376" data-name="Group 376" transform="translate(-383.657 -304)">
    <g id="Group_373" data-name="Group 373" transform="translate(383.657 304)">
      <path id="Path_644" data-name="Path 644" d="M395.432,304c-6.493,0-11.775,5.53-11.775,12.326v58.052c0,6.8,5.283,12.328,11.775,12.324h1.216c6.491,0,11.771-5.528,11.771-12.324V316.326c0-6.8-5.281-12.326-11.771-12.326Z" transform="translate(-383.657 -304)" fill="#c7003c"/>
      <g id="Group_372" data-name="Group 372" clip-path="url(#clip-path)">
        <rect id="Rectangle_240" data-name="Rectangle 240" width="24.762" height="82.705" transform="translate(0)" fill="#c7003c"/>
      </g>
    </g>
    <g id="Group_375" data-name="Group 375" transform="translate(412.634 311.094)">
      <path id="Path_646" data-name="Path 646" d="M410.406,362.314a2.67,2.67,0,1,1,2.671,2.669,2.668,2.668,0,0,1-2.671-2.669m13.516,0a2.67,2.67,0,1,1,2.671,2.669,2.67,2.67,0,0,1-2.671-2.669m13.518,0a2.67,2.67,0,1,1,2.669,2.669,2.668,2.668,0,0,1-2.669-2.669m-27.034-12a2.67,2.67,0,1,1,2.671,2.668,2.668,2.668,0,0,1-2.671-2.668m13.516,0a2.67,2.67,0,1,1,2.671,2.668,2.67,2.67,0,0,1-2.671-2.668m13.518,0a2.67,2.67,0,1,1,2.669,2.668,2.668,2.668,0,0,1-2.669-2.668m-27.034-12a2.67,2.67,0,1,1,2.671,2.669,2.668,2.668,0,0,1-2.671-2.669m13.516,0a2.67,2.67,0,1,1,2.671,2.669,2.67,2.67,0,0,1-2.671-2.669m13.518,0a2.67,2.67,0,1,1,2.669,2.669,2.668,2.668,0,0,1-2.669-2.669M405.483,324.9v-7.973a2.086,2.086,0,0,1,2.089-2.087H443.25a4.4,4.4,0,0,1,4.4,4.4v5.66a2.087,2.087,0,0,1-2.087,2.087h-37.99a2.088,2.088,0,0,1-2.089-2.087m-4.839-17.256a2.092,2.092,0,0,0-2.089,2.089v64.336a2.091,2.091,0,0,0,2.089,2.089H444.9a9.693,9.693,0,0,0,9.68-9.682V316.606a8.968,8.968,0,0,0-8.957-8.959Z" transform="translate(-398.555 -307.647)" fill="#c7003c"/>
      <g id="Group_374" data-name="Group 374" clip-path="url(#clip-path-2)">
        <rect id="Rectangle_241" data-name="Rectangle 241" width="56.023" height="68.514" transform="translate(0 0)" fill="#c7003c"/>
      </g>
    </g>
  </g>
</svg>
