<svg xmlns="http://www.w3.org/2000/svg" xmlns:xlink="http://www.w3.org/1999/xlink" width="84.639" height="65.926" viewBox="0 0 84.639 65.926">
  <defs>
    <clipPath id="clip-path">
      <path id="Path_559" data-name="Path 559" d="M82.954,521.8a4.788,4.788,0,1,1,4.786,4.788,4.785,4.785,0,0,1-4.786-4.788m-4.019-19.654v-1.371a1.372,1.372,0,0,1,1.371-1.374H95.178a1.372,1.372,0,0,1,1.371,1.374v1.371a1.371,1.371,0,0,1-1.371,1.369H80.306a1.371,1.371,0,0,1-1.371-1.369m0-6.855v-1.372a1.372,1.372,0,0,1,1.371-1.371H95.178a1.372,1.372,0,0,1,1.371,1.371v1.372a1.371,1.371,0,0,1-1.371,1.371H80.306a1.371,1.371,0,0,1-1.371-1.371m0-6.855v-1.371a1.369,1.369,0,0,1,1.371-1.367H95.178a1.369,1.369,0,0,1,1.371,1.367v1.371a1.371,1.371,0,0,1-1.371,1.372H80.306a1.371,1.371,0,0,1-1.371-1.372m0-6.852v-1.371a1.371,1.371,0,0,1,1.371-1.372H95.178a1.371,1.371,0,0,1,1.371,1.372v1.371a1.371,1.371,0,0,1-1.371,1.371H80.306a1.371,1.371,0,0,1-1.371-1.371M76.981,472.7a1.369,1.369,0,0,0-1.368,1.371v63.185a1.369,1.369,0,0,0,1.368,1.371H98.5a1.37,1.37,0,0,0,1.371-1.371V474.073A1.37,1.37,0,0,0,98.5,472.7Z" transform="translate(-75.613 -472.702)" fill="#edb3af"/>
    </clipPath>
    <clipPath id="clip-path-2">
      <path id="Path_561" data-name="Path 561" d="M102.155,502.57v-1.253a1.237,1.237,0,0,1,1.22-1.254q6.612.021,13.229.039a1.2,1.2,0,0,1,1.22,1.188v1.185a1.215,1.215,0,0,1-1.22,1.194q-6.614.074-13.229.144h-.012a1.224,1.224,0,0,1-1.208-1.242m14.449-4.85q-6.614-.077-13.229-.154a1.257,1.257,0,0,1-1.22-1.27v-1.254a1.2,1.2,0,0,1,1.22-1.223q6.614.165,13.229.335a1.239,1.239,0,0,1,1.219,1.217c0,.473,0,.71,0,1.183a1.183,1.183,0,0,1-1.2,1.166H116.6m0-5.945-13.229-.456a1.291,1.291,0,0,1-1.22-1.3v-1.254a1.168,1.168,0,0,1,1.22-1.194l13.229.634a1.275,1.275,0,0,1,1.22,1.243v1.183a1.155,1.155,0,0,1-1.18,1.143l-.04,0m0-5.946q-6.614-.377-13.229-.754a1.33,1.33,0,0,1-1.22-1.326v-1.256a1.139,1.139,0,0,1,1.22-1.167l13.229.935a1.308,1.308,0,0,1,1.22,1.27v1.183a1.12,1.12,0,0,1-1.147,1.116c-.023,0-.048,0-.073,0M99.936,475.52,92.475,477.4V536.01l7.72,1.09a.706.706,0,0,0,.223,0c6.38-.578,12.76-1.225,19.141-1.8a1.341,1.341,0,0,0,1.222-1.282c0-14.9,0-40.63,0-55.535a1.337,1.337,0,0,0-1.22-1.282q-9.57-.867-19.141-1.737a.543.543,0,0,0-.059,0,1.643,1.643,0,0,0-.423.062" transform="translate(-92.475 -475.458)" fill="#edb3af"/>
    </clipPath>
    <clipPath id="clip-path-3">
      <path id="Path_563" data-name="Path 563" d="M73.546,503.812q-6.614-.072-13.229-.144a1.215,1.215,0,0,1-1.22-1.194v-1.185a1.2,1.2,0,0,1,1.22-1.188l13.229-.039a1.236,1.236,0,0,1,1.219,1.254v1.253a1.222,1.222,0,0,1-1.206,1.242h-.012M59.1,496.552v-1.181a1.24,1.24,0,0,1,1.22-1.217q6.614-.17,13.229-.335a1.2,1.2,0,0,1,1.219,1.223V496.3a1.255,1.255,0,0,1-1.219,1.27q-6.614.079-13.229.154H60.3a1.182,1.182,0,0,1-1.2-1.168m0-5.918v-1.185a1.275,1.275,0,0,1,1.22-1.242q6.614-.319,13.229-.634a1.167,1.167,0,0,1,1.219,1.194v1.254a1.29,1.29,0,0,1-1.219,1.3l-13.229.456-.04,0a1.154,1.154,0,0,1-1.18-1.143m0-5.92v-1.183a1.308,1.308,0,0,1,1.22-1.27l13.229-.935a1.138,1.138,0,0,1,1.219,1.167v1.256a1.329,1.329,0,0,1-1.219,1.326q-6.614.374-13.229.754c-.025,0-.05,0-.074,0a1.12,1.12,0,0,1-1.146-1.116M76.5,475.461q-9.57.865-19.142,1.737a1.338,1.338,0,0,0-1.219,1.282v55.535a1.339,1.339,0,0,0,1.219,1.282c6.38.578,12.762,1.225,19.142,1.8a.7.7,0,0,0,.223,0l7.718-1.09V477.4l-7.459-1.884a1.643,1.643,0,0,0-.423-.062.543.543,0,0,0-.059,0" transform="translate(-56.142 -475.458)" fill="#edb3af"/>
    </clipPath>
  </defs>
  <g id="Group_277" data-name="Group 277" transform="translate(-56.142 -472.702)">
    <g id="Group_272" data-name="Group 272" transform="translate(86.331 472.702)">
      <path id="Path_558" data-name="Path 558" d="M82.954,521.8a4.788,4.788,0,1,1,4.786,4.788,4.785,4.785,0,0,1-4.786-4.788m-4.019-19.654v-1.371a1.372,1.372,0,0,1,1.371-1.374H95.178a1.372,1.372,0,0,1,1.371,1.374v1.371a1.371,1.371,0,0,1-1.371,1.369H80.306a1.371,1.371,0,0,1-1.371-1.369m0-6.855v-1.372a1.372,1.372,0,0,1,1.371-1.371H95.178a1.372,1.372,0,0,1,1.371,1.371v1.372a1.371,1.371,0,0,1-1.371,1.371H80.306a1.371,1.371,0,0,1-1.371-1.371m0-6.855v-1.371a1.369,1.369,0,0,1,1.371-1.367H95.178a1.369,1.369,0,0,1,1.371,1.367v1.371a1.371,1.371,0,0,1-1.371,1.372H80.306a1.371,1.371,0,0,1-1.371-1.372m0-6.852v-1.371a1.371,1.371,0,0,1,1.371-1.372H95.178a1.371,1.371,0,0,1,1.371,1.372v1.371a1.371,1.371,0,0,1-1.371,1.371H80.306a1.371,1.371,0,0,1-1.371-1.371M76.981,472.7a1.369,1.369,0,0,0-1.368,1.371v63.185a1.369,1.369,0,0,0,1.368,1.371H98.5a1.37,1.37,0,0,0,1.371-1.371V474.073A1.37,1.37,0,0,0,98.5,472.7Z" transform="translate(-75.613 -472.702)" fill="#edb3af"/>
      <g id="Group_271" data-name="Group 271" clip-path="url(#clip-path)">
        <rect id="Rectangle_188" data-name="Rectangle 188" width="24.259" height="65.926" transform="translate(0)" fill="#edb3af"/>
      </g>
    </g>
    <g id="Group_274" data-name="Group 274" transform="translate(112.475 476.975)">
      <path id="Path_560" data-name="Path 560" d="M102.155,502.57v-1.253a1.237,1.237,0,0,1,1.22-1.254q6.612.021,13.229.039a1.2,1.2,0,0,1,1.22,1.188v1.185a1.215,1.215,0,0,1-1.22,1.194q-6.614.074-13.229.144h-.012a1.224,1.224,0,0,1-1.208-1.242m14.449-4.85q-6.614-.077-13.229-.154a1.257,1.257,0,0,1-1.22-1.27v-1.254a1.2,1.2,0,0,1,1.22-1.223q6.614.165,13.229.335a1.239,1.239,0,0,1,1.219,1.217c0,.473,0,.71,0,1.183a1.183,1.183,0,0,1-1.2,1.166H116.6m0-5.945-13.229-.456a1.291,1.291,0,0,1-1.22-1.3v-1.254a1.168,1.168,0,0,1,1.22-1.194l13.229.634a1.275,1.275,0,0,1,1.22,1.243v1.183a1.155,1.155,0,0,1-1.18,1.143l-.04,0m0-5.946q-6.614-.377-13.229-.754a1.33,1.33,0,0,1-1.22-1.326v-1.256a1.139,1.139,0,0,1,1.22-1.167l13.229.935a1.308,1.308,0,0,1,1.22,1.27v1.183a1.12,1.12,0,0,1-1.147,1.116c-.023,0-.048,0-.073,0M99.936,475.52,92.475,477.4V536.01l7.72,1.09a.706.706,0,0,0,.223,0c6.38-.578,12.76-1.225,19.141-1.8a1.341,1.341,0,0,0,1.222-1.282c0-14.9,0-40.63,0-55.535a1.337,1.337,0,0,0-1.22-1.282q-9.57-.867-19.141-1.737a.543.543,0,0,0-.059,0,1.643,1.643,0,0,0-.423.062" transform="translate(-92.475 -475.458)" fill="#edb3af"/>
      <g id="Group_273" data-name="Group 273" clip-path="url(#clip-path-2)">
        <rect id="Rectangle_189" data-name="Rectangle 189" width="28.305" height="61.664" transform="translate(0 0)" fill="#edb3af"/>
      </g>
    </g>
    <g id="Group_276" data-name="Group 276" transform="translate(56.142 476.975)">
      <path id="Path_562" data-name="Path 562" d="M73.546,503.812q-6.614-.072-13.229-.144a1.215,1.215,0,0,1-1.22-1.194v-1.185a1.2,1.2,0,0,1,1.22-1.188l13.229-.039a1.236,1.236,0,0,1,1.219,1.254v1.253a1.222,1.222,0,0,1-1.206,1.242h-.012M59.1,496.552v-1.181a1.24,1.24,0,0,1,1.22-1.217q6.614-.17,13.229-.335a1.2,1.2,0,0,1,1.219,1.223V496.3a1.255,1.255,0,0,1-1.219,1.27q-6.614.079-13.229.154H60.3a1.182,1.182,0,0,1-1.2-1.168m0-5.918v-1.185a1.275,1.275,0,0,1,1.22-1.242q6.614-.319,13.229-.634a1.167,1.167,0,0,1,1.219,1.194v1.254a1.29,1.29,0,0,1-1.219,1.3l-13.229.456-.04,0a1.154,1.154,0,0,1-1.18-1.143m0-5.92v-1.183a1.308,1.308,0,0,1,1.22-1.27l13.229-.935a1.138,1.138,0,0,1,1.219,1.167v1.256a1.329,1.329,0,0,1-1.219,1.326q-6.614.374-13.229.754c-.025,0-.05,0-.074,0a1.12,1.12,0,0,1-1.146-1.116M76.5,475.461q-9.57.865-19.142,1.737a1.338,1.338,0,0,0-1.219,1.282v55.535a1.339,1.339,0,0,0,1.219,1.282c6.38.578,12.762,1.225,19.142,1.8a.7.7,0,0,0,.223,0l7.718-1.09V477.4l-7.459-1.884a1.643,1.643,0,0,0-.423-.062.543.543,0,0,0-.059,0" transform="translate(-56.142 -475.458)" fill="#edb3af"/>
      <g id="Group_275" data-name="Group 275" clip-path="url(#clip-path-3)">
        <rect id="Rectangle_190" data-name="Rectangle 190" width="28.302" height="61.664" fill="#edb3af"/>
      </g>
    </g>
  </g>
</svg>
