<svg xmlns="http://www.w3.org/2000/svg" xmlns:xlink="http://www.w3.org/1999/xlink" width="84.639" height="94.004" viewBox="0 0 84.639 94.004">
  <defs>
    <clipPath id="clip-path">
      <path id="Path_575" data-name="Path 575" d="M385.7,502.737l-.292.953-.995-.1a16.268,16.268,0,1,0-1.713,32.446h30.01a16.269,16.269,0,0,0,5.1-31.719l-.63-.212-.166-.641a16.272,16.272,0,0,0-31.312-.723" transform="translate(-366.436 -491.245)" fill="#c7003c"/>
    </clipPath>
    <clipPath id="clip-path-2">
      <path id="Path_577" data-name="Path 577" d="M362.591,502.263c0-.581.493-1.284,1.413-2.012,5.45,2.565,13.059,3.882,20.348,3.882s14.9-1.318,20.353-3.88c.917.727,1.406,1.428,1.406,2.01,0,2.421-8.264,6.86-21.759,6.86s-21.761-4.439-21.761-6.86m0-16.557c0-2.414,8.264-6.856,21.761-6.856s21.759,4.442,21.759,6.856-8.264,6.862-21.759,6.862-21.761-4.439-21.761-6.862m-6.146,0,0,6.7.015.144a8.513,8.513,0,0,0,2.366,4.2,7.908,7.908,0,0,0-2.388,5.514l.007,6.7.015.141a8.486,8.486,0,0,0,2.366,4.2,7.918,7.918,0,0,0-2.388,5.516l.007,6.7.013.141a8.521,8.521,0,0,0,2.366,4.2,7.92,7.92,0,0,0-2.385,5.516l.007,6.7.013.144c1.364,6.593,11.81,10.462,22.824,11.37a19.138,19.138,0,0,1-3.732-11.375c0-.221.009-.442.018-.663-8.211-1.338-12.982-4.34-12.982-6.177,0-.583.493-1.287,1.413-2.016a42.852,42.852,0,0,0,12.354,3.36,19.337,19.337,0,0,1,8.624-11.047c-.21,0-.418.007-.63.007-13.5,0-21.761-4.442-21.761-6.858,0-.584.493-1.287,1.413-2.014,5.45,2.564,13.059,3.884,20.348,3.884a58.691,58.691,0,0,0,13.013-1.432,19.226,19.226,0,0,1,14.326-8.468,7.4,7.4,0,0,0,.568-1.682v-6.845a7.9,7.9,0,0,0-2.379-5.5,8.508,8.508,0,0,0,2.379-4.209v-6.847c0-8.445-14.379-13-27.907-13s-27.907,4.559-27.907,13.006" transform="translate(-356.443 -472.702)" fill="#c7003c"/>
    </clipPath>
    <clipPath id="clip-path-3">
      <path id="Path_579" data-name="Path 579" d="M360.879,509.595a2.432,2.432,0,0,0-1.495,3.091,14.125,14.125,0,0,0,18.025,8.717,2.425,2.425,0,1,0-1.594-4.581,9.307,9.307,0,0,1-11.846-5.73,2.427,2.427,0,0,0-3.091-1.5" transform="translate(-359.25 -509.46)" fill="#c7003c"/>
    </clipPath>
    <clipPath id="clip-path-4">
      <path id="Path_581" data-name="Path 581" d="M385.531,485.494a2.428,2.428,0,0,0-.018,4.855,9.311,9.311,0,0,1,9.226,9.378,2.423,2.423,0,0,0,2.405,2.445h.022a2.425,2.425,0,0,0,2.425-2.405,14.173,14.173,0,0,0-14.039-14.273Z" transform="translate(-383.106 -485.494)" fill="#c7003c"/>
    </clipPath>
  </defs>
  <g id="Group_297" data-name="Group 297" transform="translate(-356.443 -472.702)">
    <g id="Group_290" data-name="Group 290" transform="translate(378.536 513.697)">
      <path id="Path_574" data-name="Path 574" d="M385.7,502.737l-.292.953-.995-.1a16.268,16.268,0,1,0-1.713,32.446h30.01a16.269,16.269,0,0,0,5.1-31.719l-.63-.212-.166-.641a16.272,16.272,0,0,0-31.312-.723" transform="translate(-366.436 -491.245)" fill="#c7003c"/>
      <g id="Group_289" data-name="Group 289" clip-path="url(#clip-path)">
        <rect id="Rectangle_196" data-name="Rectangle 196" width="62.546" height="44.787" transform="translate(0 0)" fill="#c7003c"/>
      </g>
    </g>
    <g id="Group_292" data-name="Group 292" transform="translate(356.443 472.702)">
      <path id="Path_576" data-name="Path 576" d="M362.591,502.263c0-.581.493-1.284,1.413-2.012,5.45,2.565,13.059,3.882,20.348,3.882s14.9-1.318,20.353-3.88c.917.727,1.406,1.428,1.406,2.01,0,2.421-8.264,6.86-21.759,6.86s-21.761-4.439-21.761-6.86m0-16.557c0-2.414,8.264-6.856,21.761-6.856s21.759,4.442,21.759,6.856-8.264,6.862-21.759,6.862-21.761-4.439-21.761-6.862m-6.146,0,0,6.7.015.144a8.513,8.513,0,0,0,2.366,4.2,7.908,7.908,0,0,0-2.388,5.514l.007,6.7.015.141a8.486,8.486,0,0,0,2.366,4.2,7.918,7.918,0,0,0-2.388,5.516l.007,6.7.013.141a8.521,8.521,0,0,0,2.366,4.2,7.92,7.92,0,0,0-2.385,5.516l.007,6.7.013.144c1.364,6.593,11.81,10.462,22.824,11.37a19.138,19.138,0,0,1-3.732-11.375c0-.221.009-.442.018-.663-8.211-1.338-12.982-4.34-12.982-6.177,0-.583.493-1.287,1.413-2.016a42.852,42.852,0,0,0,12.354,3.36,19.337,19.337,0,0,1,8.624-11.047c-.21,0-.418.007-.63.007-13.5,0-21.761-4.442-21.761-6.858,0-.584.493-1.287,1.413-2.014,5.45,2.564,13.059,3.884,20.348,3.884a58.691,58.691,0,0,0,13.013-1.432,19.226,19.226,0,0,1,14.326-8.468,7.4,7.4,0,0,0,.568-1.682v-6.845a7.9,7.9,0,0,0-2.379-5.5,8.508,8.508,0,0,0,2.379-4.209v-6.847c0-8.445-14.379-13-27.907-13s-27.907,4.559-27.907,13.006" transform="translate(-356.443 -472.702)" fill="#c7003c"/>
      <g id="Group_291" data-name="Group 291" clip-path="url(#clip-path-2)">
        <rect id="Rectangle_197" data-name="Rectangle 197" width="55.816" height="80.887" transform="translate(0)" fill="#c7003c"/>
      </g>
    </g>
    <g id="Group_294" data-name="Group 294" transform="translate(362.649 553.967)">
      <path id="Path_578" data-name="Path 578" d="M360.879,509.595a2.432,2.432,0,0,0-1.495,3.091,14.125,14.125,0,0,0,18.025,8.717,2.425,2.425,0,1,0-1.594-4.581,9.307,9.307,0,0,1-11.846-5.73,2.427,2.427,0,0,0-3.091-1.5" transform="translate(-359.25 -509.46)" fill="#c7003c"/>
      <g id="Group_293" data-name="Group 293" clip-path="url(#clip-path-3)">
        <rect id="Rectangle_198" data-name="Rectangle 198" width="20.397" height="12.739" transform="translate(-0.303)" fill="#c7003c"/>
      </g>
    </g>
    <g id="Group_296" data-name="Group 296" transform="translate(415.39 500.983)">
      <path id="Path_580" data-name="Path 580" d="M385.531,485.494a2.428,2.428,0,0,0-.018,4.855,9.311,9.311,0,0,1,9.226,9.378,2.423,2.423,0,0,0,2.405,2.445h.022a2.425,2.425,0,0,0,2.425-2.405,14.173,14.173,0,0,0-14.039-14.273Z" transform="translate(-383.106 -485.494)" fill="#c7003c"/>
      <g id="Group_295" data-name="Group 295" clip-path="url(#clip-path-4)">
        <rect id="Rectangle_199" data-name="Rectangle 199" width="16.561" height="16.678" transform="translate(-0.011 0)" fill="#c7003c"/>
      </g>
    </g>
  </g>
</svg>
