<svg xmlns="http://www.w3.org/2000/svg" xmlns:xlink="http://www.w3.org/1999/xlink" width="91.639" height="72.105" viewBox="0 0 91.639 72.105">
  <defs>
    <clipPath id="clip-path">
      <path id="Path_613" data-name="Path 613" d="M487.136,672.139c0-.237.2-.519.572-.816a22.355,22.355,0,0,0,16.466,0c.371.3.568.578.568.814,0,.978-3.341,2.774-8.8,2.774s-8.8-1.8-8.8-2.774m69.058,0c0-.237.2-.519.572-.816a22.351,22.351,0,0,0,16.464,0c.371.3.57.578.57.814,0,.978-3.342,2.774-8.8,2.774s-8.8-1.8-8.8-2.774m-69.058-6.7c0-.237.2-.521.572-.817a22.346,22.346,0,0,0,16.466,0c.371.295.568.576.568.814,0,.977-3.341,2.774-8.8,2.774s-8.8-1.8-8.8-2.774m69.058,0c0-.237.2-.521.572-.817a22.342,22.342,0,0,0,16.464,0c.371.295.57.576.57.814,0,.977-3.342,2.774-8.8,2.774s-8.8-1.8-8.8-2.774m-69.058-6.7c0-.234.2-.519.572-.814a22.345,22.345,0,0,0,16.466,0c.371.293.568.577.568.811,0,.98-3.341,2.778-8.8,2.778s-8.8-1.8-8.8-2.778m69.058,0c0-.234.2-.519.572-.814a22.34,22.34,0,0,0,16.464,0c.371.293.57.577.57.811,0,.98-3.342,2.778-8.8,2.778s-8.8-1.8-8.8-2.778m-69.058-6.7c0-.979,3.342-2.776,8.8-2.776s8.8,1.8,8.8,2.776-3.341,2.773-8.8,2.773-8.8-1.8-8.8-2.773m69.058,0c0-.979,3.342-2.776,8.8-2.776s8.8,1.8,8.8,2.776-3.342,2.773-8.8,2.773-8.8-1.8-8.8-2.773m-39.046-6.188c0-.358.3-.787.863-1.233a33.844,33.844,0,0,0,24.918,0c.561.446.86.875.86,1.231,0,1.48-5.057,4.2-13.322,4.2s-13.319-2.718-13.319-4.2m0-10.136c0-.358.3-.788.863-1.233a33.822,33.822,0,0,0,24.918,0c.561.446.86.873.86,1.231,0,1.481-5.057,4.2-13.322,4.2s-13.319-2.72-13.319-4.2m-23.877-6.881c0-.185.156-.409.448-.638a17.466,17.466,0,0,0,12.861,0c.292.229.446.451.446.636,0,.765-2.612,2.167-6.876,2.167s-6.878-1.4-6.878-2.167m60.64,0c0-.185.154-.409.446-.638a17.471,17.471,0,0,0,12.863,0c.288.229.444.451.444.636,0,.765-2.612,2.167-6.876,2.167s-6.876-1.4-6.876-2.167m-36.763-3.254c0-.358.3-.787.863-1.233a33.833,33.833,0,0,0,24.918,0c.561.446.86.875.86,1.233,0,1.48-5.057,4.2-13.322,4.2s-13.319-2.717-13.319-4.2m-10.568-2.615c.292.231.446.451.446.636,0,.763-2.612,2.167-6.876,2.167s-6.876-1.4-6.876-2.167c0-.185.154-.407.446-.636a17.454,17.454,0,0,0,12.861,0m60.64,0c.288.231.444.451.444.636,0,.763-2.612,2.167-6.876,2.167s-6.876-1.4-6.876-2.167c0-.185.154-.407.446-.636a17.459,17.459,0,0,0,12.863,0m-60.64-5.232c.292.231.446.451.446.636,0,.763-2.612,2.167-6.876,2.167s-6.876-1.4-6.876-2.167c0-.185.154-.407.446-.636a17.455,17.455,0,0,0,12.861,0m60.64,0c.288.231.444.451.444.636,0,.763-2.612,2.167-6.876,2.167s-6.876-1.4-6.876-2.167c0-.185.154-.407.446-.636a17.46,17.46,0,0,0,12.863,0m-50.072-2.289c0-1.48,5.055-4.2,13.319-4.2s13.322,2.718,13.322,4.2-5.057,4.2-13.322,4.2-13.319-2.718-13.319-4.2m-23.877-2.308c0-.763,2.612-2.165,6.878-2.165s6.876,1.4,6.876,2.165-2.612,2.169-6.876,2.169-6.878-1.4-6.878-2.169m60.64,0c0-.763,2.61-2.165,6.876-2.165s6.876,1.4,6.876,2.165-2.612,2.169-6.876,2.169-6.876-1.4-6.876-2.169m-40.528,2.31.005,4.1.01.086a5.184,5.184,0,0,0,1.446,2.569,4.843,4.843,0,0,0-1.462,3.378l.005,4.1.01.087a5.171,5.171,0,0,0,1.446,2.569,4.846,4.846,0,0,0-1.462,3.378v.265l-6.319-2.8a3.486,3.486,0,0,0,1.906-2.186v-2.164a2.489,2.489,0,0,0-.751-1.738,2.709,2.709,0,0,0,.751-1.331v-2.164a2.5,2.5,0,0,0-.751-1.738,2.693,2.693,0,0,0,.751-1.331v-2.162a2.5,2.5,0,0,0-.751-1.738,2.7,2.7,0,0,0,.751-1.33v-2.162c0-2.671-4.545-4.112-8.821-4.112s-8.818,1.441-8.818,4.112l0,2.116.005.046a2.688,2.688,0,0,0,.748,1.325,2.507,2.507,0,0,0-.755,1.743l0,2.118.005.044a2.7,2.7,0,0,0,.748,1.328,2.5,2.5,0,0,0-.755,1.741l0,2.12.005.046a2.7,2.7,0,0,0,.748,1.324,2.5,2.5,0,0,0-.755,1.743l0,2.12.005.044c.5,2.4,4.809,3.659,8.811,3.659.471,0,.948-.019,1.419-.054l11.821,5.237.009.068a5.184,5.184,0,0,0,1.446,2.569,4.839,4.839,0,0,0-1.462,3.376l.005,4.1.01.088a5.136,5.136,0,0,0,1.338,2.459l-7.7,5.194a3.61,3.61,0,0,0-.765-1.185,3.439,3.439,0,0,0,.961-1.7v-2.771c0-3.417-5.817-5.262-11.291-5.262s-11.289,1.845-11.289,5.262l0,2.712.005.059a3.427,3.427,0,0,0,.956,1.7,3.19,3.19,0,0,0-.968,2.228l0,2.713.007.058a3.425,3.425,0,0,0,.956,1.7,3.2,3.2,0,0,0-.967,2.232l0,2.711.007.058a3.44,3.44,0,0,0,.956,1.7,3.2,3.2,0,0,0-.967,2.23l0,2.712.007.058c.634,3.076,6.154,4.685,11.28,4.685s10.656-1.609,11.29-4.685v-2.769a3.189,3.189,0,0,0-.961-2.225,3.442,3.442,0,0,0,.961-1.7v-2.768a3.193,3.193,0,0,0-.961-2.227,3.636,3.636,0,0,0,.853-1.319l10.706-7.222a33.658,33.658,0,0,0,25.286,0l10.716,7.229a3.613,3.613,0,0,0,.843,1.306,3.2,3.2,0,0,0-.965,2.232l0,2.711.007.058a3.453,3.453,0,0,0,.956,1.7,3.2,3.2,0,0,0-.965,2.23l0,2.712.007.058c.636,3.078,6.156,4.685,11.282,4.685s10.655-1.608,11.291-4.685l0-2.769a3.2,3.2,0,0,0-.961-2.225,3.435,3.435,0,0,0,.963-1.7l0-2.769a3.2,3.2,0,0,0-.961-2.227,3.435,3.435,0,0,0,.963-1.7v-2.771a3.2,3.2,0,0,0-.963-2.225,3.445,3.445,0,0,0,.963-1.7v-2.771c0-3.417-5.818-5.262-11.291-5.262s-11.291,1.845-11.291,5.264l0,2.712.008.058a3.431,3.431,0,0,0,.955,1.7,3.628,3.628,0,0,0-.768,1.192l-7.7-5.191a5.1,5.1,0,0,0,1.346-2.464v-4.19a4.845,4.845,0,0,0-1.457-3.37,5.183,5.183,0,0,0,1.457-2.576v-.07l11.816-5.233c.471.034.946.053,1.418.053,4,0,8.325-1.257,8.82-3.659v-2.162a2.491,2.491,0,0,0-.753-1.74,2.7,2.7,0,0,0,.753-1.329v-2.164a2.5,2.5,0,0,0-.753-1.74,2.693,2.693,0,0,0,.753-1.329v-2.162a2.49,2.49,0,0,0-.753-1.738,2.707,2.707,0,0,0,.753-1.33v-2.166c0-2.669-4.545-4.109-8.82-4.109s-8.822,1.44-8.822,4.112l0,2.116.007.046a2.666,2.666,0,0,0,.746,1.325,2.508,2.508,0,0,0-.756,1.743l0,2.118.007.044a2.656,2.656,0,0,0,.746,1.326,2.5,2.5,0,0,0-.755,1.743l0,2.118.007.046a2.663,2.663,0,0,0,.746,1.326,2.5,2.5,0,0,0-.755,1.743l0,2.118.007.046a3.485,3.485,0,0,0,1.9,2.184l-6.322,2.8v-.265a4.835,4.835,0,0,0-1.457-3.37,5.162,5.162,0,0,0,1.457-2.578V625.59a4.834,4.834,0,0,0-1.457-3.369,5.187,5.187,0,0,0,1.458-2.578l0-4.19c0-5.17-8.8-7.963-17.085-7.963s-17.085,2.793-17.085,7.965" transform="translate(-484.648 -607.489)" fill="#edb3af"/>
    </clipPath>
  </defs>
  <g id="Group_338" data-name="Group 338" transform="translate(-484.648 -607.489)">
    <path id="Path_612" data-name="Path 612" d="M487.136,672.139c0-.237.2-.519.572-.816a22.355,22.355,0,0,0,16.466,0c.371.3.568.578.568.814,0,.978-3.341,2.774-8.8,2.774s-8.8-1.8-8.8-2.774m69.058,0c0-.237.2-.519.572-.816a22.351,22.351,0,0,0,16.464,0c.371.3.57.578.57.814,0,.978-3.342,2.774-8.8,2.774s-8.8-1.8-8.8-2.774m-69.058-6.7c0-.237.2-.521.572-.817a22.346,22.346,0,0,0,16.466,0c.371.295.568.576.568.814,0,.977-3.341,2.774-8.8,2.774s-8.8-1.8-8.8-2.774m69.058,0c0-.237.2-.521.572-.817a22.342,22.342,0,0,0,16.464,0c.371.295.57.576.57.814,0,.977-3.342,2.774-8.8,2.774s-8.8-1.8-8.8-2.774m-69.058-6.7c0-.234.2-.519.572-.814a22.345,22.345,0,0,0,16.466,0c.371.293.568.577.568.811,0,.98-3.341,2.778-8.8,2.778s-8.8-1.8-8.8-2.778m69.058,0c0-.234.2-.519.572-.814a22.34,22.34,0,0,0,16.464,0c.371.293.57.577.57.811,0,.98-3.342,2.778-8.8,2.778s-8.8-1.8-8.8-2.778m-69.058-6.7c0-.979,3.342-2.776,8.8-2.776s8.8,1.8,8.8,2.776-3.341,2.773-8.8,2.773-8.8-1.8-8.8-2.773m69.058,0c0-.979,3.342-2.776,8.8-2.776s8.8,1.8,8.8,2.776-3.342,2.773-8.8,2.773-8.8-1.8-8.8-2.773m-39.046-6.188c0-.358.3-.787.863-1.233a33.844,33.844,0,0,0,24.918,0c.561.446.86.875.86,1.231,0,1.48-5.057,4.2-13.322,4.2s-13.319-2.718-13.319-4.2m0-10.136c0-.358.3-.788.863-1.233a33.822,33.822,0,0,0,24.918,0c.561.446.86.873.86,1.231,0,1.481-5.057,4.2-13.322,4.2s-13.319-2.72-13.319-4.2m-23.877-6.881c0-.185.156-.409.448-.638a17.466,17.466,0,0,0,12.861,0c.292.229.446.451.446.636,0,.765-2.612,2.167-6.876,2.167s-6.878-1.4-6.878-2.167m60.64,0c0-.185.154-.409.446-.638a17.471,17.471,0,0,0,12.863,0c.288.229.444.451.444.636,0,.765-2.612,2.167-6.876,2.167s-6.876-1.4-6.876-2.167m-36.763-3.254c0-.358.3-.787.863-1.233a33.833,33.833,0,0,0,24.918,0c.561.446.86.875.86,1.233,0,1.48-5.057,4.2-13.322,4.2s-13.319-2.717-13.319-4.2m-10.568-2.615c.292.231.446.451.446.636,0,.763-2.612,2.167-6.876,2.167s-6.876-1.4-6.876-2.167c0-.185.154-.407.446-.636a17.454,17.454,0,0,0,12.861,0m60.64,0c.288.231.444.451.444.636,0,.763-2.612,2.167-6.876,2.167s-6.876-1.4-6.876-2.167c0-.185.154-.407.446-.636a17.459,17.459,0,0,0,12.863,0m-60.64-5.232c.292.231.446.451.446.636,0,.763-2.612,2.167-6.876,2.167s-6.876-1.4-6.876-2.167c0-.185.154-.407.446-.636a17.455,17.455,0,0,0,12.861,0m60.64,0c.288.231.444.451.444.636,0,.763-2.612,2.167-6.876,2.167s-6.876-1.4-6.876-2.167c0-.185.154-.407.446-.636a17.46,17.46,0,0,0,12.863,0m-50.072-2.289c0-1.48,5.055-4.2,13.319-4.2s13.322,2.718,13.322,4.2-5.057,4.2-13.322,4.2-13.319-2.718-13.319-4.2m-23.877-2.308c0-.763,2.612-2.165,6.878-2.165s6.876,1.4,6.876,2.165-2.612,2.169-6.876,2.169-6.878-1.4-6.878-2.169m60.64,0c0-.763,2.61-2.165,6.876-2.165s6.876,1.4,6.876,2.165-2.612,2.169-6.876,2.169-6.876-1.4-6.876-2.169m-40.528,2.31.005,4.1.01.086a5.184,5.184,0,0,0,1.446,2.569,4.843,4.843,0,0,0-1.462,3.378l.005,4.1.01.087a5.171,5.171,0,0,0,1.446,2.569,4.846,4.846,0,0,0-1.462,3.378v.265l-6.319-2.8a3.486,3.486,0,0,0,1.906-2.186v-2.164a2.489,2.489,0,0,0-.751-1.738,2.709,2.709,0,0,0,.751-1.331v-2.164a2.5,2.5,0,0,0-.751-1.738,2.693,2.693,0,0,0,.751-1.331v-2.162a2.5,2.5,0,0,0-.751-1.738,2.7,2.7,0,0,0,.751-1.33v-2.162c0-2.671-4.545-4.112-8.821-4.112s-8.818,1.441-8.818,4.112l0,2.116.005.046a2.688,2.688,0,0,0,.748,1.325,2.507,2.507,0,0,0-.755,1.743l0,2.118.005.044a2.7,2.7,0,0,0,.748,1.328,2.5,2.5,0,0,0-.755,1.741l0,2.12.005.046a2.7,2.7,0,0,0,.748,1.324,2.5,2.5,0,0,0-.755,1.743l0,2.12.005.044c.5,2.4,4.809,3.659,8.811,3.659.471,0,.948-.019,1.419-.054l11.821,5.237.009.068a5.184,5.184,0,0,0,1.446,2.569,4.839,4.839,0,0,0-1.462,3.376l.005,4.1.01.088a5.136,5.136,0,0,0,1.338,2.459l-7.7,5.194a3.61,3.61,0,0,0-.765-1.185,3.439,3.439,0,0,0,.961-1.7v-2.771c0-3.417-5.817-5.262-11.291-5.262s-11.289,1.845-11.289,5.262l0,2.712.005.059a3.427,3.427,0,0,0,.956,1.7,3.19,3.19,0,0,0-.968,2.228l0,2.713.007.058a3.425,3.425,0,0,0,.956,1.7,3.2,3.2,0,0,0-.967,2.232l0,2.711.007.058a3.44,3.44,0,0,0,.956,1.7,3.2,3.2,0,0,0-.967,2.23l0,2.712.007.058c.634,3.076,6.154,4.685,11.28,4.685s10.656-1.609,11.29-4.685v-2.769a3.189,3.189,0,0,0-.961-2.225,3.442,3.442,0,0,0,.961-1.7v-2.768a3.193,3.193,0,0,0-.961-2.227,3.636,3.636,0,0,0,.853-1.319l10.706-7.222a33.658,33.658,0,0,0,25.286,0l10.716,7.229a3.613,3.613,0,0,0,.843,1.306,3.2,3.2,0,0,0-.965,2.232l0,2.711.007.058a3.453,3.453,0,0,0,.956,1.7,3.2,3.2,0,0,0-.965,2.23l0,2.712.007.058c.636,3.078,6.156,4.685,11.282,4.685s10.655-1.608,11.291-4.685l0-2.769a3.2,3.2,0,0,0-.961-2.225,3.435,3.435,0,0,0,.963-1.7l0-2.769a3.2,3.2,0,0,0-.961-2.227,3.435,3.435,0,0,0,.963-1.7v-2.771a3.2,3.2,0,0,0-.963-2.225,3.445,3.445,0,0,0,.963-1.7v-2.771c0-3.417-5.818-5.262-11.291-5.262s-11.291,1.845-11.291,5.264l0,2.712.008.058a3.431,3.431,0,0,0,.955,1.7,3.628,3.628,0,0,0-.768,1.192l-7.7-5.191a5.1,5.1,0,0,0,1.346-2.464v-4.19a4.845,4.845,0,0,0-1.457-3.37,5.183,5.183,0,0,0,1.457-2.576v-.07l11.816-5.233c.471.034.946.053,1.418.053,4,0,8.325-1.257,8.82-3.659v-2.162a2.491,2.491,0,0,0-.753-1.74,2.7,2.7,0,0,0,.753-1.329v-2.164a2.5,2.5,0,0,0-.753-1.74,2.693,2.693,0,0,0,.753-1.329v-2.162a2.49,2.49,0,0,0-.753-1.738,2.707,2.707,0,0,0,.753-1.33v-2.166c0-2.669-4.545-4.109-8.82-4.109s-8.822,1.44-8.822,4.112l0,2.116.007.046a2.666,2.666,0,0,0,.746,1.325,2.508,2.508,0,0,0-.756,1.743l0,2.118.007.044a2.656,2.656,0,0,0,.746,1.326,2.5,2.5,0,0,0-.755,1.743l0,2.118.007.046a2.663,2.663,0,0,0,.746,1.326,2.5,2.5,0,0,0-.755,1.743l0,2.118.007.046a3.485,3.485,0,0,0,1.9,2.184l-6.322,2.8v-.265a4.835,4.835,0,0,0-1.457-3.37,5.162,5.162,0,0,0,1.457-2.578V625.59a4.834,4.834,0,0,0-1.457-3.369,5.187,5.187,0,0,0,1.458-2.578l0-4.19c0-5.17-8.8-7.963-17.085-7.963s-17.085,2.793-17.085,7.965" fill="#edb3af"/>
    <g id="Group_337" data-name="Group 337" transform="translate(484.648 607.489)" clip-path="url(#clip-path)">
      <rect id="Rectangle_224" data-name="Rectangle 224" width="91.639" height="72.105" transform="translate(0)" fill="#edb3af"/>
    </g>
  </g>
</svg>
