<svg xmlns="http://www.w3.org/2000/svg" xmlns:xlink="http://www.w3.org/1999/xlink" width="119" height="83.62" viewBox="0 0 119 83.62">
  <defs>
    <clipPath id="clip-path">
      <path id="Path_649" data-name="Path 649" d="M137.526,542.534l-5.573,5.542-5.591-5.546a2.668,2.668,0,0,0-3.6-.146l-4.008,3.379-17.123,6.826c-5.514,2.195-5.508,21.721-5.982,23.515h72.609c-.472-1.79-.478-21.32-5.992-23.515l-17.121-6.826-4.008-3.379a2.665,2.665,0,0,0-3.607.15" transform="translate(-95.645 -541.753)" fill="#c7003c"/>
    </clipPath>
    <clipPath id="clip-path-2">
      <path id="Path_651" data-name="Path 651" d="M108.1,534.053c1.343-7.54,8.631-13.322,17.395-13.322s16.053,5.782,17.4,13.322a3.6,3.6,0,0,0-1.129.692c-2.1-6.627-8.159-10.567-16.27-10.567s-14.173,3.937-16.276,10.561a3.548,3.548,0,0,0-1.119-.686m-4.124.327a3.553,3.553,0,0,0-1.646,3v8.065a3.558,3.558,0,0,0,3.558,3.56L109.1,549c1.986,10.376,9.035,16.28,16.392,16.28s11.631-3.5,14.463-9.941a17.42,17.42,0,0,1-9.707,3.571,2.248,2.248,0,0,1-1.87,1h-2.055a2.252,2.252,0,1,1,0-4.5h2.055a2.246,2.246,0,0,1,1.786.885,14.1,14.1,0,0,0,11.725-7.28l3.211,0a3.56,3.56,0,0,0,3.56-3.56v-8.065a3.563,3.563,0,0,0-1.646-3c-1.188-9.93-10.386-17.68-21.521-17.68s-20.333,7.75-21.521,17.68" transform="translate(-102.326 -516.7)" fill="#c7003c"/>
    </clipPath>
    <clipPath id="clip-path-3">
      <path id="Path_653" data-name="Path 653" d="M130.066,545.3l-1.227,1.036,2.258.9c4.871,1.935,6.309,10.824,7.054,19.774h21.212c-.3-1.15-.307-13.729-3.856-15.141l-11.025-4.4L141.9,545.3a1.716,1.716,0,0,0-2.319.1l-3.589,3.568-3.6-3.569a1.72,1.72,0,0,0-2.321-.094" transform="translate(-128.839 -544.897)" fill="#c7003c"/>
    </clipPath>
    <clipPath id="clip-path-4">
      <path id="Path_655" data-name="Path 655" d="M128.6,539.939c.865-4.856,5.558-8.578,11.2-8.578s10.337,3.723,11.2,8.578a2.283,2.283,0,0,0-.726.444c-1.353-4.267-5.257-6.8-10.478-6.8s-9.129,2.535-10.48,6.8a2.267,2.267,0,0,0-.722-.442m-2.655.21a2.288,2.288,0,0,0-1.06,1.931v5.194a2.294,2.294,0,0,0,2.291,2.293l2.071-.006c1.28,6.681,5.817,10.484,10.555,10.484s7.489-2.252,9.316-6.4a11.235,11.235,0,0,1-6.252,2.3,1.449,1.449,0,0,1-1.206.643H140.34a1.45,1.45,0,1,1,0-2.9h1.324a1.452,1.452,0,0,1,1.152.57,9.09,9.09,0,0,0,7.548-4.686h2.067a2.291,2.291,0,0,0,2.291-2.293v-5.194a2.293,2.293,0,0,0-1.058-1.931c-.767-6.393-6.688-11.385-13.859-11.385s-13.094,4.991-13.857,11.385" transform="translate(-124.888 -528.765)" fill="#c7003c"/>
    </clipPath>
    <clipPath id="clip-path-5">
      <path id="Path_657" data-name="Path 657" d="M110.82,545.4l-3.591,3.568-3.6-3.568a1.718,1.718,0,0,0-2.321-.1l-2.582,2.177-11.027,4.4c-3.55,1.414-3.548,13.988-3.853,15.143h21.216c.736-8.95,2.175-17.837,7.044-19.776l2.262-.9-1.233-1.036a1.714,1.714,0,0,0-2.319.1" transform="translate(-83.85 -544.897)" fill="#c7003c"/>
    </clipPath>
    <clipPath id="clip-path-6">
      <path id="Path_659" data-name="Path 659" d="M91.866,539.939c.867-4.856,5.56-8.578,11.2-8.578s10.335,3.723,11.2,8.578a2.315,2.315,0,0,0-.728.444c-1.351-4.267-5.255-6.8-10.476-6.8s-9.127,2.535-10.48,6.8a2.277,2.277,0,0,0-.724-.442m-2.655.21a2.289,2.289,0,0,0-1.058,1.931v5.194a2.291,2.291,0,0,0,2.291,2.293l2.071-.006c1.278,6.681,5.817,10.484,10.555,10.484s7.487-2.252,9.314-6.4a11.241,11.241,0,0,1-6.252,2.3,1.446,1.446,0,0,1-1.206.643H103.6a1.45,1.45,0,0,1,0-2.9h1.324a1.449,1.449,0,0,1,1.152.57,9.09,9.09,0,0,0,7.55-4.686H115.7a2.291,2.291,0,0,0,2.291-2.293v-5.194a2.293,2.293,0,0,0-1.058-1.931c-.767-6.393-6.69-11.385-13.859-11.385s-13.094,4.991-13.859,11.385" transform="translate(-88.153 -528.765)" fill="#c7003c"/>
    </clipPath>
  </defs>
  <g id="Group_389" data-name="Group 389" transform="translate(-83.85 -516.7)">
    <g id="Group_378" data-name="Group 378" transform="translate(107.046 565.97)">
      <path id="Path_648" data-name="Path 648" d="M137.526,542.534l-5.573,5.542-5.591-5.546a2.668,2.668,0,0,0-3.6-.146l-4.008,3.379-17.123,6.826c-5.514,2.195-5.508,21.721-5.982,23.515h72.609c-.472-1.79-.478-21.32-5.992-23.515l-17.121-6.826-4.008-3.379a2.665,2.665,0,0,0-3.607.15" transform="translate(-95.645 -541.753)" fill="#c7003c"/>
      <g id="Group_377" data-name="Group 377" clip-path="url(#clip-path)">
        <rect id="Rectangle_242" data-name="Rectangle 242" width="72.609" height="34.612" transform="translate(0 -0.262)" fill="#c7003c"/>
      </g>
    </g>
    <g id="Group_380" data-name="Group 380" transform="translate(120.185 516.7)">
      <path id="Path_650" data-name="Path 650" d="M108.1,534.053c1.343-7.54,8.631-13.322,17.395-13.322s16.053,5.782,17.4,13.322a3.6,3.6,0,0,0-1.129.692c-2.1-6.627-8.159-10.567-16.27-10.567s-14.173,3.937-16.276,10.561a3.548,3.548,0,0,0-1.119-.686m-4.124.327a3.553,3.553,0,0,0-1.646,3v8.065a3.558,3.558,0,0,0,3.558,3.56L109.1,549c1.986,10.376,9.035,16.28,16.392,16.28s11.631-3.5,14.463-9.941a17.42,17.42,0,0,1-9.707,3.571,2.248,2.248,0,0,1-1.87,1h-2.055a2.252,2.252,0,1,1,0-4.5h2.055a2.246,2.246,0,0,1,1.786.885,14.1,14.1,0,0,0,11.725-7.28l3.211,0a3.56,3.56,0,0,0,3.56-3.56v-8.065a3.563,3.563,0,0,0-1.646-3c-1.188-9.93-10.386-17.68-21.521-17.68s-20.333,7.75-21.521,17.68" transform="translate(-102.326 -516.7)" fill="#c7003c"/>
      <g id="Group_379" data-name="Group 379" clip-path="url(#clip-path-2)">
        <rect id="Rectangle_243" data-name="Rectangle 243" width="46.333" height="48.577" transform="translate(0 0)" fill="#c7003c"/>
      </g>
    </g>
    <g id="Group_382" data-name="Group 382" transform="translate(172.326 572.153)">
      <path id="Path_652" data-name="Path 652" d="M130.066,545.3l-1.227,1.036,2.258.9c4.871,1.935,6.309,10.824,7.054,19.774h21.212c-.3-1.15-.307-13.729-3.856-15.141l-11.025-4.4L141.9,545.3a1.716,1.716,0,0,0-2.319.1l-3.589,3.568-3.6-3.569a1.72,1.72,0,0,0-2.321-.094" transform="translate(-128.839 -544.897)" fill="#c7003c"/>
      <g id="Group_381" data-name="Group 381" clip-path="url(#clip-path-3)">
        <rect id="Rectangle_244" data-name="Rectangle 244" width="30.524" height="22.288" transform="translate(0 -0.169)" fill="#c7003c"/>
      </g>
    </g>
    <g id="Group_384" data-name="Group 384" transform="translate(164.556 540.427)">
      <path id="Path_654" data-name="Path 654" d="M128.6,539.939c.865-4.856,5.558-8.578,11.2-8.578s10.337,3.723,11.2,8.578a2.283,2.283,0,0,0-.726.444c-1.353-4.267-5.257-6.8-10.478-6.8s-9.129,2.535-10.48,6.8a2.267,2.267,0,0,0-.722-.442m-2.655.21a2.288,2.288,0,0,0-1.06,1.931v5.194a2.294,2.294,0,0,0,2.291,2.293l2.071-.006c1.28,6.681,5.817,10.484,10.555,10.484s7.489-2.252,9.316-6.4a11.235,11.235,0,0,1-6.252,2.3,1.449,1.449,0,0,1-1.206.643H140.34a1.45,1.45,0,1,1,0-2.9h1.324a1.452,1.452,0,0,1,1.152.57,9.09,9.09,0,0,0,7.548-4.686h2.067a2.291,2.291,0,0,0,2.291-2.293v-5.194a2.293,2.293,0,0,0-1.058-1.931c-.767-6.393-6.688-11.385-13.859-11.385s-13.094,4.991-13.857,11.385" transform="translate(-124.888 -528.765)" fill="#c7003c"/>
      <g id="Group_383" data-name="Group 383" clip-path="url(#clip-path-4)">
        <rect id="Rectangle_245" data-name="Rectangle 245" width="29.834" height="31.281" fill="#c7003c"/>
      </g>
    </g>
    <g id="Group_386" data-name="Group 386" transform="translate(83.85 572.153)">
      <path id="Path_656" data-name="Path 656" d="M110.82,545.4l-3.591,3.568-3.6-3.568a1.718,1.718,0,0,0-2.321-.1l-2.582,2.177-11.027,4.4c-3.55,1.414-3.548,13.988-3.853,15.143h21.216c.736-8.95,2.175-17.837,7.044-19.776l2.262-.9-1.233-1.036a1.714,1.714,0,0,0-2.319.1" transform="translate(-83.85 -544.897)" fill="#c7003c"/>
      <g id="Group_385" data-name="Group 385" clip-path="url(#clip-path-5)">
        <rect id="Rectangle_246" data-name="Rectangle 246" width="30.522" height="22.29" transform="translate(0 -0.169)" fill="#c7003c"/>
      </g>
    </g>
    <g id="Group_388" data-name="Group 388" transform="translate(92.312 540.427)">
      <path id="Path_658" data-name="Path 658" d="M91.866,539.939c.867-4.856,5.56-8.578,11.2-8.578s10.335,3.723,11.2,8.578a2.315,2.315,0,0,0-.728.444c-1.351-4.267-5.255-6.8-10.476-6.8s-9.127,2.535-10.48,6.8a2.277,2.277,0,0,0-.724-.442m-2.655.21a2.289,2.289,0,0,0-1.058,1.931v5.194a2.291,2.291,0,0,0,2.291,2.293l2.071-.006c1.278,6.681,5.817,10.484,10.555,10.484s7.487-2.252,9.314-6.4a11.241,11.241,0,0,1-6.252,2.3,1.446,1.446,0,0,1-1.206.643H103.6a1.45,1.45,0,0,1,0-2.9h1.324a1.449,1.449,0,0,1,1.152.57,9.09,9.09,0,0,0,7.55-4.686H115.7a2.291,2.291,0,0,0,2.291-2.293v-5.194a2.293,2.293,0,0,0-1.058-1.931c-.767-6.393-6.69-11.385-13.859-11.385s-13.094,4.991-13.859,11.385" transform="translate(-88.153 -528.765)" fill="#c7003c"/>
      <g id="Group_387" data-name="Group 387" clip-path="url(#clip-path-6)">
        <rect id="Rectangle_247" data-name="Rectangle 247" width="29.834" height="31.281" transform="translate(0)" fill="#c7003c"/>
      </g>
    </g>
  </g>
</svg>
