<svg xmlns="http://www.w3.org/2000/svg" xmlns:xlink="http://www.w3.org/1999/xlink" width="80.639" height="82.774" viewBox="0 0 80.639 82.774">
  <defs>
    <clipPath id="clip-path">
      <path id="Path_615" data-name="Path 615" d="M114.724,141.211a7.845,7.845,0,0,0-1.974,2.69,12.026,12.026,0,0,0-1.022,4.785l.553.446c1.135.915,3.212.288,5.087-1.361l5.616,4.337a1.931,1.931,0,1,0,2.363-3.054l-5.566-4.306c1.168-2.149,1.324-4.257.208-5.157l-.467-.376a8.392,8.392,0,0,0-4.8,2" transform="translate(-111.728 -139.216)" fill="#edb3af"/>
    </clipPath>
    <clipPath id="clip-path-2">
      <path id="Path_617" data-name="Path 617" d="M122.236,133.325a7.949,7.949,0,0,0-1.1,3.2,12.272,12.272,0,0,0,.467,4.861l.668.259c1.357.533,3.146-.695,4.44-2.831l6.664,2.455a1.931,1.931,0,1,0,1.337-3.623l-6.6-2.435c.467-2.4-.012-4.46-1.347-4.984l-.557-.222a8.475,8.475,0,0,0-3.967,3.317" transform="translate(-121.058 -130.008)" fill="#edb3af"/>
    </clipPath>
    <clipPath id="clip-path-3">
      <path id="Path_619" data-name="Path 619" d="M94.924,105.628c.14,1.059.317,2.116.533,3.156a2.213,2.213,0,0,0-.775,1.5c-1.633,15.515-3.232,29.357,5.439,42.882a4.449,4.449,0,0,0,1.4,4.917l11.31,9.144a2.756,2.756,0,0,0,.687,2.669l14.27,11.529c.6-6.962,5.137-8.992,7.68-9.564l-14.233-11.505a2.8,2.8,0,0,0-2.823-.088l-11.295-9.117a4.408,4.408,0,0,0-3.609-.9A38.081,38.081,0,0,1,98.233,135.1a23.48,23.48,0,0,0,13.14,12.186,4.442,4.442,0,0,0,2.817,4.164l13.534,5.332a2.742,2.742,0,0,0,1.46,2.342l17.065,6.72c-1.513-6.827,2.2-10.115,4.46-11.431L133.677,147.7a2.8,2.8,0,0,0-2.725.765l-13.5-5.315a4.427,4.427,0,0,0-3.792.273c-10.715-3.991-13.9-13.026-14.127-23.2A41.343,41.343,0,0,0,120.582,139.5a4.434,4.434,0,0,0,3.724,3.8l14.377,2.188a2.755,2.755,0,0,0,1.947,1.962l18.126,2.764c-2.99-6.319-.091-10.357,1.809-12.134l-18.091-2.755a2.788,2.788,0,0,0-2.484,1.347l-14.342-2.182a4.4,4.4,0,0,0-3.43.915,37.575,37.575,0,0,1-22.15-25.973c-.006-.041-.019-.082-.025-.113a34.365,34.365,0,0,1-.7-3.691,2.43,2.43,0,0,0-2.486-2.1,1.786,1.786,0,0,0-1.929,2.1" transform="translate(-93.394 -103.527)" fill="#edb3af"/>
    </clipPath>
    <clipPath id="clip-path-4">
      <path id="Path_621" data-name="Path 621" d="M127.4,125.535a7.9,7.9,0,0,0-.354,3.364,12.139,12.139,0,0,0,1.53,4.629l.707.107c1.435.212,2.908-1.374,3.7-3.744l7.039.915a1.935,1.935,0,0,0,.5-3.837l-6.975-.909c-.078-2.441-1.006-4.339-2.42-4.559l-.6-.084a8.505,8.505,0,0,0-3.136,4.117" transform="translate(-127.004 -121.418)" fill="#edb3af"/>
    </clipPath>
  </defs>
  <g id="Group_347" data-name="Group 347" transform="translate(-93.394 -103.527)">
    <g id="Group_340" data-name="Group 340" transform="translate(129.085 173.004)">
      <path id="Path_614" data-name="Path 614" d="M114.724,141.211a7.845,7.845,0,0,0-1.974,2.69,12.026,12.026,0,0,0-1.022,4.785l.553.446c1.135.915,3.212.288,5.087-1.361l5.616,4.337a1.931,1.931,0,1,0,2.363-3.054l-5.566-4.306c1.168-2.149,1.324-4.257.208-5.157l-.467-.376a8.392,8.392,0,0,0-4.8,2" transform="translate(-111.728 -139.216)" fill="#edb3af"/>
      <g id="Group_339" data-name="Group 339" clip-path="url(#clip-path)">
        <rect id="Rectangle_225" data-name="Rectangle 225" width="14.622" height="13.549" fill="#edb3af"/>
      </g>
    </g>
    <g id="Group_342" data-name="Group 342" transform="translate(147.248 155.078)">
      <path id="Path_616" data-name="Path 616" d="M122.236,133.325a7.949,7.949,0,0,0-1.1,3.2,12.272,12.272,0,0,0,.467,4.861l.668.259c1.357.533,3.146-.695,4.44-2.831l6.664,2.455a1.931,1.931,0,1,0,1.337-3.623l-6.6-2.435c.467-2.4-.012-4.46-1.347-4.984l-.557-.222a8.475,8.475,0,0,0-3.967,3.317" transform="translate(-121.058 -130.008)" fill="#edb3af"/>
      <g id="Group_341" data-name="Group 341" clip-path="url(#clip-path-2)">
        <rect id="Rectangle_226" data-name="Rectangle 226" width="15.256" height="12.173" transform="translate(-0.091)" fill="#edb3af"/>
      </g>
    </g>
    <g id="Group_344" data-name="Group 344" transform="translate(93.394 103.527)">
      <path id="Path_618" data-name="Path 618" d="M94.924,105.628c.14,1.059.317,2.116.533,3.156a2.213,2.213,0,0,0-.775,1.5c-1.633,15.515-3.232,29.357,5.439,42.882a4.449,4.449,0,0,0,1.4,4.917l11.31,9.144a2.756,2.756,0,0,0,.687,2.669l14.27,11.529c.6-6.962,5.137-8.992,7.68-9.564l-14.233-11.505a2.8,2.8,0,0,0-2.823-.088l-11.295-9.117a4.408,4.408,0,0,0-3.609-.9A38.081,38.081,0,0,1,98.233,135.1a23.48,23.48,0,0,0,13.14,12.186,4.442,4.442,0,0,0,2.817,4.164l13.534,5.332a2.742,2.742,0,0,0,1.46,2.342l17.065,6.72c-1.513-6.827,2.2-10.115,4.46-11.431L133.677,147.7a2.8,2.8,0,0,0-2.725.765l-13.5-5.315a4.427,4.427,0,0,0-3.792.273c-10.715-3.991-13.9-13.026-14.127-23.2A41.343,41.343,0,0,0,120.582,139.5a4.434,4.434,0,0,0,3.724,3.8l14.377,2.188a2.755,2.755,0,0,0,1.947,1.962l18.126,2.764c-2.99-6.319-.091-10.357,1.809-12.134l-18.091-2.755a2.788,2.788,0,0,0-2.484,1.347l-14.342-2.182a4.4,4.4,0,0,0-3.43.915,37.575,37.575,0,0,1-22.15-25.973c-.006-.041-.019-.082-.025-.113a34.365,34.365,0,0,1-.7-3.691,2.43,2.43,0,0,0-2.486-2.1,1.786,1.786,0,0,0-1.929,2.1" transform="translate(-93.394 -103.527)" fill="#edb3af"/>
      <g id="Group_343" data-name="Group 343" clip-path="url(#clip-path-3)">
        <rect id="Rectangle_227" data-name="Rectangle 227" width="69.113" height="77.9" transform="translate(-1.943 0)" fill="#edb3af"/>
      </g>
    </g>
    <g id="Group_346" data-name="Group 346" transform="translate(158.824 138.356)">
      <path id="Path_620" data-name="Path 620" d="M127.4,125.535a7.9,7.9,0,0,0-.354,3.364,12.139,12.139,0,0,0,1.53,4.629l.707.107c1.435.212,2.908-1.374,3.7-3.744l7.039.915a1.935,1.935,0,0,0,.5-3.837l-6.975-.909c-.078-2.441-1.006-4.339-2.42-4.559l-.6-.084a8.505,8.505,0,0,0-3.136,4.117" transform="translate(-127.004 -121.418)" fill="#edb3af"/>
      <g id="Group_345" data-name="Group 345" clip-path="url(#clip-path-4)">
        <rect id="Rectangle_228" data-name="Rectangle 228" width="15.41" height="12.43" transform="translate(-0.082 0)" fill="#edb3af"/>
      </g>
    </g>
  </g>
</svg>
