<svg xmlns="http://www.w3.org/2000/svg" xmlns:xlink="http://www.w3.org/1999/xlink" width="83.639" height="89.281" viewBox="0 0 83.639 89.281">
  <defs>
    <clipPath id="clip-path">
      <path id="Path_545" data-name="Path 545" d="M115.973,211.221l-.008,5.107H155.6V268.88H115.973v7.91h45.619V211.221Z" transform="translate(-115.965 -211.221)" fill="#c7003c"/>
    </clipPath>
    <clipPath id="clip-path-2">
      <rect id="Rectangle_178" data-name="Rectangle 178" width="12.521" height="4.265" fill="#c7003c"/>
    </clipPath>
    <clipPath id="clip-path-3">
      <path id="Path_547" data-name="Path 547" d="M103.793,236.83a5.31,5.31,0,1,0,5.31-5.317,5.314,5.314,0,0,0-5.31,5.317" transform="translate(-103.793 -231.513)" fill="#c7003c"/>
    </clipPath>
    <clipPath id="clip-path-4">
      <rect id="Rectangle_182" data-name="Rectangle 182" width="10.618" height="2.734" fill="#c7003c"/>
    </clipPath>
    <clipPath id="clip-path-5">
      <path id="Path_549" data-name="Path 549" d="M108.489,266.584a7.136,7.136,0,1,1,7.137,7.135,7.142,7.142,0,0,1-7.137-7.135m0-29.757h14.272V243.2H108.489Zm-5.384-27.555h25.957v7.511H103.105Zm-5.243,84.466h35.525V204.457H97.862Z" transform="translate(-97.862 -204.457)" fill="#c7003c"/>
    </clipPath>
  </defs>
  <g id="Group_261" data-name="Group 261" transform="translate(-97.862 -204.457)">
    <g id="Group_252" data-name="Group 252" transform="translate(135.874 218.66)">
      <path id="Path_544" data-name="Path 544" d="M115.973,211.221l-.008,5.107H155.6V268.88H115.973v7.91h45.619V211.221Z" transform="translate(-115.965 -211.221)" fill="#c7003c"/>
      <g id="Group_251" data-name="Group 251" clip-path="url(#clip-path)">
        <rect id="Rectangle_175" data-name="Rectangle 175" width="45.627" height="65.568" transform="translate(0 0)" fill="#c7003c"/>
      </g>
    </g>
    <g id="Group_254" data-name="Group 254" transform="translate(135.882 288.194)">
      <rect id="Rectangle_176" data-name="Rectangle 176" width="12.521" height="4.265" fill="#c7003c"/>
      <g id="Group_253" data-name="Group 253" clip-path="url(#clip-path-2)">
        <rect id="Rectangle_177" data-name="Rectangle 177" width="12.521" height="4.265" transform="translate(0)" fill="#c7003c"/>
      </g>
    </g>
    <g id="Group_256" data-name="Group 256" transform="translate(110.316 261.267)">
      <path id="Path_546" data-name="Path 546" d="M103.793,236.83a5.31,5.31,0,1,0,5.31-5.317,5.314,5.314,0,0,0-5.31,5.317" transform="translate(-103.793 -231.513)" fill="#c7003c"/>
      <g id="Group_255" data-name="Group 255" clip-path="url(#clip-path-3)">
        <rect id="Rectangle_179" data-name="Rectangle 179" width="10.62" height="10.627" transform="translate(0)" fill="#c7003c"/>
      </g>
    </g>
    <g id="Group_258" data-name="Group 258" transform="translate(110.316 238.645)">
      <rect id="Rectangle_180" data-name="Rectangle 180" width="10.618" height="2.734" fill="#c7003c"/>
      <g id="Group_257" data-name="Group 257" clip-path="url(#clip-path-4)">
        <rect id="Rectangle_181" data-name="Rectangle 181" width="10.618" height="2.734" transform="translate(0)" fill="#c7003c"/>
      </g>
    </g>
    <g id="Group_260" data-name="Group 260" transform="translate(97.862 204.457)">
      <path id="Path_548" data-name="Path 548" d="M108.489,266.584a7.136,7.136,0,1,1,7.137,7.135,7.142,7.142,0,0,1-7.137-7.135m0-29.757h14.272V243.2H108.489Zm-5.384-27.555h25.957v7.511H103.105Zm-5.243,84.466h35.525V204.457H97.862Z" transform="translate(-97.862 -204.457)" fill="#c7003c"/>
      <g id="Group_259" data-name="Group 259" clip-path="url(#clip-path-5)">
        <rect id="Rectangle_183" data-name="Rectangle 183" width="35.525" height="89.281" transform="translate(0 0)" fill="#c7003c"/>
      </g>
    </g>
  </g>
</svg>
