<svg xmlns="http://www.w3.org/2000/svg" xmlns:xlink="http://www.w3.org/1999/xlink" width="83.639" height="80.049" viewBox="0 0 83.639 80.049">
  <defs>
    <clipPath id="clip-path">
      <path id="Path_565" data-name="Path 565" d="M265.824,520.11a2.395,2.395,0,1,1,2.393,2.4,2.414,2.414,0,0,1-2.393-2.4M236.3,477.951a3.171,3.171,0,0,1,.552,0l34.247,6.856a2.871,2.871,0,0,1-.565,5.687,3.878,3.878,0,0,1-.569-.062L236.3,483.706v3.182a2.161,2.161,0,0,1,.459-.015l34.232,5.578a2.871,2.871,0,0,1-.457,5.706,4.451,4.451,0,0,1-.459-.032l-33.791-5.516v2.534a1.933,1.933,0,0,1,.429-.013l34.228,4.98a2.868,2.868,0,0,1-.407,5.706,1.769,1.769,0,0,1-.41-.032l-33.84-4.919v2.9a2.475,2.475,0,0,1,.348-.032l34.233,4.018a2.879,2.879,0,0,1-.331,5.738,3.151,3.151,0,0,1-.329-.028l-33.921-3.974V549.33H274.6V480.359L236.3,472.7Z" transform="translate(-236.286 -472.702)" fill="#c7003c"/>
    </clipPath>
    <clipPath id="clip-path-2">
      <path id="Path_567" data-name="Path 567" d="M218.992,488.023v25.216c.708-.032,1.4-.066,2.1-.066,9.029,0,18.753,3.091,18.753,9.855v23.777a6.687,6.687,0,0,1-.5,2.525h10.309V472.7Z" transform="translate(-218.992 -472.702)" fill="#c7003c"/>
    </clipPath>
    <clipPath id="clip-path-3">
      <path id="Path_569" data-name="Path 569" d="M227.075,510.12c-8.214,0-14.865-2.664-14.865-5.957v5.957c0,3.278,6.651,5.942,14.865,5.942s14.859-2.664,14.859-5.942v-5.957c0,3.293-6.649,5.957-14.859,5.957" transform="translate(-212.21 -504.163)" fill="#c7003c"/>
    </clipPath>
    <clipPath id="clip-path-4">
      <path id="Path_571" data-name="Path 571" d="M227.075,514.848c-8.214,0-14.865-2.66-14.865-5.938v5.938c0,3.281,6.651,5.945,14.865,5.945s14.859-2.664,14.859-5.945V508.91c0,3.278-6.649,5.938-14.859,5.938" transform="translate(-212.21 -508.91)" fill="#c7003c"/>
    </clipPath>
    <clipPath id="clip-path-5">
      <path id="Path_573" data-name="Path 573" d="M213.692,502.228c0-1.83,5.217-4.464,13.384-4.464s13.378,2.634,13.378,4.464c0,1.809-5.217,4.456-13.378,4.456s-13.384-2.647-13.384-4.456m-1.482,0v5.936c0,3.3,6.651,5.945,14.865,5.945s14.859-2.647,14.859-5.945v-5.936c0-3.3-6.649-5.96-14.859-5.96s-14.865,2.662-14.865,5.96" transform="translate(-212.21 -496.268)" fill="#c7003c"/>
    </clipPath>
  </defs>
  <g id="Group_288" data-name="Group 288" transform="translate(-212.21 -472.702)">
    <g id="Group_279" data-name="Group 279" transform="translate(257.536 472.702)">
      <path id="Path_564" data-name="Path 564" d="M265.824,520.11a2.395,2.395,0,1,1,2.393,2.4,2.414,2.414,0,0,1-2.393-2.4M236.3,477.951a3.171,3.171,0,0,1,.552,0l34.247,6.856a2.871,2.871,0,0,1-.565,5.687,3.878,3.878,0,0,1-.569-.062L236.3,483.706v3.182a2.161,2.161,0,0,1,.459-.015l34.232,5.578a2.871,2.871,0,0,1-.457,5.706,4.451,4.451,0,0,1-.459-.032l-33.791-5.516v2.534a1.933,1.933,0,0,1,.429-.013l34.228,4.98a2.868,2.868,0,0,1-.407,5.706,1.769,1.769,0,0,1-.41-.032l-33.84-4.919v2.9a2.475,2.475,0,0,1,.348-.032l34.233,4.018a2.879,2.879,0,0,1-.331,5.738,3.151,3.151,0,0,1-.329-.028l-33.921-3.974V549.33H274.6V480.359L236.3,472.7Z" transform="translate(-236.286 -472.702)" fill="#c7003c"/>
      <g id="Group_278" data-name="Group 278" clip-path="url(#clip-path)">
        <rect id="Rectangle_191" data-name="Rectangle 191" width="38.313" height="76.628" transform="translate(0)" fill="#c7003c"/>
      </g>
    </g>
    <g id="Group_281" data-name="Group 281" transform="translate(224.978 472.702)">
      <path id="Path_566" data-name="Path 566" d="M218.992,488.023v25.216c.708-.032,1.4-.066,2.1-.066,9.029,0,18.753,3.091,18.753,9.855v23.777a6.687,6.687,0,0,1-.5,2.525h10.309V472.7Z" transform="translate(-218.992 -472.702)" fill="#c7003c"/>
      <g id="Group_280" data-name="Group 280" clip-path="url(#clip-path-2)">
        <rect id="Rectangle_192" data-name="Rectangle 192" width="30.655" height="76.628" transform="translate(0 0)" fill="#c7003c"/>
      </g>
    </g>
    <g id="Group_283" data-name="Group 283" transform="translate(212.21 531.931)">
      <path id="Path_568" data-name="Path 568" d="M227.075,510.12c-8.214,0-14.865-2.664-14.865-5.957v5.957c0,3.278,6.651,5.942,14.865,5.942s14.859-2.664,14.859-5.942v-5.957c0,3.293-6.649,5.957-14.859,5.957" transform="translate(-212.21 -504.163)" fill="#c7003c"/>
      <g id="Group_282" data-name="Group 282" clip-path="url(#clip-path-3)">
        <rect id="Rectangle_193" data-name="Rectangle 193" width="29.725" height="11.898" transform="translate(0)" fill="#c7003c"/>
      </g>
    </g>
    <g id="Group_285" data-name="Group 285" transform="translate(212.21 540.868)">
      <path id="Path_570" data-name="Path 570" d="M227.075,514.848c-8.214,0-14.865-2.66-14.865-5.938v5.938c0,3.281,6.651,5.945,14.865,5.945s14.859-2.664,14.859-5.945V508.91c0,3.278-6.649,5.938-14.859,5.938" transform="translate(-212.21 -508.91)" fill="#c7003c"/>
      <g id="Group_284" data-name="Group 284" clip-path="url(#clip-path-4)">
        <rect id="Rectangle_194" data-name="Rectangle 194" width="29.725" height="11.883" transform="translate(0 0)" fill="#c7003c"/>
      </g>
    </g>
    <g id="Group_287" data-name="Group 287" transform="translate(212.21 517.068)">
      <path id="Path_572" data-name="Path 572" d="M213.692,502.228c0-1.83,5.217-4.464,13.384-4.464s13.378,2.634,13.378,4.464c0,1.809-5.217,4.456-13.378,4.456s-13.384-2.647-13.384-4.456m-1.482,0v5.936c0,3.3,6.651,5.945,14.865,5.945s14.859-2.647,14.859-5.945v-5.936c0-3.3-6.649-5.96-14.859-5.96s-14.865,2.662-14.865,5.96" transform="translate(-212.21 -496.268)" fill="#c7003c"/>
      <g id="Group_286" data-name="Group 286" clip-path="url(#clip-path-5)">
        <rect id="Rectangle_195" data-name="Rectangle 195" width="29.725" height="17.842" transform="translate(0)" fill="#c7003c"/>
      </g>
    </g>
  </g>
</svg>
