<svg xmlns="http://www.w3.org/2000/svg" xmlns:xlink="http://www.w3.org/1999/xlink" width="84.893" height="84.869" viewBox="0 0 84.893 84.869">
  <defs>
    <clipPath id="clip-path">
      <path id="Path_591" data-name="Path 591" d="M217.113,614.811a6.582,6.582,0,1,0,6.579-6.579,6.57,6.57,0,0,0-6.579,6.579" transform="translate(-217.113 -608.232)" fill="#c7003c"/>
    </clipPath>
    <clipPath id="clip-path-2">
      <path id="Path_593" data-name="Path 593" d="M217.113,650.748a6.582,6.582,0,1,0,6.579-6.579,6.569,6.569,0,0,0-6.579,6.579" transform="translate(-217.113 -644.169)" fill="#c7003c"/>
    </clipPath>
    <clipPath id="clip-path-3">
      <path id="Path_595" data-name="Path 595" d="M235.086,632.776a6.582,6.582,0,1,0,6.579-6.581,6.575,6.575,0,0,0-6.579,6.581" transform="translate(-235.086 -626.195)" fill="#c7003c"/>
    </clipPath>
    <clipPath id="clip-path-4">
      <path id="Path_597" data-name="Path 597" d="M199.149,632.776a6.582,6.582,0,1,0,6.581-6.581,6.575,6.575,0,0,0-6.581,6.581" transform="translate(-199.149 -626.195)" fill="#c7003c"/>
    </clipPath>
    <clipPath id="clip-path-5">
      <path id="Path_599" data-name="Path 599" d="M231.355,620.731H233.2v9.375a13.224,13.224,0,0,0-7.77,3.146l-6.6-6.577,1.315-1.3-5.445-1.585,1.585,5.441,1.317-1.315,6.547,6.565a13.255,13.255,0,0,0-3.345,7.79h-9.16v-1.836l-4.96,2.724,4.96,2.723v-1.834h9.108a13.329,13.329,0,0,0,3.182,7.986l-6.349,6.369-1.3-1.3-1.585,5.427,5.445-1.567-1.315-1.315,6.329-6.333a13.247,13.247,0,0,0,8.04,3.363V665.6h-1.848l2.719,4.946L236.8,665.6h-1.83v-8.928a13.127,13.127,0,0,0,8-3.363l6.351,6.333-1.3,1.3,5.421,1.585-1.579-5.427-1.3,1.3-6.363-6.351a13.192,13.192,0,0,0,3.18-8h9.146v1.834l4.96-2.723-4.96-2.724v1.854h-9.179A13.346,13.346,0,0,0,244,634.481l6.561-6.565,1.3,1.315,1.579-5.441-5.421,1.585,1.3,1.3-6.6,6.595a13.124,13.124,0,0,0-7.754-3.164v-9.375h1.83l-2.723-4.962Z" transform="translate(-206.689 -615.769)" fill="#c7003c"/>
    </clipPath>
    <clipPath id="clip-path-6">
      <path id="Path_601" data-name="Path 601" d="M229.819,620.064A6.582,6.582,0,1,0,236.4,613.5a6.59,6.59,0,0,0-6.583,6.567" transform="translate(-229.819 -613.497)" fill="#c7003c"/>
    </clipPath>
    <clipPath id="clip-path-7">
      <path id="Path_603" data-name="Path 603" d="M204.416,645.48a6.571,6.571,0,1,0,6.563-6.579,6.577,6.577,0,0,0-6.563,6.579" transform="translate(-204.416 -638.901)" fill="#c7003c"/>
    </clipPath>
    <clipPath id="clip-path-8">
      <path id="Path_605" data-name="Path 605" d="M229.819,645.48A6.582,6.582,0,1,0,236.4,638.9a6.594,6.594,0,0,0-6.583,6.579" transform="translate(-229.819 -638.901)" fill="#c7003c"/>
    </clipPath>
    <clipPath id="clip-path-9">
      <path id="Path_607" data-name="Path 607" d="M204.408,620.074a6.579,6.579,0,1,0,6.579-6.587,6.575,6.575,0,0,0-6.579,6.587" transform="translate(-204.408 -613.487)" fill="#c7003c"/>
    </clipPath>
  </defs>
  <g id="Group_331" data-name="Group 331" transform="translate(-199.149 -608.232)">
    <g id="Group_314" data-name="Group 314" transform="translate(235.005 608.232)">
      <path id="Path_590" data-name="Path 590" d="M217.113,614.811a6.582,6.582,0,1,0,6.579-6.579,6.57,6.57,0,0,0-6.579,6.579" transform="translate(-217.113 -608.232)" fill="#c7003c"/>
      <g id="Group_313" data-name="Group 313" clip-path="url(#clip-path)">
        <rect id="Rectangle_213" data-name="Rectangle 213" width="13.163" height="13.141" transform="translate(0)" fill="#c7003c"/>
      </g>
    </g>
    <g id="Group_316" data-name="Group 316" transform="translate(235.005 679.961)">
      <path id="Path_592" data-name="Path 592" d="M217.113,650.748a6.582,6.582,0,1,0,6.579-6.579,6.569,6.569,0,0,0-6.579,6.579" transform="translate(-217.113 -644.169)" fill="#c7003c"/>
      <g id="Group_315" data-name="Group 315" clip-path="url(#clip-path-2)">
        <rect id="Rectangle_214" data-name="Rectangle 214" width="13.163" height="13.139" transform="translate(0)" fill="#c7003c"/>
      </g>
    </g>
    <g id="Group_318" data-name="Group 318" transform="translate(270.878 644.086)">
      <path id="Path_594" data-name="Path 594" d="M235.086,632.776a6.582,6.582,0,1,0,6.579-6.581,6.575,6.575,0,0,0-6.579,6.581" transform="translate(-235.086 -626.195)" fill="#c7003c"/>
      <g id="Group_317" data-name="Group 317" clip-path="url(#clip-path-3)">
        <rect id="Rectangle_215" data-name="Rectangle 215" width="13.163" height="13.161" fill="#c7003c"/>
      </g>
    </g>
    <g id="Group_320" data-name="Group 320" transform="translate(199.149 644.086)">
      <path id="Path_596" data-name="Path 596" d="M199.149,632.776a6.582,6.582,0,1,0,6.581-6.581,6.575,6.575,0,0,0-6.581,6.581" transform="translate(-199.149 -626.195)" fill="#c7003c"/>
      <g id="Group_319" data-name="Group 319" clip-path="url(#clip-path-4)">
        <rect id="Rectangle_216" data-name="Rectangle 216" width="13.163" height="13.161" transform="translate(0)" fill="#c7003c"/>
      </g>
    </g>
    <g id="Group_322" data-name="Group 322" transform="translate(214.199 623.276)">
      <path id="Path_598" data-name="Path 598" d="M231.355,620.731H233.2v9.375a13.224,13.224,0,0,0-7.77,3.146l-6.6-6.577,1.315-1.3-5.445-1.585,1.585,5.441,1.317-1.315,6.547,6.565a13.255,13.255,0,0,0-3.345,7.79h-9.16v-1.836l-4.96,2.724,4.96,2.723v-1.834h9.108a13.329,13.329,0,0,0,3.182,7.986l-6.349,6.369-1.3-1.3-1.585,5.427,5.445-1.567-1.315-1.315,6.329-6.333a13.247,13.247,0,0,0,8.04,3.363V665.6h-1.848l2.719,4.946L236.8,665.6h-1.83v-8.928a13.127,13.127,0,0,0,8-3.363l6.351,6.333-1.3,1.3,5.421,1.585-1.579-5.427-1.3,1.3-6.363-6.351a13.192,13.192,0,0,0,3.18-8h9.146v1.834l4.96-2.723-4.96-2.724v1.854h-9.179A13.346,13.346,0,0,0,244,634.481l6.561-6.565,1.3,1.315,1.579-5.441-5.421,1.585,1.3,1.3-6.6,6.595a13.124,13.124,0,0,0-7.754-3.164v-9.375h1.83l-2.723-4.962Z" transform="translate(-206.689 -615.769)" fill="#c7003c"/>
      <g id="Group_321" data-name="Group 321" clip-path="url(#clip-path-5)">
        <rect id="Rectangle_217" data-name="Rectangle 217" width="54.794" height="54.782" transform="translate(0)" fill="#c7003c"/>
      </g>
    </g>
    <g id="Group_324" data-name="Group 324" transform="translate(260.366 618.741)">
      <path id="Path_600" data-name="Path 600" d="M229.819,620.064A6.582,6.582,0,1,0,236.4,613.5a6.59,6.59,0,0,0-6.583,6.567" transform="translate(-229.819 -613.497)" fill="#c7003c"/>
      <g id="Group_323" data-name="Group 323" clip-path="url(#clip-path-6)">
        <rect id="Rectangle_218" data-name="Rectangle 218" width="13.163" height="13.143" transform="translate(0)" fill="#c7003c"/>
      </g>
    </g>
    <g id="Group_326" data-name="Group 326" transform="translate(209.662 669.447)">
      <path id="Path_602" data-name="Path 602" d="M204.416,645.48a6.571,6.571,0,1,0,6.563-6.579,6.577,6.577,0,0,0-6.563,6.579" transform="translate(-204.416 -638.901)" fill="#c7003c"/>
      <g id="Group_325" data-name="Group 325" clip-path="url(#clip-path-7)">
        <rect id="Rectangle_219" data-name="Rectangle 219" width="13.141" height="13.165" fill="#c7003c"/>
      </g>
    </g>
    <g id="Group_328" data-name="Group 328" transform="translate(260.366 669.447)">
      <path id="Path_604" data-name="Path 604" d="M229.819,645.48A6.582,6.582,0,1,0,236.4,638.9a6.594,6.594,0,0,0-6.583,6.579" transform="translate(-229.819 -638.901)" fill="#c7003c"/>
      <g id="Group_327" data-name="Group 327" clip-path="url(#clip-path-8)">
        <rect id="Rectangle_220" data-name="Rectangle 220" width="13.163" height="13.165" transform="translate(0)" fill="#c7003c"/>
      </g>
    </g>
    <g id="Group_330" data-name="Group 330" transform="translate(209.646 618.721)">
      <path id="Path_606" data-name="Path 606" d="M204.408,620.074a6.579,6.579,0,1,0,6.579-6.587,6.575,6.575,0,0,0-6.579,6.587" transform="translate(-204.408 -613.487)" fill="#c7003c"/>
      <g id="Group_329" data-name="Group 329" clip-path="url(#clip-path-9)">
        <rect id="Rectangle_221" data-name="Rectangle 221" width="13.157" height="13.163" fill="#c7003c"/>
      </g>
    </g>
  </g>
</svg>
