<svg xmlns="http://www.w3.org/2000/svg" xmlns:xlink="http://www.w3.org/1999/xlink" width="73.879" height="74.513" viewBox="0 0 73.879 74.513">
  <defs>
    <clipPath id="clip-path">
      <path id="Path_609" data-name="Path 609" d="M375.592,609.1a21.047,21.047,0,0,1,5.962,3.768c.889-.056,1.816-.088,2.781-.088,9.985,0,16.1,3.284,16.1,5.073,0,1.724-5.676,4.835-15.022,5.061V627.7l-.075.38a10.583,10.583,0,0,1-1.179,3.1c.056.105.105.209.156.316h.021c5.391,0,11.023-.978,15.059-2.872.678.538,1.041,1.055,1.041,1.486,0,1.726-5.7,4.847-15.069,5.063.028.31.047.62.047.932v6.582l-.075.379c-.047.226-.105.448-.165.668a36.656,36.656,0,0,0,14.221-2.863c.678.54,1.041,1.057,1.041,1.488,0,1.765-5.951,4.987-15.7,5.072a10.218,10.218,0,0,1,.68,3.661v4.887a36.468,36.468,0,0,0,13.981-2.858c.678.538,1.041,1.057,1.041,1.488,0,1.759-5.9,4.959-15.577,5.07a10.849,10.849,0,0,1-.7,1.472,10.365,10.365,0,0,1,1.255,4.926v2.152c9.056-.217,18.455-3.146,19.571-8.555V654.6a5.839,5.839,0,0,0-1.761-4.071,6.282,6.282,0,0,0,1.761-3.112v-5.065a5.842,5.842,0,0,0-1.761-4.071,6.3,6.3,0,0,0,1.761-3.114V630.1a5.845,5.845,0,0,0-1.761-4.071,6.287,6.287,0,0,0,1.761-3.114v-5.065c0-6.251-10.639-9.622-20.649-9.622a43.744,43.744,0,0,0-8.743.869" transform="translate(-375.592 -608.232)" fill="#c7003c"/>
    </clipPath>
    <clipPath id="clip-path-2">
      <path id="Path_611" data-name="Path 611" d="M355.772,665.591c0-.529.443-1.165,1.278-1.826,4.933,2.324,11.82,3.519,18.418,3.519s13.483-1.2,18.42-3.515c.829.661,1.272,1.295,1.272,1.823,0,2.187-7.478,6.207-19.692,6.207s-19.7-4.02-19.7-6.207m0-14.985c0-.529.443-1.164,1.278-1.823,4.933,2.322,11.82,3.517,18.418,3.517s13.483-1.2,18.42-3.514c.829.659,1.272,1.292,1.272,1.819,0,2.187-7.478,6.209-19.692,6.209s-19.7-4.022-19.7-6.209m0-14.985c0-.527.443-1.164,1.278-1.823,4.933,2.322,11.82,3.517,18.418,3.517s13.483-1.193,18.42-3.514c.829.659,1.272,1.293,1.272,1.819,0,2.189-7.478,6.209-19.692,6.209s-19.7-4.02-19.7-6.209m0-14.983c0-2.189,7.478-6.207,19.7-6.207s19.692,4.018,19.692,6.207-7.478,6.209-19.692,6.209-19.7-4.02-19.7-6.209m-5.566,0,.007,6.065.014.128a7.688,7.688,0,0,0,2.14,3.8,7.156,7.156,0,0,0-2.161,4.991l.007,6.067.014.128a7.694,7.694,0,0,0,2.14,3.8,7.153,7.153,0,0,0-2.161,4.991l.007,6.067.014.128a7.689,7.689,0,0,0,2.14,3.8,7.157,7.157,0,0,0-2.161,4.993l.007,6.065.014.128c1.419,6.883,13.772,10.483,25.24,10.483s23.836-3.6,25.259-10.483l0-6.193a7.147,7.147,0,0,0-2.154-4.98,7.705,7.705,0,0,0,2.155-3.81l0-6.195a7.149,7.149,0,0,0-2.154-4.98,7.7,7.7,0,0,0,2.155-3.81l0-6.195a7.149,7.149,0,0,0-2.154-4.979,7.7,7.7,0,0,0,2.155-3.81l0-6.195c0-7.648-13.014-11.771-25.258-11.771s-25.261,4.123-25.261,11.773" transform="translate(-350.206 -608.867)" fill="#c7003c"/>
    </clipPath>
  </defs>
  <g id="Group_336" data-name="Group 336" transform="translate(-350.206 -608.232)">
    <g id="Group_333" data-name="Group 333" transform="translate(394.693 608.232)">
      <path id="Path_608" data-name="Path 608" d="M375.592,609.1a21.047,21.047,0,0,1,5.962,3.768c.889-.056,1.816-.088,2.781-.088,9.985,0,16.1,3.284,16.1,5.073,0,1.724-5.676,4.835-15.022,5.061V627.7l-.075.38a10.583,10.583,0,0,1-1.179,3.1c.056.105.105.209.156.316h.021c5.391,0,11.023-.978,15.059-2.872.678.538,1.041,1.055,1.041,1.486,0,1.726-5.7,4.847-15.069,5.063.028.31.047.62.047.932v6.582l-.075.379c-.047.226-.105.448-.165.668a36.656,36.656,0,0,0,14.221-2.863c.678.54,1.041,1.057,1.041,1.488,0,1.765-5.951,4.987-15.7,5.072a10.218,10.218,0,0,1,.68,3.661v4.887a36.468,36.468,0,0,0,13.981-2.858c.678.538,1.041,1.057,1.041,1.488,0,1.759-5.9,4.959-15.577,5.07a10.849,10.849,0,0,1-.7,1.472,10.365,10.365,0,0,1,1.255,4.926v2.152c9.056-.217,18.455-3.146,19.571-8.555V654.6a5.839,5.839,0,0,0-1.761-4.071,6.282,6.282,0,0,0,1.761-3.112v-5.065a5.842,5.842,0,0,0-1.761-4.071,6.3,6.3,0,0,0,1.761-3.114V630.1a5.845,5.845,0,0,0-1.761-4.071,6.287,6.287,0,0,0,1.761-3.114v-5.065c0-6.251-10.639-9.622-20.649-9.622a43.744,43.744,0,0,0-8.743.869" transform="translate(-375.592 -608.232)" fill="#c7003c"/>
      <g id="Group_332" data-name="Group 332" clip-path="url(#clip-path)">
        <rect id="Rectangle_222" data-name="Rectangle 222" width="29.392" height="59.989" fill="#c7003c"/>
      </g>
    </g>
    <g id="Group_335" data-name="Group 335" transform="translate(350.206 609.345)">
      <path id="Path_610" data-name="Path 610" d="M355.772,665.591c0-.529.443-1.165,1.278-1.826,4.933,2.324,11.82,3.519,18.418,3.519s13.483-1.2,18.42-3.515c.829.661,1.272,1.295,1.272,1.823,0,2.187-7.478,6.207-19.692,6.207s-19.7-4.02-19.7-6.207m0-14.985c0-.529.443-1.164,1.278-1.823,4.933,2.322,11.82,3.517,18.418,3.517s13.483-1.2,18.42-3.514c.829.659,1.272,1.292,1.272,1.819,0,2.187-7.478,6.209-19.692,6.209s-19.7-4.022-19.7-6.209m0-14.985c0-.527.443-1.164,1.278-1.823,4.933,2.322,11.82,3.517,18.418,3.517s13.483-1.193,18.42-3.514c.829.659,1.272,1.293,1.272,1.819,0,2.189-7.478,6.209-19.692,6.209s-19.7-4.02-19.7-6.209m0-14.983c0-2.189,7.478-6.207,19.7-6.207s19.692,4.018,19.692,6.207-7.478,6.209-19.692,6.209-19.7-4.02-19.7-6.209m-5.566,0,.007,6.065.014.128a7.688,7.688,0,0,0,2.14,3.8,7.156,7.156,0,0,0-2.161,4.991l.007,6.067.014.128a7.694,7.694,0,0,0,2.14,3.8,7.153,7.153,0,0,0-2.161,4.991l.007,6.067.014.128a7.689,7.689,0,0,0,2.14,3.8,7.157,7.157,0,0,0-2.161,4.993l.007,6.065.014.128c1.419,6.883,13.772,10.483,25.24,10.483s23.836-3.6,25.259-10.483l0-6.193a7.147,7.147,0,0,0-2.154-4.98,7.705,7.705,0,0,0,2.155-3.81l0-6.195a7.149,7.149,0,0,0-2.154-4.98,7.7,7.7,0,0,0,2.155-3.81l0-6.195a7.149,7.149,0,0,0-2.154-4.979,7.7,7.7,0,0,0,2.155-3.81l0-6.195c0-7.648-13.014-11.771-25.258-11.771s-25.261,4.123-25.261,11.773" transform="translate(-350.206 -608.867)" fill="#c7003c"/>
      <g id="Group_334" data-name="Group 334" clip-path="url(#clip-path-2)">
        <rect id="Rectangle_223" data-name="Rectangle 223" width="50.521" height="73.4" fill="#c7003c"/>
      </g>
    </g>
  </g>
</svg>
