<svg xmlns="http://www.w3.org/2000/svg" width="65" height="52" viewBox="0 0 65 52">
  <g id="Group_993" data-name="Group 993" transform="translate(-1615 -46)">
    <rect id="Rectangle_169" data-name="Rectangle 169" width="65" height="52" rx="26" transform="translate(1615 46)" fill="#fff"/>
    <g id="Group_202" data-name="Group 202" transform="translate(1633.881 57.301)">
      <path id="Path_353" data-name="Path 353" d="M27.421,22.832l-6.155-6.173a11.145,11.145,0,0,0,1.346-5.384A11.306,11.306,0,1,0,11.306,22.581h0a11.167,11.167,0,0,0,5.8-1.615l6.083,6.083a2.494,2.494,0,0,0,3.526.063l.063-.063.718-.718A2.513,2.513,0,0,0,27.421,22.832ZM11.27,18.795a7.447,7.447,0,1,1,.036,0Z" transform="translate(0 0.03)" fill="#c7023c"/>
    </g>
  </g>
</svg>
