<svg xmlns="http://www.w3.org/2000/svg" width="341.534" height="100.298" viewBox="0 0 341.534 100.298">
  <g id="Group_250" data-name="Group 250" transform="translate(-506 -308)">
    <g id="Group_249" data-name="Group 249" transform="translate(506 308)">
      <path id="Path_512" data-name="Path 512" d="M127.556,592.944a18.854,18.854,0,0,0-3.644-2.148,17.264,17.264,0,0,0-6.074-1.82,12.3,12.3,0,0,0-4.768.692c-3.215,1.076-5.994,3.2-8.782,5.076-3.238,2.18-6.6,4.053-10.553,4.455a12.607,12.607,0,0,1-5.187-.547c-.007-.007-.012-.007-.021-.018a18.1,18.1,0,0,1-1.98-1.9,44.3,44.3,0,0,1-3.866-5.085,1.787,1.787,0,0,0-.449-.4,24.416,24.416,0,0,0,6,1.656,33.264,33.264,0,0,0,8.853,0,14.154,14.154,0,0,0,5.989-2.4c3.2-2.185,5.26-5.355,7.093-8.713,1.624-2.97,3.123-6.089,5.461-8.579a12.045,12.045,0,0,1,3.321-2.5,12.232,12.232,0,0,1,1.944-.739,9.91,9.91,0,0,1,.992-.221c-.108.018.6-.088.448-.071,0,0,.785-.049.359-.03.189-.012,2.3-.173,1.116-.4a18.492,18.492,0,0,0-4.218-.209,17.134,17.134,0,0,0-6.222,1.2,12.642,12.642,0,0,0-3.915,2.825c-2.355,2.452-3.848,5.629-5.458,8.588-1.874,3.437-4,6.656-7.315,8.846a12.778,12.778,0,0,1-4.837,1.928.1.1,0,0,0-.044-.011,17.415,17.415,0,0,1-2.629-.764,43.853,43.853,0,0,1-5.759-2.716,1.913,1.913,0,0,0-.577-.145,24.332,24.332,0,0,0,6.07-1.32,33.134,33.134,0,0,0,7.855-4.1,14.142,14.142,0,0,0,4.205-4.906c1.84-3.436,2.211-7.2,2.3-11.024.08-3.39-.023-6.854.908-10.15a12.05,12.05,0,0,1,1.8-3.758,11.64,11.64,0,0,1,1.383-1.557,9.132,9.132,0,0,1,.777-.658c-.088.065.494-.357.363-.267,0,0,.678-.409.31-.2.165-.1,1.958-1.219.807-.87a18.3,18.3,0,0,0-3.841,1.773,17.293,17.293,0,0,0-4.968,3.954,12.516,12.516,0,0,0-2.173,4.322c-.968,3.266-.837,6.774-.909,10.15-.081,3.917-.487,7.761-2.427,11.25a12.8,12.8,0,0,1-3.411,3.954c-.016,0-.019.007-.039.011a17.822,17.822,0,0,1-2.684.536,43.071,43.071,0,0,1-6.353.271,1.721,1.721,0,0,0-.582.141,24.573,24.573,0,0,0,4.787-3.986,33.51,33.51,0,0,0,5.083-7.294,14.3,14.3,0,0,0,1.479-6.3c.057-3.9-1.345-7.411-3.022-10.85-1.486-3.043-3.167-6.066-3.85-9.421a11.922,11.922,0,0,1-.124-4.17,11.422,11.422,0,0,1,.511-2.024,10.119,10.119,0,0,1,.386-.943c-.042.1.272-.543.2-.412,0,0,.41-.674.184-.318.1-.157,1.178-1.985.31-1.143a18.854,18.854,0,0,0-2.587,3.354,17.306,17.306,0,0,0-2.6,5.817,12.555,12.555,0,0,0,.055,4.84c.64,3.351,2.367,6.4,3.857,9.423,1.72,3.519,3.128,7.114,3,11.107a12.675,12.675,0,0,1-1.3,5.175,18.517,18.517,0,0,1-2.075,1.674,42.313,42.313,0,0,1-5.516,3.185,1.694,1.694,0,0,0-.441.387,24.61,24.61,0,0,0,2.41-5.75,33.6,33.6,0,0,0,1.161-8.833,14.32,14.32,0,0,0-1.578-6.282c-1.737-3.478-4.593-5.944-7.659-8.214-2.716-2.011-5.591-3.91-7.74-6.569a12.111,12.111,0,0,1-2.026-3.641,11.68,11.68,0,0,1-.474-2.034c-.048-.338-.074-.678-.088-1.016.005.1-.007-.617-.011-.455,0,0,.057-.794.018-.372.018-.182.134-2.311-.244-1.162a18.5,18.5,0,0,0-.761,4.177,17.426,17.426,0,0,0,.368,6.365,12.4,12.4,0,0,0,2.273,4.271c2.1,2.673,5.035,4.579,7.738,6.574,3.142,2.312,6.043,4.854,7.765,8.453a12.8,12.8,0,0,1,1.261,5.09l-.009.032a19.669,19.669,0,0,1-1.1,2.525,43.723,43.723,0,0,1-3.432,5.376,1.876,1.876,0,0,0-.221.563,24.68,24.68,0,0,0-.5-6.227,33.486,33.486,0,0,0-3.022-8.372,14.111,14.111,0,0,0-4.28-4.842c-3.144-2.282-6.806-3.147-10.567-3.733-3.33-.518-6.755-.876-9.883-2.238a11.267,11.267,0,0,1-4.819-3.869c-.2-.28-.377-.568-.548-.865.057.1-.285-.533-.218-.4,0,0-.311-.72-.15-.329-.074-.179-.943-2.112-.754-.916a18.519,18.519,0,0,0,1.247,4.057,17.235,17.235,0,0,0,3.241,5.472,12.5,12.5,0,0,0,3.977,2.74c3.092,1.392,6.571,1.72,9.882,2.233,3.853.591,7.588,1.506,10.771,3.894a12.853,12.853,0,0,1,3.45,3.922l.007.042a18.954,18.954,0,0,1,.18,2.746,44.246,44.246,0,0,1-.573,6.372,1.9,1.9,0,0,0,.065.593,24.8,24.8,0,0,0-3.3-5.293,33.145,33.145,0,0,0-6.523-6.024,14.084,14.084,0,0,0-6.019-2.305c-3.834-.566-7.482.37-11.086,1.59-3.2,1.084-6.394,2.364-9.791,2.606a11.717,11.717,0,0,1-4.124-.423,11.128,11.128,0,0,1-1.932-.777,9.832,9.832,0,0,1-.883-.511c.092.064-.5-.341-.375-.253,0,0-.61-.5-.287-.221-.145-.125-1.8-1.438-1.088-.465a18.226,18.226,0,0,0,2.967,3.022,17.184,17.184,0,0,0,5.387,3.351,12.541,12.541,0,0,0,4.786.584c3.384-.2,6.617-1.53,9.792-2.609,3.692-1.26,7.42-2.187,11.339-1.546a12.63,12.63,0,0,1,4.872,1.891l.016.018a18.669,18.669,0,0,1,1.419,2.355,43.914,43.914,0,0,1,2.417,5.921,1.7,1.7,0,0,0,.329.5,24.5,24.5,0,0,0-5.359-3.161,33.293,33.293,0,0,0-8.547-2.319,14.122,14.122,0,0,0-6.4.752c-3.659,1.281-6.466,3.805-9.1,6.556-2.341,2.449-4.589,5.067-7.492,6.863a11.8,11.8,0,0,1-3.851,1.534,11.127,11.127,0,0,1-2.07.212c-.338,0-.676-.014-1.014-.044.106.005-.6-.073-.453-.05,0,0-.768-.157-.352-.065-.188-.039-2.263-.435-1.182.09a17.865,17.865,0,0,0,4.02,1.306,17.138,17.138,0,0,0,6.316.471,12.561,12.561,0,0,0,4.508-1.7c2.912-1.75,5.173-4.425,7.494-6.861,2.7-2.831,5.578-5.387,9.352-6.636a12.7,12.7,0,0,1,5.168-.593l.037.021a17.486,17.486,0,0,1,2.344,1.426,43.79,43.79,0,0,1,4.86,4.133,1.893,1.893,0,0,0,.52.285,24.363,24.363,0,0,0-6.2-.318,33,33,0,0,0-8.646,1.914,14.19,14.19,0,0,0-5.332,3.637c-2.664,2.829-3.991,6.371-5.069,10.043-.95,3.255-1.744,6.625-3.5,9.564a11.86,11.86,0,0,1-2.71,3.147,10.968,10.968,0,0,1-1.741,1.146,9.784,9.784,0,0,1-.922.437c.1-.05-.566.216-.425.166,0,0-.754.214-.343.11-.184.046-2.21.663-1,.626a18.257,18.257,0,0,0,4.163-.711,17.107,17.107,0,0,0,5.819-2.512,12.5,12.5,0,0,0,3.222-3.607c1.778-2.9,2.558-6.325,3.5-9.56,1.092-3.77,2.479-7.376,5.254-10.229a12.618,12.618,0,0,1,4.333-2.932h.023a17.943,17.943,0,0,1,2.733.184,43.741,43.741,0,0,1,6.206,1.4,1.732,1.732,0,0,0,.594.014,24.359,24.359,0,0,0-5.649,2.6,33.408,33.408,0,0,0-6.8,5.711,14.212,14.212,0,0,0-3.057,5.7c-1.061,3.745-.617,7.506.113,11.261.651,3.331,1.49,6.686,1.284,10.109a11.975,11.975,0,0,1-.957,4.051,11.666,11.666,0,0,1-1.017,1.824,9.489,9.489,0,0,1-.623.81c.073-.076-.4.46-.3.347.005-.007-.573.543-.258.256-.14.127-1.654,1.613-.6,1.024A18.615,18.615,0,0,0,57.9,631.1a17.237,17.237,0,0,0,4.007-4.932,12.716,12.716,0,0,0,1.2-4.692c.244-3.4-.635-6.8-1.286-10.112-.755-3.844-1.185-7.689-.032-11.51a12.919,12.919,0,0,1,2.487-4.6l.03-.014a17.454,17.454,0,0,1,2.509-1.113A43.09,43.09,0,0,1,72.97,592.5a1.811,1.811,0,0,0,.529-.262,24.479,24.479,0,0,0-3.818,4.924,33.546,33.546,0,0,0-3.4,8.218,14.314,14.314,0,0,0-.1,6.486c.777,3.814,2.9,6.944,5.269,9.936,2.1,2.652,4.389,5.237,5.778,8.363a11.9,11.9,0,0,1,1.008,4.05,11.375,11.375,0,0,1-.064,2.084c-.042.347-.1.674-.175,1.01.019-.108-.152.591-.11.441,0,0-.258.754-.113.352-.062.18-.724,2.19-.06,1.187a18.415,18.415,0,0,0,1.81-3.836,17.324,17.324,0,0,0,1.291-6.236,12.511,12.511,0,0,0-1.088-4.724c-1.339-3.133-3.682-5.739-5.776-8.37-2.438-3.059-4.577-6.27-5.315-10.2a12.852,12.852,0,0,1,.1-5.231l.021-.037a18.32,18.32,0,0,1,1.714-2.148,44.3,44.3,0,0,1,4.708-4.3,1.626,1.626,0,0,0,.347-.478,25.035,25.035,0,0,0-1.122,6.142,33.663,33.663,0,0,0,.75,8.874,14.2,14.2,0,0,0,2.885,5.792c2.443,3.027,5.759,4.819,9.237,6.371,3.084,1.378,6.3,2.615,8.964,4.747a11.294,11.294,0,0,1,3.653,5,10,10,0,0,1,.3.977c-.027-.1.14.6.113.448,0,0,.11.782.058.354.023.193.363,2.289.487,1.083a18.542,18.542,0,0,0-.15-4.244,17.339,17.339,0,0,0-1.718-6.13,12.519,12.519,0,0,0-3.133-3.682c-2.625-2.155-5.9-3.379-8.964-4.741-3.565-1.587-6.94-3.439-9.389-6.579a12.7,12.7,0,0,1-2.321-4.7l0-.03a18.526,18.526,0,0,1,.538-2.708,43.048,43.048,0,0,1,2.2-6,1.809,1.809,0,0,0,.09-.594,24.923,24.923,0,0,0,1.822,5.978,33.248,33.248,0,0,0,4.738,7.519,14.031,14.031,0,0,0,5.217,3.8c3.554,1.56,7.321,1.606,11.117,1.369,3.365-.207,6.785-.6,10.127.046a11.67,11.67,0,0,1,3.874,1.49,10.854,10.854,0,0,1,1.663,1.251,8.659,8.659,0,0,1,.716.724,4.424,4.424,0,0,0,.3.34s.464.644.219.292c.108.163,1.373,1.866.934.738a18.644,18.644,0,0,0-2.084-3.7,17.308,17.308,0,0,0-4.34-4.641,12.449,12.449,0,0,0-4.467-1.815c-3.321-.693-6.781-.256-10.132-.041-3.889.249-7.729.164-11.346-1.483a12.6,12.6,0,0,1-4.211-3.077l-.012-.041a18.316,18.316,0,0,1-.768-2.643,43.725,43.725,0,0,1-.8-6.348A4.193,4.193,0,0,0,80,592.544c-.071-.136-.157-.265-.232-.4a26.062,26.062,0,0,0,5.376,5.261A33.14,33.14,0,0,0,93,601.513a13.969,13.969,0,0,0,6.408.651c3.846-.455,7.126-2.31,10.295-4.43,2.806-1.888,5.564-3.961,8.782-5.077a11.621,11.621,0,0,1,4.094-.672,11.432,11.432,0,0,1,2.063.244c.333.071.658.161.982.264-.1-.03.57.2.426.149,0-.007.718.322.336.138C126.558,592.855,128.5,593.7,127.556,592.944Z" transform="translate(-27.515 -539.266)" fill="#fff"/>
      <g id="Group_247" data-name="Group 247" transform="translate(113.763 63.9)">
        <g id="Group_246" data-name="Group 246">
          <path id="Path_513" data-name="Path 513" d="M97.255,575.864l-2.76,14.863H91.818l2.762-14.863Z" transform="translate(-91.818 -575.017)" fill="#fff"/>
          <path id="Path_514" data-name="Path 514" d="M106.317,580.286a11.334,11.334,0,0,1-.235,1.762l-1.3,6.942H102.28l1.191-6.392a11.52,11.52,0,0,0,.212-1.442,1.023,1.023,0,0,0-1.168-1.148,3,3,0,0,0-2.295,1.361,8.123,8.123,0,0,0-1.506,3.586l-.764,4.035H95.467l1.951-10.615h2.528l-.469,2.461q2-2.715,4.416-2.716a2.549,2.549,0,0,1,1.773.582A2.032,2.032,0,0,1,106.317,580.286Z" transform="translate(-89.011 -573.281)" fill="#fff"/>
          <path id="Path_515" data-name="Path 515" d="M110.871,575.873l-.679,1.378a2.789,2.789,0,0,0-.978-.212,1.391,1.391,0,0,0-1.178.554,4.677,4.677,0,0,0-.646,1.911l-.17.977h2.291l-.253,1.421h-2.293l-1.721,9.194h-2.505l1.721-9.194h-1.527l.251-1.421h1.53l.17-.977a5.6,5.6,0,0,1,1.316-2.93,3.711,3.711,0,0,1,2.781-1.189A3.8,3.8,0,0,1,110.871,575.873Z" transform="translate(-83.419 -575.385)" fill="#fff"/>
          <path id="Path_516" data-name="Path 516" d="M116.831,582.919a6.372,6.372,0,0,1-1.7,4.478,5.364,5.364,0,0,1-4.1,1.847,4.3,4.3,0,0,1-3.28-1.368,4.9,4.9,0,0,1-1.284-3.492,6.151,6.151,0,0,1,1.773-4.428,5.711,5.711,0,0,1,4.257-1.835,4.01,4.01,0,0,1,3.11,1.348A4.943,4.943,0,0,1,116.831,582.919Zm-2.677-.32q0-2.972-1.951-2.97a2.575,2.575,0,0,0-2.144,1.475,6.444,6.444,0,0,0-.915,3.471q0,3.163,2.019,3.163a2.267,2.267,0,0,0,1.783-.977A6.479,6.479,0,0,0,114.154,582.6Z" transform="translate(-80.548 -573.281)" fill="#fff"/>
          <path id="Path_517" data-name="Path 517" d="M121.607,578.926l-1.233,1.911a2.878,2.878,0,0,0-1.019-.21,2.213,2.213,0,0,0-1.889,1.1,8.137,8.137,0,0,0-.955,2.8l-.826,4.458h-2.505l1.953-10.615h2.526l-.384,2.015.808-1.04a2.565,2.565,0,0,1,1.888-1.23A2.341,2.341,0,0,1,121.607,578.926Z" transform="translate(-75.388 -573.281)" fill="#fff"/>
          <path id="Path_518" data-name="Path 518" d="M134.654,580.35a14.562,14.562,0,0,1-.3,2.144l-1.21,6.5h-2.486l1.107-6.135a13.4,13.4,0,0,0,.253-1.783c0-.708-.333-1.063-1-1.063a2.8,2.8,0,0,0-2.158,1.327,7.762,7.762,0,0,0-1.4,3.322l-.8,4.333h-2.519l1.1-6.01c.2-1.074.3-1.7.3-1.868,0-.736-.327-1.1-.978-1.1a3.057,3.057,0,0,0-2.463,1.7,8.668,8.668,0,0,0-1.166,3.184l-.764,4.1H117.69l1.955-10.615h2.526l-.405,2.187q1.953-2.441,4.163-2.441a1.932,1.932,0,0,1,1.739.764,3.3,3.3,0,0,1,.425,1.783q1.974-2.548,4.248-2.548Q134.652,578.121,134.654,580.35Z" transform="translate(-71.918 -573.281)" fill="#fff"/>
          <path id="Path_519" data-name="Path 519" d="M139.24,578.376l-2,10.615h-2.505l.34-1.783a11.18,11.18,0,0,1-2.015,1.6,3.561,3.561,0,0,1-1.743.433,2.626,2.626,0,0,1-2.238-1.1,4.9,4.9,0,0,1-.819-2.992,7.539,7.539,0,0,1,1.72-4.925,5.081,5.081,0,0,1,4.012-2.1,2.786,2.786,0,0,1,2.505,1.463l.235-1.208Zm-3.186,3.052a1.625,1.625,0,0,0-.486-1.228,1.742,1.742,0,0,0-1.254-.467,2.827,2.827,0,0,0-2.388,1.6,7.182,7.182,0,0,0-.987,3.841q0,2.33,1.509,2.33,1.481,0,2.631-2.2A8.24,8.24,0,0,0,136.053,581.428Z" transform="translate(-63.787 -573.281)" fill="#fff"/>
          <path id="Path_520" data-name="Path 520" d="M142.162,579.659l-.257,1.421H139.36l-.978,5.139a11.247,11.247,0,0,0-.234,1.613c0,.679.327,1.019.977,1.019a4.691,4.691,0,0,0,1.424-.3l.149,1.378a6.514,6.514,0,0,1-2.677.594q-2.463,0-2.463-2.058a20.238,20.238,0,0,1,.318-2.038l.978-5.352h-1.3l.255-1.421h1.339l.467-2.571,2.588-.635-.594,3.206Z" transform="translate(-58.175 -574.563)" fill="#fff"/>
          <path id="Path_521" data-name="Path 521" d="M143.781,580.342l-1.973,10.615H139.3l1.973-10.615Zm.809-3.46a1.772,1.772,0,0,1-.49,1.261,1.589,1.589,0,0,1-1.21.52,1.2,1.2,0,0,1-.924-.372,1.344,1.344,0,0,1-.35-.964,1.732,1.732,0,0,1,.49-1.252,1.606,1.606,0,0,1,1.208-.511,1.225,1.225,0,0,1,.913.372A1.3,1.3,0,0,1,144.589,576.882Z" transform="translate(-55.295 -575.247)" fill="#fff"/>
          <path id="Path_522" data-name="Path 522" d="M153.06,582.919a6.374,6.374,0,0,1-1.7,4.478,5.359,5.359,0,0,1-4.1,1.847,4.3,4.3,0,0,1-3.28-1.368,4.9,4.9,0,0,1-1.284-3.492,6.145,6.145,0,0,1,1.774-4.428,5.7,5.7,0,0,1,4.255-1.835,4.01,4.01,0,0,1,3.11,1.348A4.944,4.944,0,0,1,153.06,582.919Zm-2.675-.32q0-2.972-1.955-2.97a2.577,2.577,0,0,0-2.144,1.475,6.473,6.473,0,0,0-.911,3.471q0,3.163,2.015,3.163a2.267,2.267,0,0,0,1.783-.977A6.48,6.48,0,0,0,150.385,582.6Z" transform="translate(-52.683 -573.281)" fill="#fff"/>
          <path id="Path_523" data-name="Path 523" d="M160.268,580.286a11.333,11.333,0,0,1-.235,1.762l-1.3,6.942h-2.505l1.191-6.392a11.52,11.52,0,0,0,.212-1.442,1.023,1.023,0,0,0-1.168-1.148,3.005,3.005,0,0,0-2.295,1.361,8.124,8.124,0,0,0-1.506,3.586l-.764,4.035h-2.484l1.951-10.615H153.9l-.469,2.461q2-2.715,4.418-2.716a2.548,2.548,0,0,1,1.771.582A2.026,2.026,0,0,1,160.268,580.286Z" transform="translate(-47.515 -573.281)" fill="#fff"/>
          <path id="Path_524" data-name="Path 524" d="M171.112,575.864l-.317,1.826h-4.142l-2.42,13.037h-2.675l2.4-13.037h-4.073l.338-1.826Z" transform="translate(-39.465 -575.017)" fill="#fff"/>
          <path id="Path_525" data-name="Path 525" d="M175.225,580.647a3.12,3.12,0,0,1-1.732,2.728,8.749,8.749,0,0,1-4.575,1.051h-.72v.446q0,2.633,2.229,2.633a6.215,6.215,0,0,0,2.8-.87l.658,1.3a9.326,9.326,0,0,1-4.437,1.315,3.739,3.739,0,0,1-2.8-.977,4.229,4.229,0,0,1-1.127-3.1,6.94,6.94,0,0,1,2.019-4.925,6.267,6.267,0,0,1,4.671-2.121,3.3,3.3,0,0,1,2.2.69A2.285,2.285,0,0,1,175.225,580.647Zm-2.293.17a1.183,1.183,0,0,0-.32-.862,1.126,1.126,0,0,0-.847-.327,2.961,2.961,0,0,0-2.123,1.06,5.378,5.378,0,0,0-1.21,2.316,5.773,5.773,0,0,0,1.444-.085,4.283,4.283,0,0,0,2.187-.681A1.7,1.7,0,0,0,172.932,580.817Z" transform="translate(-35.129 -573.281)" fill="#fff"/>
          <path id="Path_526" data-name="Path 526" d="M180.737,578.949l-.936,1.378a3.317,3.317,0,0,0-1.762-.571,3.353,3.353,0,0,0-2.686,1.378,5.111,5.111,0,0,0-1.113,3.312,3.653,3.653,0,0,0,.593,2.219,1.927,1.927,0,0,0,1.636.8,4.994,4.994,0,0,0,2.25-.7l.658,1.4a8.117,8.117,0,0,1-3.821,1.081,3.768,3.768,0,0,1-2.93-1.208,4.6,4.6,0,0,1-1.106-3.229,6.57,6.57,0,0,1,1.911-4.69,6.017,6.017,0,0,1,4.481-2A4.869,4.869,0,0,1,180.737,578.949Z" transform="translate(-30.514 -573.281)" fill="#fff"/>
          <path id="Path_527" data-name="Path 527" d="M187.711,582.345a11.334,11.334,0,0,1-.235,1.762l-1.3,6.942h-2.505l1.191-6.392a11.807,11.807,0,0,0,.212-1.421,1.034,1.034,0,0,0-1.168-1.169,3,3,0,0,0-2.295,1.36,8.124,8.124,0,0,0-1.507,3.586l-.763,4.036h-2.486l2.889-15.606h2.505l-1.382,7.452q2.019-2.736,4.395-2.739a2.57,2.57,0,0,1,1.783.594A2.048,2.048,0,0,1,187.711,582.345Z" transform="translate(-26.407 -575.34)" fill="#fff"/>
          <path id="Path_528" data-name="Path 528" d="M194.753,580.286a11.049,11.049,0,0,1-.234,1.762l-1.293,6.942h-2.505l1.189-6.392a11.034,11.034,0,0,0,.211-1.442,1.022,1.022,0,0,0-1.166-1.148,3,3,0,0,0-2.293,1.361,8.064,8.064,0,0,0-1.507,3.586l-.766,4.035h-2.484l1.955-10.615h2.525l-.465,2.461q2-2.715,4.416-2.716a2.549,2.549,0,0,1,1.773.582A2.028,2.028,0,0,1,194.753,580.286Z" transform="translate(-20.989 -573.281)" fill="#fff"/>
          <path id="Path_529" data-name="Path 529" d="M201.395,582.919a6.38,6.38,0,0,1-1.7,4.478,5.368,5.368,0,0,1-4.1,1.847,4.3,4.3,0,0,1-3.278-1.368,4.9,4.9,0,0,1-1.286-3.492,6.151,6.151,0,0,1,1.773-4.428,5.714,5.714,0,0,1,4.257-1.835,4.01,4.01,0,0,1,3.11,1.348A4.944,4.944,0,0,1,201.395,582.919Zm-2.677-.32q0-2.972-1.953-2.97a2.575,2.575,0,0,0-2.144,1.475,6.458,6.458,0,0,0-.913,3.471q0,3.163,2.017,3.163a2.267,2.267,0,0,0,1.783-.977A6.48,6.48,0,0,0,198.718,582.6Z" transform="translate(-15.506 -573.281)" fill="#fff"/>
          <path id="Path_530" data-name="Path 530" d="M203.122,575.457l-2.889,15.583h-2.505l2.91-15.583Z" transform="translate(-10.357 -575.33)" fill="#fff"/>
          <path id="Path_531" data-name="Path 531" d="M211.485,582.919a6.372,6.372,0,0,1-1.7,4.478,5.362,5.362,0,0,1-4.1,1.847,4.3,4.3,0,0,1-3.28-1.368,4.9,4.9,0,0,1-1.284-3.492,6.151,6.151,0,0,1,1.773-4.428,5.714,5.714,0,0,1,4.257-1.835,4.01,4.01,0,0,1,3.11,1.348A4.943,4.943,0,0,1,211.485,582.919Zm-2.675-.32q0-2.972-1.953-2.97a2.575,2.575,0,0,0-2.144,1.475,6.443,6.443,0,0,0-.913,3.471q0,3.163,2.017,3.163a2.267,2.267,0,0,0,1.783-.977A6.48,6.48,0,0,0,208.81,582.6Z" transform="translate(-7.744 -573.281)" fill="#fff"/>
          <path id="Path_532" data-name="Path 532" d="M219.388,578.376l-1.677,9.044a10.6,10.6,0,0,1-1.911,4.862,5.906,5.906,0,0,1-4.713,2.017,7.767,7.767,0,0,1-3.843-1.021l.828-1.718a5.05,5.05,0,0,0,2.97.892,3.4,3.4,0,0,0,3.018-1.486,7.116,7.116,0,0,0,.973-2.633l.214-1.125a10.652,10.652,0,0,1-2,1.6,3.594,3.594,0,0,1-1.764.433,2.67,2.67,0,0,1-2.249-1.092,4.826,4.826,0,0,1-.83-2.985,7.55,7.55,0,0,1,1.732-4.936,5.1,5.1,0,0,1,4.021-2.111,2.766,2.766,0,0,1,2.484,1.463l.235-1.208Zm-3.186,3.052a1.638,1.638,0,0,0-.476-1.228,1.7,1.7,0,0,0-1.242-.467,2.839,2.839,0,0,0-2.41,1.6,7.165,7.165,0,0,0-.987,3.841q0,2.33,1.507,2.33,1.483,0,2.633-2.2A8.322,8.322,0,0,0,216.2,581.428Z" transform="translate(-3.037 -573.281)" fill="#fff"/>
          <path id="Path_533" data-name="Path 533" d="M225.7,578.706l-10,15.583-1.806-.977,3.611-5.479-1.679-9.318,2.634-.382q.273,1.953.763,5.921c.03.285.073.885.127,1.806q2.55-4.67,4.375-7.728Z" transform="translate(2.076 -573.271)" fill="#fff"/>
        </g>
      </g>
      <g id="Group_248" data-name="Group 248" transform="translate(116.22 25.229)">
        <path id="Path_534" data-name="Path 534" d="M121.6,578.115h-7.246l2.2-12.375q.241-1.367.964-4.878c-.646,1.445-1.458,3.077-2.433,4.878l-6.64,12.375H105.2l-2.364-12.375c-.249-1.336-.479-2.969-.7-4.915-.2,1.711-.432,3.346-.709,4.915l-2.194,12.375H93.207l4.349-24.543h9.079l2.693,15.04,7.841-15.04h8.784Z" transform="translate(-93.207 -553.492)" fill="#fff"/>
        <path id="Path_535" data-name="Path 535" d="M136.447,578.115h-8.131l-.962-5.866h-7.908l-3.522,5.866h-5.974l14.739-24.543h6.452Zm-9.617-9.709-1.182-7.719-4.246,7.719Z" transform="translate(-80.33 -553.492)" fill="#fff"/>
        <path id="Path_536" data-name="Path 536" d="M148.076,578.115h-4.844l-9.088-13.89-2.461,13.89h-6.028l4.35-24.543h5.315l8.658,13.64,2.42-13.64h6.026Z" transform="translate(-68.249 -553.492)" fill="#fff"/>
        <path id="Path_537" data-name="Path 537" d="M165.535,578.115H157.4l-.964-5.866h-7.91l-3.519,5.866h-5.98l14.741-24.543h6.454Zm-9.619-9.709-1.18-7.719-4.248,7.719Z" transform="translate(-57.961 -553.492)" fill="#fff"/>
        <path id="Path_538" data-name="Path 538" d="M173.425,571.111a7.48,7.48,0,0,1-3.616,5.1,13.662,13.662,0,0,1-7.459,1.939,12.965,12.965,0,0,1-7.655-2.21l3.032-3.947a6.163,6.163,0,0,0,4.326,1.707,4.6,4.6,0,0,0,2.413-.646,2.44,2.44,0,0,0,1.242-1.667,2.673,2.673,0,0,0-.561-2.008,27.422,27.422,0,0,0-2.365-2.516c-.773-.724-1.759-1.693-2.956-2.891a5.081,5.081,0,0,1-1.154-4.221,6.547,6.547,0,0,1,3.284-4.524,12.883,12.883,0,0,1,6.832-1.7,13.343,13.343,0,0,1,6.473,1.6l-2.712,3.747a7.817,7.817,0,0,0-3.321-.9c-1.6,0-2.505.5-2.679,1.5a1.545,1.545,0,0,0,.287,1.159,13.728,13.728,0,0,0,1.833,1.905,36.152,36.152,0,0,1,3.225,3.4A6.122,6.122,0,0,1,173.425,571.111Z" transform="translate(-45.913 -553.527)" fill="#fff"/>
        <path id="Path_539" data-name="Path 539" d="M180.833,578.115H165.342l4.352-24.543h15.524l-.824,4.642h-7.91l-.832,4.7h7.894l-.832,4.7h-7.9l-1.037,5.868h7.876Z" transform="translate(-37.724 -553.492)" fill="#fff"/>
        <path id="Path_540" data-name="Path 540" d="M190.279,578.115H174.788l4.349-24.543h15.526l-.823,4.642h-7.91l-.835,4.7h7.894l-.832,4.7h-7.9l-1.037,5.868H191.1Z" transform="translate(-30.459 -553.492)" fill="#fff"/>
        <path id="Path_541" data-name="Path 541" d="M206.378,578.078h-8.35l-2.475-9.566h-1.978l-1.705,9.6H184.26l4.349-24.543h9.92a38.741,38.741,0,0,1,4.025.14,7.69,7.69,0,0,1,3.528,1.26q2.521,1.863,1.852,5.614-.786,4.453-5.911,6.772Zm-5.72-17.026c.226-1.267-.021-2.143-.743-2.634a5.994,5.994,0,0,0-3.027-.529h-1.431l-1.182,6.672h1.359a5.789,5.789,0,0,0,3.572-.9A4.019,4.019,0,0,0,200.658,561.052Z" transform="translate(-23.173 -553.492)" fill="#fff"/>
      </g>
    </g>
  </g>
</svg>
