<svg id="JwXvs7" xmlns="http://www.w3.org/2000/svg" width="23.298" height="22.198" viewBox="0 0 23.298 22.198">
  <g id="Group_7" data-name="Group 7">
    <path id="Path_20" data-name="Path 20" d="M137.405,884.194a4.779,4.779,0,0,1,2.583-3.348,6.977,6.977,0,0,1,7.1-.043,5.394,5.394,0,0,1,2.883,4.62c.052,1.011-.03,2.027-.052,3.042-.012.569.177.721.711.5a2.453,2.453,0,0,1,1.474-.15,1.484,1.484,0,0,1,.377.121.724.724,0,0,1,.119,1.309,8.411,8.411,0,0,1-1.135.6c-.32.158-.664.273-.978.444a.653.653,0,0,0-.338.932,6.634,6.634,0,0,0,4.25,4.1,1,1,0,0,1,.264.076c.2.138.481.258.559.452.113.283-.178.706-.5.823-.652.239-1.306.475-1.973.671-.4.119-.685.308-.747.745a1.026,1.026,0,0,1-.038.117c-.195.734-.4.863-1.149.717a4.616,4.616,0,0,0-2.893.234,11.535,11.535,0,0,0-1.373.812,6.41,6.41,0,0,1-2.29,1.011,4.2,4.2,0,0,1-2.816-.518,13.253,13.253,0,0,1-1.3-.815,4.635,4.635,0,0,0-3.721-.729c-.04.008-.08.02-.12.027-.736.113-.938-.009-1.1-.745a1.017,1.017,0,0,0-.885-.874,16.4,16.4,0,0,1-1.724-.544.97.97,0,0,1-.633-.737.452.452,0,0,1,.123-.385,1.883,1.883,0,0,1,.62-.322,6.467,6.467,0,0,0,3.98-3.4c.115-.217.225-.437.321-.664a.685.685,0,0,0-.332-.984c-.355-.181-.74-.3-1.1-.467a5.639,5.639,0,0,1-.969-.525.809.809,0,0,1,.085-1.421,1.277,1.277,0,0,1,1.124-.118c.281.1.561.2.849.267.379.092.571-.064.576-.454.006-.461,0-.923,0-1.385A15.509,15.509,0,0,1,137.405,884.194Z" transform="translate(-131.953 -879.851)" fill="#fff"/>
  </g>
</svg>
