<svg id="Group_243" data-name="Group 243" xmlns="http://www.w3.org/2000/svg" width="87.827" height="84.168" viewBox="0 0 87.827 84.168">
  <path id="Path_482" data-name="Path 482" d="M80.508,62.211a7.3,7.3,0,0,0,3.165-13.888,7.22,7.22,0,0,0,.494-2.58,7.308,7.308,0,0,0-5.515-7.07c0-.084.026-.165.026-.249a7.322,7.322,0,0,0-7.319-7.319,7.468,7.468,0,0,0-1.347.135,14.846,14.846,0,0,0-4.706-3.9A12.553,12.553,0,0,0,54.874,11.161c0-.062.018-.117.018-.183a10.978,10.978,0,0,0-21.957,0c0,.066.018.121.018.183a12.769,12.769,0,0,0-11,12.625,12.53,12.53,0,0,0,.564,3.553,14.894,14.894,0,0,0-4.706,3.9,7.4,7.4,0,0,0-1.347-.135,7.322,7.322,0,0,0-7.319,7.319c0,.084.022.165.026.249a7.308,7.308,0,0,0-5.515,7.07,7.22,7.22,0,0,0,.494,2.58,7.307,7.307,0,1,0,10.484,6.569V76.849L9.149,80.508H0v3.659H87.827V80.508H78.678l-5.489-3.659V54.892A7.322,7.322,0,0,0,80.508,62.211ZM40.254,73.189s-3.659,7.319-10.978,7.319H23.786L18.3,76.849V54.892a7.319,7.319,0,0,0,14.638,0c0-.172-.062-.326-.073-.494a14.723,14.723,0,0,0,7.392-4.552Zm18.3,7.319c-7.319,0-10.978-7.319-10.978-7.319V49.845A14.672,14.672,0,0,0,54.961,54.4c-.007.168-.07.322-.07.494a7.319,7.319,0,0,0,14.638,0V76.849l-5.489,3.659Z" fill="#fff"/>
</svg>
