<svg xmlns="http://www.w3.org/2000/svg" width="139.587" height="58.835" viewBox="0 0 139.587 58.835">
  <path id="Path_484" data-name="Path 484" d="M140.155,76.987l-.982-.077V32.236a2.333,2.333,0,0,0-2.093-2.508H47.433a2.357,2.357,0,0,0-2.156,2.508V75.016H40.292v-36.4a3.416,3.416,0,0,0-3.262-3.548H33.5a3.411,3.411,0,0,0-3.256,3.548v5.806H20.82c-1.316,0-2.373.839-3.137,2.486-.033.089-3.094,11.74-3.094,11.74L6.276,60.511A2.467,2.467,0,0,0,4.265,62.9V76.935l-1,.052a1.613,1.613,0,0,0,.077,3.2H9.029c.206,4.578,3.715,8.25,8.035,8.25s7.835-3.67,8.033-8.25H45.809c.219,4.655,3.792,8.379,8.186,8.379a8.182,8.182,0,0,0,7.33-4.892,8.172,8.172,0,0,0,7.325,4.892c4.4,0,7.968-3.724,8.187-8.379h28.728c.219,4.655,3.787,8.379,8.187,8.379a8.178,8.178,0,0,0,7.33-4.892,8.178,8.178,0,0,0,7.328,4.892c4.4,0,7.965-3.724,8.187-8.379h3.458a1.527,1.527,0,0,0,1.437-1.6A1.551,1.551,0,0,0,140.155,76.987ZM17.984,57.144l2.28-8.739.206-.8h9.779V58.486H29.185L19,58.491H17.629Z" transform="translate(-1.905 -29.728)" fill="#fff"/>
</svg>
