<svg xmlns="http://www.w3.org/2000/svg" width="23.219" height="18.858" viewBox="0 0 23.219 18.858">
  <path id="Path_16" data-name="Path 16" d="M97.333,883.789a9.962,9.962,0,0,1-2.386,2.461q.015.206.015.619a13.543,13.543,0,0,1-.56,3.823,13.82,13.82,0,0,1-1.7,3.661,14.375,14.375,0,0,1-2.718,3.1,12.072,12.072,0,0,1-3.8,2.151,13.884,13.884,0,0,1-4.76.8,13.216,13.216,0,0,1-7.307-2.137,9.955,9.955,0,0,0,1.149.06,9.319,9.319,0,0,0,5.908-2.033,4.774,4.774,0,0,1-4.449-3.3,6.028,6.028,0,0,0,.9.074,4.927,4.927,0,0,0,1.253-.162,4.672,4.672,0,0,1-2.734-1.643,4.594,4.594,0,0,1-1.083-3.027v-.059a4.721,4.721,0,0,0,2.151.6,4.763,4.763,0,0,1-1.546-1.694,4.767,4.767,0,0,1,.074-4.671,13.5,13.5,0,0,0,4.338,3.514,13.255,13.255,0,0,0,5.475,1.466,5.21,5.21,0,0,1-.119-1.09,4.764,4.764,0,0,1,8.236-3.256,9.348,9.348,0,0,0,3.02-1.148,4.622,4.622,0,0,1-2.092,2.622A9.429,9.429,0,0,0,97.333,883.789Z" transform="translate(-74.114 -881.55)" fill="#fff"/>
</svg>
