<svg xmlns="http://www.w3.org/2000/svg" width="276" height="91.931" viewBox="0 0 276 91.931">
  <g id="Group_1" data-name="Group 1" transform="translate(-27.515 -539.266)">
    <path id="Path_1" data-name="Path 1" d="M119.211,588.466a17.288,17.288,0,0,0-3.34-1.969,15.829,15.829,0,0,0-5.567-1.669,11.278,11.278,0,0,0-4.37.634c-2.946.986-5.494,2.933-8.05,4.652-2.967,2-6.05,3.715-9.673,4.083a11.557,11.557,0,0,1-4.754-.5c-.007-.007-.011-.007-.019-.016a16.574,16.574,0,0,1-1.815-1.741,40.607,40.607,0,0,1-3.543-4.66,1.638,1.638,0,0,0-.412-.363,22.374,22.374,0,0,0,5.5,1.518,30.481,30.481,0,0,0,8.114,0,12.969,12.969,0,0,0,5.489-2.2c2.935-2,4.821-4.908,6.5-7.986,1.489-2.723,2.862-5.581,5.006-7.863a11.037,11.037,0,0,1,3.044-2.288,11.2,11.2,0,0,1,1.782-.678,9.08,9.08,0,0,1,.91-.2c-.1.016.55-.081.41-.065,0,0,.72-.045.329-.027.174-.011,2.106-.159,1.023-.366a16.949,16.949,0,0,0-3.866-.191,15.705,15.705,0,0,0-5.7,1.1,11.59,11.59,0,0,0-3.589,2.59c-2.158,2.248-3.527,5.16-5,7.871-1.717,3.151-3.665,6.1-6.705,8.108A11.711,11.711,0,0,1,86.473,588a.09.09,0,0,0-.041-.01,15.932,15.932,0,0,1-2.41-.7,40.2,40.2,0,0,1-5.278-2.489,1.756,1.756,0,0,0-.529-.133,22.3,22.3,0,0,0,5.564-1.21,30.372,30.372,0,0,0,7.2-3.76,12.963,12.963,0,0,0,3.854-4.5c1.686-3.149,2.027-6.6,2.106-10.1.073-3.107-.021-6.282.832-9.3a11.045,11.045,0,0,1,1.654-3.444,10.672,10.672,0,0,1,1.268-1.427,8.386,8.386,0,0,1,.712-.6c-.081.06.452-.327.332-.245,0,0,.621-.375.284-.182.151-.089,1.8-1.117.739-.8a16.768,16.768,0,0,0-3.52,1.625,15.85,15.85,0,0,0-4.553,3.624,11.475,11.475,0,0,0-1.991,3.962c-.887,2.993-.767,6.209-.834,9.3-.075,3.59-.446,7.114-2.225,10.312a11.728,11.728,0,0,1-3.126,3.624c-.015,0-.018.007-.036.01a16.337,16.337,0,0,1-2.46.491,39.462,39.462,0,0,1-5.823.248,1.577,1.577,0,0,0-.533.13,22.518,22.518,0,0,0,4.388-3.653,30.71,30.71,0,0,0,4.659-6.686,13.1,13.1,0,0,0,1.356-5.778c.052-3.574-1.232-6.793-2.77-9.945-1.362-2.789-2.9-5.56-3.529-8.635a10.928,10.928,0,0,1-.114-3.822,10.477,10.477,0,0,1,.469-1.855,9.285,9.285,0,0,1,.354-.864c-.039.088.25-.5.185-.378,0,0,.376-.618.169-.292.092-.144,1.08-1.819.284-1.047a17.287,17.287,0,0,0-2.371,3.074,15.863,15.863,0,0,0-2.379,5.332,11.507,11.507,0,0,0,.05,4.436c.587,3.071,2.17,5.862,3.535,8.637,1.576,3.225,2.867,6.52,2.752,10.18a11.616,11.616,0,0,1-1.189,4.743,16.97,16.97,0,0,1-1.9,1.534,38.779,38.779,0,0,1-5.056,2.919,1.555,1.555,0,0,0-.4.355,22.555,22.555,0,0,0,2.209-5.27,30.8,30.8,0,0,0,1.064-8.1,13.125,13.125,0,0,0-1.446-5.758c-1.592-3.188-4.21-5.448-7.02-7.529-2.489-1.844-5.124-3.584-7.094-6.021A11.1,11.1,0,0,1,62,544.667a10.7,10.7,0,0,1-.435-1.865c-.044-.31-.068-.621-.081-.931,0,.1-.006-.566-.01-.417,0,0,.052-.728.016-.341.016-.167.123-2.118-.224-1.065a16.959,16.959,0,0,0-.7,3.828,15.973,15.973,0,0,0,.337,5.834,11.362,11.362,0,0,0,2.084,3.915c1.926,2.45,4.615,4.2,7.093,6.026,2.88,2.12,5.539,4.45,7.117,7.748a11.728,11.728,0,0,1,1.156,4.665l-.008.029a18.044,18.044,0,0,1-1.009,2.314,40.072,40.072,0,0,1-3.146,4.928,1.724,1.724,0,0,0-.2.516,22.621,22.621,0,0,0-.456-5.708,30.692,30.692,0,0,0-2.77-7.673,12.931,12.931,0,0,0-3.923-4.438c-2.882-2.092-6.238-2.885-9.686-3.422-3.052-.475-6.191-.8-9.058-2.051a10.328,10.328,0,0,1-4.417-3.546c-.182-.256-.345-.521-.5-.793.052.088-.261-.488-.2-.368,0,0-.285-.66-.138-.3-.068-.164-.864-1.936-.691-.84a16.971,16.971,0,0,0,1.143,3.718,15.8,15.8,0,0,0,2.971,5.016,11.459,11.459,0,0,0,3.645,2.512c2.835,1.276,6.023,1.576,9.058,2.046,3.532.542,6.955,1.38,9.872,3.569a11.78,11.78,0,0,1,3.162,3.6l.007.039a17.369,17.369,0,0,1,.165,2.516,40.554,40.554,0,0,1-.525,5.841,1.737,1.737,0,0,0,.06.543,22.732,22.732,0,0,0-3.027-4.852,30.38,30.38,0,0,0-5.979-5.522,12.911,12.911,0,0,0-5.517-2.113c-3.514-.519-6.858.339-10.161,1.458-2.93.994-5.86,2.166-8.974,2.389a10.74,10.74,0,0,1-3.78-.388,10.207,10.207,0,0,1-1.771-.712,9,9,0,0,1-.809-.469c.084.058-.457-.313-.344-.232,0,0-.559-.454-.263-.2-.133-.115-1.654-1.318-1-.426a16.707,16.707,0,0,0,2.719,2.77,15.754,15.754,0,0,0,4.938,3.071,11.5,11.5,0,0,0,4.386.535c3.1-.187,6.065-1.4,8.975-2.392,3.384-1.155,6.8-2,10.393-1.417a11.577,11.577,0,0,1,4.466,1.733l.015.016a17.112,17.112,0,0,1,1.3,2.158A40.251,40.251,0,0,1,69.5,580.94a1.559,1.559,0,0,0,.3.454,22.449,22.449,0,0,0-4.912-2.9,30.518,30.518,0,0,0-7.834-2.126,12.947,12.947,0,0,0-5.867.689c-3.353,1.174-5.927,3.488-8.343,6.01-2.145,2.244-4.206,4.644-6.867,6.29a10.814,10.814,0,0,1-3.53,1.406,10.2,10.2,0,0,1-1.9.195c-.31,0-.619-.013-.929-.041.1,0-.553-.067-.415-.045,0,0-.7-.144-.323-.06-.172-.036-2.074-.4-1.083.083a16.375,16.375,0,0,0,3.684,1.2,15.712,15.712,0,0,0,5.789.431,11.512,11.512,0,0,0,4.132-1.561c2.669-1.6,4.741-4.056,6.869-6.289,2.471-2.594,5.113-4.938,8.572-6.083a11.649,11.649,0,0,1,4.737-.543l.034.02a16.011,16.011,0,0,1,2.149,1.307,40.116,40.116,0,0,1,4.454,3.788,1.741,1.741,0,0,0,.477.261,22.319,22.319,0,0,0-5.687-.292,30.247,30.247,0,0,0-7.925,1.755,13.006,13.006,0,0,0-4.887,3.334c-2.442,2.593-3.658,5.839-4.646,9.206-.871,2.984-1.6,6.073-3.2,8.766a10.872,10.872,0,0,1-2.484,2.885,10.027,10.027,0,0,1-1.6,1.051,8.951,8.951,0,0,1-.845.4c.092-.046-.519.2-.389.152,0,0-.691.2-.315.1-.169.042-2.025.608-.921.574a16.744,16.744,0,0,0,3.816-.652,15.679,15.679,0,0,0,5.333-2.3A11.455,11.455,0,0,0,47.9,605.1c1.63-2.661,2.345-5.8,3.2-8.763,1-3.455,2.272-6.76,4.816-9.376a11.567,11.567,0,0,1,3.971-2.687h.021a16.431,16.431,0,0,1,2.505.169,40.065,40.065,0,0,1,5.689,1.288,1.594,1.594,0,0,0,.545.013,22.334,22.334,0,0,0-5.178,2.382,30.621,30.621,0,0,0-6.232,5.235,13.026,13.026,0,0,0-2.8,5.228c-.973,3.433-.566,6.88.1,10.321.6,3.053,1.365,6.128,1.177,9.266a10.975,10.975,0,0,1-.877,3.714,10.691,10.691,0,0,1-.932,1.672,8.686,8.686,0,0,1-.571.743c.066-.07-.37.422-.271.318,0-.006-.525.5-.237.235-.128.117-1.516,1.479-.553.939a17.076,17.076,0,0,0,3.091-2.35,15.8,15.8,0,0,0,3.673-4.521,11.655,11.655,0,0,0,1.1-4.3c.224-3.12-.582-6.237-1.179-9.269-.692-3.524-1.086-7.047-.029-10.55a11.842,11.842,0,0,1,2.28-4.218l.028-.013a16.025,16.025,0,0,1,2.3-1.02,39.492,39.492,0,0,1,5.638-1.492,1.663,1.663,0,0,0,.485-.24,22.428,22.428,0,0,0-3.5,4.513,30.747,30.747,0,0,0-3.117,7.532,13.12,13.12,0,0,0-.092,5.945c.712,3.5,2.655,6.365,4.829,9.107,1.928,2.431,4.023,4.8,5.3,7.665A10.906,10.906,0,0,1,74,626.291a10.421,10.421,0,0,1-.058,1.91c-.039.318-.092.618-.161.926.018-.1-.139.542-.1.4,0,0-.237.691-.1.323-.057.165-.663,2.008-.055,1.088a16.882,16.882,0,0,0,1.659-3.516,15.878,15.878,0,0,0,1.184-5.716,11.468,11.468,0,0,0-1-4.329c-1.228-2.872-3.374-5.26-5.294-7.672-2.235-2.8-4.2-5.747-4.871-9.348a11.78,11.78,0,0,1,.089-4.8l.019-.034a16.817,16.817,0,0,1,1.571-1.969,40.612,40.612,0,0,1,4.315-3.945,1.489,1.489,0,0,0,.318-.438,22.948,22.948,0,0,0-1.028,5.63,30.855,30.855,0,0,0,.688,8.134,13.014,13.014,0,0,0,2.645,5.309c2.239,2.775,5.278,4.417,8.466,5.839,2.826,1.263,5.773,2.4,8.217,4.351a10.352,10.352,0,0,1,3.349,4.579,9.172,9.172,0,0,1,.277.9c-.024-.094.128.547.1.41,0,0,.1.717.054.324.021.177.332,2.1.446.992a16.994,16.994,0,0,0-.138-3.89,15.892,15.892,0,0,0-1.575-5.619,11.472,11.472,0,0,0-2.872-3.374c-2.406-1.975-5.406-3.1-8.217-4.346-3.267-1.454-6.361-3.152-8.606-6.031a11.639,11.639,0,0,1-2.127-4.3l0-.028a16.982,16.982,0,0,1,.493-2.483,39.452,39.452,0,0,1,2.017-5.5,1.659,1.659,0,0,0,.083-.545,22.842,22.842,0,0,0,1.67,5.479,30.475,30.475,0,0,0,4.343,6.892,12.861,12.861,0,0,0,4.782,3.48c3.258,1.43,6.71,1.472,10.19,1.255,3.084-.19,6.219-.553,9.282.042a10.7,10.7,0,0,1,3.551,1.365,9.946,9.946,0,0,1,1.524,1.147,7.928,7.928,0,0,1,.657.663,4.056,4.056,0,0,0,.274.311s.425.59.2.268c.1.149,1.258,1.711.856.676a17.09,17.09,0,0,0-1.91-3.389,15.864,15.864,0,0,0-3.978-4.253,11.412,11.412,0,0,0-4.094-1.664c-3.044-.636-6.216-.235-9.287-.037-3.564.229-7.085.151-10.4-1.359a11.548,11.548,0,0,1-3.859-2.82l-.011-.037a16.8,16.8,0,0,1-.7-2.423,40.078,40.078,0,0,1-.735-5.818,3.842,3.842,0,0,0-.527-1.2c-.065-.125-.144-.243-.212-.366a23.887,23.887,0,0,0,4.928,4.823,30.369,30.369,0,0,0,7.2,3.765,12.8,12.8,0,0,0,5.873.6c3.525-.417,6.532-2.118,9.436-4.06,2.572-1.73,5.1-3.631,8.049-4.654a10.652,10.652,0,0,1,3.752-.616,10.481,10.481,0,0,1,1.891.224c.3.065.6.148.9.242-.1-.028.522.185.391.136,0-.006.658.3.308.126C118.3,588.385,120.075,589.155,119.211,588.466Z" transform="translate(0 0)" fill="#fff"/>
    <g id="Group_2" data-name="Group 2" transform="translate(135.389 595.382)">
      <g id="Group_1-2" data-name="Group 1">
        <path id="Path_2" data-name="Path 2" d="M109.269,575.349,108,577.219a7.769,7.769,0,0,0-3.321-.778,6.752,6.752,0,0,0-5.1,2.1,7.45,7.45,0,0,0-2.011,5.371,6.84,6.84,0,0,0,1.479,4.527,4.712,4.712,0,0,0,3.788,1.777,4.145,4.145,0,0,0,1.712-.337l1.116-5.838H108.8l-1.4,7.628a12.321,12.321,0,0,1-4.981.986,8.052,8.052,0,0,1-8.38-8.51,9.718,9.718,0,0,1,3.58-7.758,10.26,10.26,0,0,1,6.85-2.517A8.069,8.069,0,0,1,109.269,575.349Z" transform="translate(-94.039 -573.872)" fill="#fff"/>
        <path id="Path_3" data-name="Path 3" d="M118.222,578.682q0,3.529-3.918,5.4l2.88,7.68-3.373.752-2.465-7.758h-2.024l-1.375,7.472h-3.269l3.373-18.162H112.1a16.694,16.694,0,0,1,2.282.1,4.623,4.623,0,0,1,2.1.8A4.353,4.353,0,0,1,118.222,578.682Zm-3.217.269a2.582,2.582,0,0,0-1.012-2.317,3.974,3.974,0,0,0-2.127-.443H110.9l-1.192,6.537h.778a5,5,0,0,0,3.165-.832A3.551,3.551,0,0,0,115.005,578.951Z" transform="translate(-87.425 -573.753)" fill="#fff"/>
        <path id="Path_4" data-name="Path 4" d="M130.925,581.552a11.585,11.585,0,0,1-2.958,8.069,8.568,8.568,0,0,1-6.564,3.036,6.664,6.664,0,0,1-5.449-2.361,8.419,8.419,0,0,1-1.868-5.554,11.523,11.523,0,0,1,1.036-4.681,11.18,11.18,0,0,1,2.752-3.879,8.814,8.814,0,0,1,6.1-2.309,6.474,6.474,0,0,1,5.02,2.127A7.941,7.941,0,0,1,130.925,581.552Zm-3.477-.026a6.032,6.032,0,0,0-1.025-3.762,3.479,3.479,0,0,0-2.92-1.323,5.106,5.106,0,0,0-4.24,2.283,9.249,9.249,0,0,0-1.7,5.68,6.929,6.929,0,0,0,1.1,4.192,3.627,3.627,0,0,0,3.1,1.492A4.774,4.774,0,0,0,126,587.441,11.361,11.361,0,0,0,127.449,581.526Z" transform="translate(-81.578 -573.872)" fill="#fff"/>
        <path id="Path_5" data-name="Path 5" d="M141.585,574.064l-1.894,10.093a21.369,21.369,0,0,1-.96,3.749,7.553,7.553,0,0,1-1.427,2.27,7.18,7.18,0,0,1-5.6,2.361,6.153,6.153,0,0,1-4.125-1.284,4.378,4.378,0,0,1-1.5-3.516,26.856,26.856,0,0,1,.545-4.255l1.738-9.418h3.269l-1.79,9.677a21.675,21.675,0,0,0-.441,3.4,2.818,2.818,0,0,0,.752,2.063,2.709,2.709,0,0,0,2.024.765,3.728,3.728,0,0,0,3.58-2.309,14.322,14.322,0,0,0,1.09-3.71l1.816-9.885Z" transform="translate(-74.129 -573.753)" fill="#fff"/>
        <path id="Path_6" data-name="Path 6" d="M150,578.942a5.418,5.418,0,0,1-2.05,4.437,8.184,8.184,0,0,1-5.345,1.842,4.86,4.86,0,0,1-.545-.026l.389-2.1a4.133,4.133,0,0,0,3.023-1.039,3.76,3.76,0,0,0,1.129-2.878,2.642,2.642,0,0,0-1.194-2.491,4.437,4.437,0,0,0-2.1-.363h-.752l-2.958,15.9h-3.269l3.373-18.162h4.125a7.162,7.162,0,0,1,4.489,1.141A4.518,4.518,0,0,1,150,578.942Z" transform="translate(-67.754 -573.753)" fill="#fff"/>
      </g>
    </g>
    <g id="Group_3" data-name="Group 3" transform="translate(134.04 562.391)">
      <path id="Path_7" data-name="Path 7" d="M119.235,576.068h-6.642l2.012-11.343q.221-1.253.884-4.471c-.592,1.325-1.336,2.82-2.23,4.471l-6.086,11.343H104.2l-2.166-11.343c-.229-1.224-.439-2.721-.639-4.5-.18,1.568-.4,3.066-.65,4.5l-2.011,11.343H93.207l3.986-22.5h8.322l2.468,13.785,7.187-13.785h8.051Z" transform="translate(-93.207 -553.499)" fill="#fff"/>
      <path id="Path_8" data-name="Path 8" d="M134.237,576.068h-7.453l-.882-5.377h-7.248l-3.229,5.377h-5.476l13.509-22.5h5.914Zm-8.815-8.9-1.083-7.075-3.892,7.075Z" transform="translate(-82.801 -553.499)" fill="#fff"/>
      <path id="Path_9" data-name="Path 9" d="M146.206,576.068h-4.44l-8.33-12.731-2.256,12.731h-5.525l3.987-22.5h4.871l7.936,12.5,2.218-12.5h5.523Z" transform="translate(-73.037 -553.499)" fill="#fff"/>
      <path id="Path_10" data-name="Path 10" d="M163.324,576.068h-7.453l-.884-5.377h-7.25l-3.225,5.377h-5.481l13.511-22.5h5.916Zm-8.816-8.9-1.082-7.075-3.893,7.075Z" transform="translate(-64.724 -553.499)" fill="#fff"/>
      <path id="Path_11" data-name="Path 11" d="M171.863,569.644a6.856,6.856,0,0,1-3.314,4.675,12.523,12.523,0,0,1-6.837,1.777,11.883,11.883,0,0,1-7.017-2.025l2.779-3.618a5.65,5.65,0,0,0,3.965,1.565,4.214,4.214,0,0,0,2.212-.592,2.236,2.236,0,0,0,1.138-1.528,2.45,2.45,0,0,0-.514-1.84,25.091,25.091,0,0,0-2.168-2.306c-.709-.663-1.612-1.552-2.71-2.65a4.657,4.657,0,0,1-1.057-3.869,6,6,0,0,1,3.01-4.146,11.808,11.808,0,0,1,6.263-1.56,12.231,12.231,0,0,1,5.933,1.463l-2.486,3.434a7.165,7.165,0,0,0-3.044-.822c-1.471,0-2.3.459-2.455,1.375a1.416,1.416,0,0,0,.263,1.062,12.6,12.6,0,0,0,1.68,1.746,33.154,33.154,0,0,1,2.956,3.113A5.611,5.611,0,0,1,171.863,569.644Z" transform="translate(-54.988 -553.527)" fill="#fff"/>
      <path id="Path_12" data-name="Path 12" d="M179.54,576.068h-14.2l3.989-22.5H183.56l-.756,4.255h-7.25l-.762,4.3h7.235l-.762,4.305h-7.237l-.95,5.379H180.3Z" transform="translate(-48.37 -553.499)" fill="#fff"/>
      <path id="Path_13" data-name="Path 13" d="M188.987,576.068h-14.2l3.986-22.5H193l-.754,4.255H185l-.765,4.3h7.236l-.762,4.305h-7.237l-.95,5.379h7.219Z" transform="translate(-42.498 -553.499)" fill="#fff"/>
      <path id="Path_14" data-name="Path 14" d="M204.533,576.034h-7.654l-2.269-8.768H192.8l-1.563,8.8H184.26l3.986-22.5h9.092a35.505,35.505,0,0,1,3.689.128,7.049,7.049,0,0,1,3.233,1.155q2.311,1.707,1.7,5.145-.72,4.081-5.418,6.207Zm-5.243-15.606a2.2,2.2,0,0,0-.681-2.415,5.5,5.5,0,0,0-2.775-.485h-1.312l-1.083,6.115h1.245a5.307,5.307,0,0,0,3.274-.822A3.683,3.683,0,0,0,199.29,560.428Z" transform="translate(-36.611 -553.499)" fill="#fff"/>
    </g>
  </g>
</svg>
